G04 (created by PCBNEW (2013-07-07 BZR 4022)-stable) date 12/4/2019 12:35:47*
%MOIN*%
G04 Gerber Fmt 3.4, Leading zero omitted, Abs format*
%FSLAX34Y34*%
G01*
G70*
G90*
G04 APERTURE LIST*
%ADD10C,0.00590551*%
%ADD11C,0.0275591*%
%ADD12C,0.011811*%
G04 APERTURE END LIST*
G54D10*
G54D11*
X1456Y-13858D03*
X669Y-14153D03*
X4901Y-12972D03*
X6082Y-13070D03*
X5590Y-12283D03*
X6476Y-12381D03*
X5000Y-14448D03*
X6279Y-13759D03*
X5393Y-13661D03*
X6377Y-14940D03*
X5885Y-14448D03*
X5590Y-21437D03*
X6377Y-20157D03*
X6476Y-17007D03*
X1555Y-16909D03*
X3031Y-17696D03*
X2637Y-18582D03*
X570Y-18976D03*
X1358Y-18582D03*
X1850Y-19074D03*
X866Y-17795D03*
X1751Y-17893D03*
X767Y-11889D03*
X5787Y-15334D03*
X4901Y-16318D03*
X5000Y-15629D03*
X6181Y-16122D03*
X5787Y-16712D03*
X5098Y-17598D03*
X5787Y-19566D03*
X6181Y-20944D03*
X6279Y-18287D03*
X5295Y-18779D03*
X5885Y-17500D03*
X4803Y-18188D03*
X6476Y-18976D03*
X4114Y-19271D03*
X3228Y-19173D03*
X2244Y-19763D03*
X5098Y-19665D03*
X5492Y-20354D03*
X4212Y-20452D03*
X1161Y-19665D03*
X767Y-20255D03*
X3720Y-19960D03*
X2047Y-20649D03*
X2933Y-20354D03*
X4114Y-21141D03*
X4901Y-21043D03*
X2539Y-21338D03*
X964Y-21338D03*
X2440Y-15236D03*
X1358Y-15137D03*
X964Y-15728D03*
X2244Y-16122D03*
X3129Y-15826D03*
X2736Y-16811D03*
X669Y-16811D03*
X3129Y-11496D03*
X2342Y-11791D03*
X767Y-10413D03*
X1751Y-9822D03*
X1456Y-11003D03*
X2145Y-11102D03*
X1062Y-13070D03*
X1948Y-12480D03*
X3326Y-9822D03*
X6082Y-11299D03*
X5000Y-11496D03*
X6279Y-10314D03*
X5492Y-10610D03*
X5688Y-9527D03*
X4901Y-9625D03*
X2736Y-10511D03*
X3720Y-8838D03*
X2834Y-9133D03*
X866Y-9625D03*
X4507Y-8444D03*
X1555Y-8740D03*
X6279Y-3818D03*
X10137Y-826D03*
X1948Y-8149D03*
X767Y-7657D03*
X669Y-8346D03*
X1653Y-6673D03*
X669Y-6870D03*
X1555Y-7362D03*
X2539Y-7362D03*
X5000Y-8937D03*
X6279Y-8838D03*
X5885Y-8149D03*
X3031Y-8248D03*
X6476Y-5984D03*
X4901Y-6673D03*
X4015Y-7657D03*
X5885Y-6673D03*
X6279Y-7362D03*
X4901Y-7755D03*
X866Y-5000D03*
X4311Y-5885D03*
X5393Y-5787D03*
X1653Y-2933D03*
X866Y-3917D03*
X4114Y-5000D03*
X3326Y-4311D03*
X1456Y-4409D03*
X2736Y-4901D03*
X3326Y-5492D03*
X1161Y-5885D03*
X2342Y-5787D03*
X1751Y-5098D03*
X3523Y-2440D03*
X1751Y-3720D03*
X2440Y-4212D03*
X5000Y-5098D03*
X6082Y-5295D03*
X5000Y-4212D03*
X5885Y-4409D03*
X4015Y-4212D03*
X5590Y-3523D03*
X4114Y-3129D03*
X2933Y-3228D03*
X2539Y-2342D03*
X866Y-2637D03*
X1555Y-2047D03*
X5098Y-2834D03*
X4507Y-2244D03*
X3523Y-1751D03*
X2440Y-1456D03*
X964Y-1358D03*
X5984Y-2440D03*
X5098Y-1653D03*
X5787Y-1653D03*
X5984Y-669D03*
X4606Y-669D03*
X3425Y-964D03*
X4311Y-1161D03*
X5295Y-964D03*
X2637Y-669D03*
X1653Y-866D03*
X767Y-669D03*
X10492Y-18818D03*
X11771Y-18523D03*
X7854Y-9232D03*
X7854Y-4724D03*
X7854Y-7755D03*
X7854Y-6200D03*
X7854Y-12185D03*
X7854Y-13661D03*
X7854Y-10708D03*
X7854Y-15137D03*
X8996Y-4724D03*
X8996Y-7755D03*
X8996Y-6200D03*
X11909Y-12066D03*
X13385Y-12657D03*
X14015Y-5000D03*
X14704Y-4803D03*
X8996Y-21043D03*
X7854Y-21043D03*
X10551Y-11889D03*
X10570Y-6515D03*
X10374Y-4803D03*
X10492Y-8090D03*
X11653Y-9606D03*
X10984Y-10610D03*
X11279Y-12204D03*
X10787Y-13188D03*
X7854Y-16614D03*
X7854Y-19566D03*
X7854Y-18090D03*
X13287Y-21161D03*
X10984Y-18031D03*
X12106Y-20925D03*
X11476Y-15472D03*
X13562Y-14232D03*
X14429Y-14704D03*
X11673Y-13799D03*
X10590Y-17106D03*
X13169Y-13464D03*
X14448Y-13917D03*
X10551Y-16102D03*
X13169Y-18149D03*
X12755Y-14901D03*
X10629Y-19744D03*
X11870Y-14586D03*
X10728Y-14724D03*
X14665Y-12696D03*
X13484Y-15708D03*
X14724Y-18425D03*
X14173Y-12263D03*
X11968Y-1397D03*
X14232Y-2874D03*
X10708Y-3582D03*
X12952Y-3366D03*
X12027Y-3622D03*
X14685Y-3326D03*
X13759Y-3287D03*
X11889Y-551D03*
X10610Y-492D03*
X10177Y-3248D03*
X10649Y-2539D03*
X10374Y-1929D03*
X10531Y-1220D03*
X11003Y-1771D03*
X11397Y-1141D03*
X12185Y-2007D03*
X12066Y-2854D03*
X11279Y-3169D03*
X11358Y-2303D03*
X10433Y-5905D03*
X11811Y-8562D03*
X10433Y-7480D03*
X14074Y-13090D03*
X14665Y-15944D03*
X11220Y-11417D03*
X11811Y-10137D03*
X13818Y-1811D03*
X13543Y-2578D03*
X14330Y-2263D03*
X14448Y-1417D03*
X13661Y-551D03*
X14488Y-708D03*
X13267Y-1181D03*
X12795Y-629D03*
X12637Y-1338D03*
X13110Y-2047D03*
X12539Y-2559D03*
X13248Y-11948D03*
X13858Y-11653D03*
X11555Y-10787D03*
X11003Y-21003D03*
X12480Y-14153D03*
X13484Y-9685D03*
X12598Y-9842D03*
X11811Y-13051D03*
X12755Y-12578D03*
X14625Y-11633D03*
X14625Y-10866D03*
X14448Y-10000D03*
X12559Y-10590D03*
X14173Y-9035D03*
X13681Y-10708D03*
X12263Y-9094D03*
X10807Y-8562D03*
X12933Y-8346D03*
X13484Y-17086D03*
X14035Y-8169D03*
X10807Y-9724D03*
X14625Y-7578D03*
X11968Y-7755D03*
X14783Y-6397D03*
X10964Y-7755D03*
X13307Y-7559D03*
X14035Y-7066D03*
X12204Y-6929D03*
X11181Y-6850D03*
X14153Y-5629D03*
X13228Y-6062D03*
X12066Y-6279D03*
X11338Y-5905D03*
X13149Y-5039D03*
X13464Y-6692D03*
X12047Y-5196D03*
X10866Y-5196D03*
X8996Y-15137D03*
X8996Y-16614D03*
X8996Y-19566D03*
X8996Y-18090D03*
X8996Y-12185D03*
X8996Y-13661D03*
X8996Y-10708D03*
X8996Y-9232D03*
G54D10*
G36*
X15157Y-3976D02*
X9606Y-3976D01*
X9606Y-196D01*
X15039Y-196D01*
X15095Y-207D01*
X15126Y-228D01*
X15146Y-258D01*
X15157Y-315D01*
X15157Y-3976D01*
X15157Y-3976D01*
G37*
G54D12*
X15157Y-3976D02*
X9606Y-3976D01*
X9606Y-196D01*
X15039Y-196D01*
X15095Y-207D01*
X15126Y-228D01*
X15146Y-258D01*
X15157Y-315D01*
X15157Y-3976D01*
G54D10*
G36*
X8208Y-21751D02*
X315Y-21751D01*
X258Y-21740D01*
X228Y-21720D01*
X207Y-21689D01*
X196Y-21634D01*
X196Y-314D01*
X207Y-259D01*
X228Y-228D01*
X258Y-207D01*
X315Y-196D01*
X6633Y-196D01*
X6633Y-4389D01*
X8208Y-4389D01*
X8208Y-21751D01*
X8208Y-21751D01*
G37*
G54D12*
X8208Y-21751D02*
X315Y-21751D01*
X258Y-21740D01*
X228Y-21720D01*
X207Y-21689D01*
X196Y-21634D01*
X196Y-314D01*
X207Y-259D01*
X228Y-228D01*
X258Y-207D01*
X315Y-196D01*
X6633Y-196D01*
X6633Y-4389D01*
X8208Y-4389D01*
X8208Y-21751D01*
G54D10*
G36*
X15157Y-21633D02*
X15146Y-21689D01*
X15126Y-21720D01*
X15095Y-21741D01*
X15039Y-21751D01*
X8622Y-21751D01*
X8622Y-4389D01*
X15157Y-4389D01*
X15157Y-21633D01*
X15157Y-21633D01*
G37*
G54D12*
X15157Y-21633D02*
X15146Y-21689D01*
X15126Y-21720D01*
X15095Y-21741D01*
X15039Y-21751D01*
X8622Y-21751D01*
X8622Y-4389D01*
X15157Y-4389D01*
X15157Y-21633D01*
M02*
