G04 (created by PCBNEW (2013-07-07 BZR 4022)-stable) date 12/4/2019 12:35:47*
%MOIN*%
G04 Gerber Fmt 3.4, Leading zero omitted, Abs format*
%FSLAX34Y34*%
G01*
G70*
G90*
G04 APERTURE LIST*
%ADD10C,0.00590551*%
%ADD11R,0.0238583X0.0435433*%
%ADD12R,0.070315X0.0403937*%
%ADD13R,0.0396063X0.0396063*%
%ADD14R,0.0494488X0.013622*%
%ADD15C,0.00787402*%
G04 APERTURE END LIST*
G54D10*
G54D11*
X7204Y-3031D03*
X7952Y-3031D03*
X7204Y-2086D03*
X7578Y-3031D03*
X7952Y-2086D03*
X7578Y-2086D03*
G54D12*
X8858Y-3204D03*
X8858Y-2503D03*
X8759Y-1236D03*
X8759Y-535D03*
X7480Y-1236D03*
X7480Y-535D03*
G54D13*
X13188Y-2657D03*
X12893Y-8366D03*
X11614Y-885D03*
X4527Y-1279D03*
G54D14*
X7303Y-16387D03*
X7303Y-16643D03*
X7303Y-16899D03*
X7303Y-17155D03*
X9586Y-17155D03*
X9586Y-16899D03*
X9586Y-16643D03*
X9586Y-16387D03*
X7303Y-20718D03*
X7303Y-20974D03*
X7303Y-21230D03*
X7303Y-21486D03*
X9586Y-21486D03*
X9586Y-21230D03*
X9586Y-20974D03*
X9586Y-20718D03*
X7303Y-19301D03*
X7303Y-19557D03*
X7303Y-19812D03*
X7303Y-20068D03*
X9586Y-20068D03*
X9586Y-19812D03*
X9586Y-19557D03*
X9586Y-19301D03*
X7303Y-17883D03*
X7303Y-18139D03*
X7303Y-18395D03*
X7303Y-18651D03*
X9586Y-18651D03*
X9586Y-18395D03*
X9586Y-18139D03*
X9586Y-17883D03*
X7303Y-14891D03*
X7303Y-15147D03*
X7303Y-15403D03*
X7303Y-15659D03*
X9586Y-15659D03*
X9586Y-15403D03*
X9586Y-15147D03*
X9586Y-14891D03*
X7303Y-13395D03*
X7303Y-13651D03*
X7303Y-13907D03*
X7303Y-14163D03*
X9586Y-14163D03*
X9586Y-13907D03*
X9586Y-13651D03*
X9586Y-13395D03*
X7303Y-11899D03*
X7303Y-12155D03*
X7303Y-12411D03*
X7303Y-12667D03*
X9586Y-12667D03*
X9586Y-12411D03*
X9586Y-12155D03*
X9586Y-11899D03*
X7303Y-10403D03*
X7303Y-10659D03*
X7303Y-10915D03*
X7303Y-11171D03*
X9586Y-11171D03*
X9586Y-10915D03*
X9586Y-10659D03*
X9586Y-10403D03*
X7303Y-8907D03*
X7303Y-9163D03*
X7303Y-9419D03*
X7303Y-9675D03*
X9586Y-9675D03*
X9586Y-9419D03*
X9586Y-9163D03*
X9586Y-8907D03*
X7303Y-7411D03*
X7303Y-7667D03*
X7303Y-7923D03*
X7303Y-8179D03*
X9586Y-8179D03*
X9586Y-7923D03*
X9586Y-7667D03*
X9586Y-7411D03*
X7303Y-5915D03*
X7303Y-6171D03*
X7303Y-6427D03*
X7303Y-6683D03*
X9586Y-6683D03*
X9586Y-6427D03*
X9586Y-6171D03*
X9586Y-5915D03*
X7303Y-4419D03*
X7303Y-4675D03*
X7303Y-4931D03*
X7303Y-5187D03*
X9586Y-5187D03*
X9586Y-4931D03*
X9586Y-4675D03*
X9586Y-4419D03*
G54D10*
G36*
X6456Y-6358D02*
X374Y-6358D01*
X374Y-275D01*
X6456Y-275D01*
X6456Y-6358D01*
X6456Y-6358D01*
G37*
G54D15*
X6456Y-6358D02*
X374Y-6358D01*
X374Y-275D01*
X6456Y-275D01*
X6456Y-6358D01*
G54D10*
G36*
X14881Y-3799D02*
X9783Y-3799D01*
X9783Y-275D01*
X14881Y-275D01*
X14881Y-3799D01*
X14881Y-3799D01*
G37*
G54D15*
X14881Y-3799D02*
X9783Y-3799D01*
X9783Y-275D01*
X14881Y-275D01*
X14881Y-3799D01*
G54D10*
G36*
X14881Y-10984D02*
X10275Y-10984D01*
X10275Y-6141D01*
X14881Y-6141D01*
X14881Y-10984D01*
X14881Y-10984D01*
G37*
G54D15*
X14881Y-10984D02*
X10275Y-10984D01*
X10275Y-6141D01*
X14881Y-6141D01*
X14881Y-10984D01*
M02*
