G04 (created by PCBNEW (2013-07-07 BZR 4022)-stable) date 12/4/2019 12:35:47*
%MOIN*%
G04 Gerber Fmt 3.4, Leading zero omitted, Abs format*
%FSLAX34Y34*%
G01*
G70*
G90*
G04 APERTURE LIST*
%ADD10C,0.00590551*%
%ADD11R,0.023622X0.0433071*%
%ADD12C,0.0275591*%
%ADD13R,0.0700787X0.0401575*%
%ADD14R,0.0393701X0.0393701*%
%ADD15R,0.0492126X0.0133858*%
%ADD16C,0.0354331*%
%ADD17C,0.011811*%
%ADD18C,0.019685*%
%ADD19C,0.023622*%
G04 APERTURE END LIST*
G54D10*
G54D11*
X7204Y-3031D03*
X7952Y-3031D03*
X7204Y-2086D03*
X7578Y-3031D03*
X7952Y-2086D03*
X7578Y-2086D03*
G54D12*
X1456Y-13858D03*
X669Y-14153D03*
X4901Y-12972D03*
X6082Y-13070D03*
X5590Y-12283D03*
X6476Y-12381D03*
X5000Y-14448D03*
X6279Y-13759D03*
X5393Y-13661D03*
X6377Y-14940D03*
X5885Y-14448D03*
X5590Y-21437D03*
X6377Y-20157D03*
X6476Y-17007D03*
X1555Y-16909D03*
X3031Y-17696D03*
X2637Y-18582D03*
X570Y-18976D03*
X1358Y-18582D03*
X1850Y-19074D03*
X866Y-17795D03*
X1751Y-17893D03*
X767Y-11889D03*
X5787Y-15334D03*
X4901Y-16318D03*
X5000Y-15629D03*
X6181Y-16122D03*
X5787Y-16712D03*
X5098Y-17598D03*
X5787Y-19566D03*
X6181Y-20944D03*
X6279Y-18287D03*
X5295Y-18779D03*
X5885Y-17500D03*
X4803Y-18188D03*
X6476Y-18976D03*
X4114Y-19271D03*
X3228Y-19173D03*
X2244Y-19763D03*
X5098Y-19665D03*
X5492Y-20354D03*
X4212Y-20452D03*
X1161Y-19665D03*
X767Y-20255D03*
X3720Y-19960D03*
X2047Y-20649D03*
X2933Y-20354D03*
X4114Y-21141D03*
X4901Y-21043D03*
X2539Y-21338D03*
X964Y-21338D03*
X2440Y-15236D03*
X1358Y-15137D03*
X964Y-15728D03*
X2244Y-16122D03*
X3129Y-15826D03*
X2736Y-16811D03*
X669Y-16811D03*
X3129Y-11496D03*
X2342Y-11791D03*
X767Y-10413D03*
X1751Y-9822D03*
X1456Y-11003D03*
X2145Y-11102D03*
X1062Y-13070D03*
X1948Y-12480D03*
X3326Y-9822D03*
X6082Y-11299D03*
X5000Y-11496D03*
X6279Y-10314D03*
X5492Y-10610D03*
X5688Y-9527D03*
X4901Y-9625D03*
X2736Y-10511D03*
X3720Y-8838D03*
X2834Y-9133D03*
X866Y-9625D03*
X4507Y-8444D03*
X1555Y-8740D03*
X6279Y-3818D03*
X10137Y-826D03*
X1948Y-8149D03*
X767Y-7657D03*
X669Y-8346D03*
X1653Y-6673D03*
X669Y-6870D03*
X1555Y-7362D03*
X2539Y-7362D03*
X5000Y-8937D03*
X6279Y-8838D03*
X5885Y-8149D03*
X3031Y-8248D03*
X6476Y-5984D03*
X4901Y-6673D03*
X4015Y-7657D03*
X5885Y-6673D03*
X6279Y-7362D03*
X4901Y-7755D03*
X866Y-5000D03*
X4311Y-5885D03*
X5393Y-5787D03*
X1653Y-2933D03*
X866Y-3917D03*
X4114Y-5000D03*
X3326Y-4311D03*
X1456Y-4409D03*
X2736Y-4901D03*
X3326Y-5492D03*
X1161Y-5885D03*
X2342Y-5787D03*
X1751Y-5098D03*
X3523Y-2440D03*
X1751Y-3720D03*
X2440Y-4212D03*
X5000Y-5098D03*
X6082Y-5295D03*
X5000Y-4212D03*
X5885Y-4409D03*
X4015Y-4212D03*
X5590Y-3523D03*
X4114Y-3129D03*
X2933Y-3228D03*
X2539Y-2342D03*
X866Y-2637D03*
X1555Y-2047D03*
X5098Y-2834D03*
X4507Y-2244D03*
X3523Y-1751D03*
X2440Y-1456D03*
X964Y-1358D03*
X5984Y-2440D03*
X5098Y-1653D03*
X5787Y-1653D03*
X5984Y-669D03*
X4606Y-669D03*
X3425Y-964D03*
X4311Y-1161D03*
X5295Y-964D03*
X2637Y-669D03*
X1653Y-866D03*
X767Y-669D03*
X10492Y-18818D03*
X11771Y-18523D03*
X7854Y-9232D03*
X7854Y-4724D03*
X7854Y-7755D03*
X7854Y-6200D03*
X7854Y-12185D03*
X7854Y-13661D03*
X7854Y-10708D03*
X7854Y-15137D03*
X8996Y-4724D03*
X8996Y-7755D03*
X8996Y-6200D03*
X11909Y-12066D03*
X13385Y-12657D03*
X14015Y-5000D03*
X14704Y-4803D03*
X8996Y-21043D03*
X7854Y-21043D03*
X10551Y-11889D03*
X10570Y-6515D03*
X10374Y-4803D03*
X10492Y-8090D03*
X11653Y-9606D03*
X10984Y-10610D03*
X11279Y-12204D03*
X10787Y-13188D03*
X7854Y-16614D03*
X7854Y-19566D03*
X7854Y-18090D03*
X13287Y-21161D03*
X10984Y-18031D03*
X12106Y-20925D03*
X11476Y-15472D03*
X13562Y-14232D03*
X14429Y-14704D03*
X11673Y-13799D03*
X10590Y-17106D03*
X13169Y-13464D03*
X14448Y-13917D03*
X10551Y-16102D03*
X13169Y-18149D03*
X12755Y-14901D03*
X10629Y-19744D03*
X11870Y-14586D03*
X10728Y-14724D03*
X14665Y-12696D03*
X13484Y-15708D03*
X14724Y-18425D03*
X14173Y-12263D03*
X11968Y-1397D03*
X14232Y-2874D03*
X10708Y-3582D03*
X12952Y-3366D03*
X12027Y-3622D03*
X14685Y-3326D03*
X13759Y-3287D03*
X11889Y-551D03*
X10610Y-492D03*
X10177Y-3248D03*
X10649Y-2539D03*
X10374Y-1929D03*
X10531Y-1220D03*
X11003Y-1771D03*
X11397Y-1141D03*
X12185Y-2007D03*
X12066Y-2854D03*
X11279Y-3169D03*
X11358Y-2303D03*
X10433Y-5905D03*
X11811Y-8562D03*
X10433Y-7480D03*
X14074Y-13090D03*
X14665Y-15944D03*
X11220Y-11417D03*
X11811Y-10137D03*
X13818Y-1811D03*
X13543Y-2578D03*
X14330Y-2263D03*
X14448Y-1417D03*
X13661Y-551D03*
X14488Y-708D03*
X13267Y-1181D03*
X12795Y-629D03*
X12637Y-1338D03*
X13110Y-2047D03*
X12539Y-2559D03*
X13248Y-11948D03*
X13858Y-11653D03*
X11555Y-10787D03*
X11003Y-21003D03*
X12480Y-14153D03*
X13484Y-9685D03*
X12598Y-9842D03*
X11811Y-13051D03*
X12755Y-12578D03*
X14625Y-11633D03*
X14625Y-10866D03*
X14448Y-10000D03*
X12559Y-10590D03*
X14173Y-9035D03*
X13681Y-10708D03*
X12263Y-9094D03*
X10807Y-8562D03*
X12933Y-8346D03*
X13484Y-17086D03*
X14035Y-8169D03*
X10807Y-9724D03*
X14625Y-7578D03*
X11968Y-7755D03*
X14783Y-6397D03*
X10964Y-7755D03*
X13307Y-7559D03*
X14035Y-7066D03*
X12204Y-6929D03*
X11181Y-6850D03*
X14153Y-5629D03*
X13228Y-6062D03*
X12066Y-6279D03*
X11338Y-5905D03*
X13149Y-5039D03*
X13464Y-6692D03*
X12047Y-5196D03*
X10866Y-5196D03*
X8996Y-15137D03*
X8996Y-16614D03*
X8996Y-19566D03*
X8996Y-18090D03*
X8996Y-12185D03*
X8996Y-13661D03*
X8996Y-10708D03*
X8996Y-9232D03*
G54D13*
X8858Y-3204D03*
X8858Y-2503D03*
X8759Y-1236D03*
X8759Y-535D03*
X7480Y-1236D03*
X7480Y-535D03*
G54D14*
X13188Y-2657D03*
X12893Y-8366D03*
X11614Y-885D03*
X4527Y-1279D03*
G54D15*
X7303Y-16387D03*
X7303Y-16643D03*
X7303Y-16899D03*
X7303Y-17155D03*
X9586Y-17155D03*
X9586Y-16899D03*
X9586Y-16643D03*
X9586Y-16387D03*
X7303Y-20718D03*
X7303Y-20974D03*
X7303Y-21230D03*
X7303Y-21486D03*
X9586Y-21486D03*
X9586Y-21230D03*
X9586Y-20974D03*
X9586Y-20718D03*
X7303Y-19301D03*
X7303Y-19557D03*
X7303Y-19812D03*
X7303Y-20068D03*
X9586Y-20068D03*
X9586Y-19812D03*
X9586Y-19557D03*
X9586Y-19301D03*
X7303Y-17883D03*
X7303Y-18139D03*
X7303Y-18395D03*
X7303Y-18651D03*
X9586Y-18651D03*
X9586Y-18395D03*
X9586Y-18139D03*
X9586Y-17883D03*
X7303Y-14891D03*
X7303Y-15147D03*
X7303Y-15403D03*
X7303Y-15659D03*
X9586Y-15659D03*
X9586Y-15403D03*
X9586Y-15147D03*
X9586Y-14891D03*
X7303Y-13395D03*
X7303Y-13651D03*
X7303Y-13907D03*
X7303Y-14163D03*
X9586Y-14163D03*
X9586Y-13907D03*
X9586Y-13651D03*
X9586Y-13395D03*
X7303Y-11899D03*
X7303Y-12155D03*
X7303Y-12411D03*
X7303Y-12667D03*
X9586Y-12667D03*
X9586Y-12411D03*
X9586Y-12155D03*
X9586Y-11899D03*
X7303Y-10403D03*
X7303Y-10659D03*
X7303Y-10915D03*
X7303Y-11171D03*
X9586Y-11171D03*
X9586Y-10915D03*
X9586Y-10659D03*
X9586Y-10403D03*
X7303Y-8907D03*
X7303Y-9163D03*
X7303Y-9419D03*
X7303Y-9675D03*
X9586Y-9675D03*
X9586Y-9419D03*
X9586Y-9163D03*
X9586Y-8907D03*
X7303Y-7411D03*
X7303Y-7667D03*
X7303Y-7923D03*
X7303Y-8179D03*
X9586Y-8179D03*
X9586Y-7923D03*
X9586Y-7667D03*
X9586Y-7411D03*
X7303Y-5915D03*
X7303Y-6171D03*
X7303Y-6427D03*
X7303Y-6683D03*
X9586Y-6683D03*
X9586Y-6427D03*
X9586Y-6171D03*
X9586Y-5915D03*
X7303Y-4419D03*
X7303Y-4675D03*
X7303Y-4931D03*
X7303Y-5187D03*
X9586Y-5187D03*
X9586Y-4931D03*
X9586Y-4675D03*
X9586Y-4419D03*
G54D16*
X8759Y-535D02*
X10377Y-535D01*
X10377Y-535D02*
X10433Y-590D01*
X8996Y-4724D02*
X8996Y-3342D01*
X8996Y-3342D02*
X8858Y-3204D01*
G54D17*
X9586Y-21486D02*
X8690Y-21486D01*
G54D18*
X8562Y-21358D02*
X8562Y-20068D01*
G54D17*
X8690Y-21486D02*
X8562Y-21358D01*
X9586Y-20068D02*
X8562Y-20068D01*
X9586Y-18651D02*
X8562Y-18651D01*
X9586Y-17155D02*
X8562Y-17155D01*
X9586Y-15659D02*
X8562Y-15659D01*
X9586Y-14163D02*
X8533Y-14163D01*
X8523Y-14173D02*
X8562Y-14173D01*
X8533Y-14163D02*
X8523Y-14173D01*
X9586Y-12667D02*
X8562Y-12667D01*
X9586Y-11171D02*
X8562Y-11171D01*
X9586Y-9675D02*
X8562Y-9675D01*
X8562Y-9675D02*
X8562Y-9645D01*
X9586Y-8179D02*
X8562Y-8179D01*
X9586Y-6683D02*
X8572Y-6683D01*
X8572Y-6683D02*
X8562Y-6692D01*
X9586Y-5187D02*
X8592Y-5187D01*
X8592Y-5187D02*
X8562Y-5216D01*
G54D18*
X8562Y-20068D02*
X8562Y-19990D01*
X8562Y-16998D02*
X8562Y-17027D01*
X8562Y-10413D02*
X8562Y-9645D01*
X8562Y-9645D02*
X8562Y-8858D01*
X8562Y-12007D02*
X8562Y-11171D01*
X8562Y-11171D02*
X8562Y-11122D01*
X8562Y-11122D02*
X8562Y-10413D01*
X8562Y-6692D02*
X8562Y-8070D01*
X8562Y-8070D02*
X8562Y-8179D01*
X8562Y-8179D02*
X8562Y-8858D01*
X8562Y-13582D02*
X8562Y-12667D01*
X8562Y-12667D02*
X8562Y-12598D01*
X8562Y-12598D02*
X8562Y-12007D01*
X8562Y-8858D02*
X8562Y-8838D01*
X8562Y-5216D02*
X8562Y-6692D01*
X8562Y-14074D02*
X8562Y-13582D01*
X8562Y-4429D02*
X8562Y-4133D01*
X8562Y-4133D02*
X7952Y-3523D01*
X8562Y-4429D02*
X8562Y-5216D01*
X7952Y-3523D02*
X7952Y-3031D01*
X8562Y-15137D02*
X8562Y-14173D01*
X8562Y-14173D02*
X8562Y-14074D01*
X8562Y-16732D02*
X8562Y-15659D01*
X8562Y-15659D02*
X8562Y-15501D01*
X8562Y-15501D02*
X8562Y-15531D01*
X8562Y-15531D02*
X8562Y-15137D01*
X8562Y-18287D02*
X8562Y-17155D01*
X8562Y-17155D02*
X8562Y-16998D01*
X8562Y-17027D02*
X8562Y-16732D01*
X8562Y-19783D02*
X8562Y-18651D01*
X8562Y-18651D02*
X8562Y-18503D01*
X8562Y-18503D02*
X8562Y-18405D01*
X8562Y-18405D02*
X8562Y-18287D01*
X8562Y-19990D02*
X8562Y-19881D01*
X8562Y-19881D02*
X8562Y-19783D01*
G54D17*
X7303Y-21486D02*
X8159Y-21486D01*
G54D18*
X8287Y-21358D02*
X8287Y-20068D01*
G54D17*
X8159Y-21486D02*
X8287Y-21358D01*
X7303Y-20068D02*
X8287Y-20068D01*
X7303Y-18651D02*
X8326Y-18651D01*
X8326Y-18661D02*
X8287Y-18661D01*
X8326Y-18651D02*
X8326Y-18661D01*
X7303Y-17155D02*
X8287Y-17155D01*
X7303Y-15659D02*
X8326Y-15659D01*
X8326Y-15669D02*
X8287Y-15669D01*
X8326Y-15659D02*
X8326Y-15669D01*
X7303Y-14163D02*
X8326Y-14163D01*
X8326Y-14173D02*
X8287Y-14173D01*
X8326Y-14163D02*
X8326Y-14173D01*
X7303Y-12667D02*
X8287Y-12667D01*
X8287Y-12667D02*
X8287Y-12588D01*
X7303Y-11171D02*
X8287Y-11171D01*
X7303Y-9675D02*
X8326Y-9675D01*
X8326Y-9685D02*
X8287Y-9685D01*
X8326Y-9675D02*
X8326Y-9685D01*
X7303Y-8179D02*
X8287Y-8179D01*
X8287Y-8179D02*
X8287Y-8149D01*
X7303Y-6683D02*
X8238Y-6683D01*
X8238Y-6683D02*
X8287Y-6633D01*
X7303Y-5187D02*
X8326Y-5187D01*
X8326Y-5196D02*
X8287Y-5196D01*
X8326Y-5187D02*
X8326Y-5196D01*
G54D18*
X8287Y-20068D02*
X8287Y-20000D01*
G54D17*
X8287Y-6633D02*
X8326Y-6633D01*
X8326Y-6633D02*
X8287Y-6633D01*
G54D18*
X8287Y-13562D02*
X8287Y-12588D01*
X8287Y-12588D02*
X8287Y-12500D01*
X8287Y-12500D02*
X8287Y-11988D01*
X8287Y-11988D02*
X8287Y-11171D01*
X8287Y-11171D02*
X8287Y-11102D01*
X8287Y-11102D02*
X8287Y-10413D01*
X8287Y-10413D02*
X8287Y-9685D01*
X8287Y-9685D02*
X8287Y-9645D01*
X8287Y-9645D02*
X8287Y-9645D01*
X8287Y-9645D02*
X8287Y-8858D01*
X8287Y-14055D02*
X8287Y-13562D01*
X8287Y-8858D02*
X8287Y-8149D01*
X8287Y-8149D02*
X8287Y-8149D01*
X8287Y-8858D02*
X8287Y-8838D01*
X8287Y-20000D02*
X8287Y-19960D01*
X8287Y-19960D02*
X8287Y-19783D01*
X8287Y-19783D02*
X8287Y-18661D01*
X8287Y-18661D02*
X8287Y-18484D01*
X8287Y-18484D02*
X8287Y-18287D01*
X8287Y-18287D02*
X8287Y-17155D01*
X8287Y-17155D02*
X8287Y-17007D01*
X8287Y-17007D02*
X8287Y-16712D01*
X8287Y-16712D02*
X8287Y-15669D01*
X8287Y-15669D02*
X8287Y-15531D01*
X8287Y-15531D02*
X8287Y-15137D01*
X8287Y-15137D02*
X8287Y-14173D01*
X8287Y-14173D02*
X8287Y-14055D01*
X8287Y-4645D02*
X8287Y-4350D01*
X7204Y-3562D02*
X7204Y-3031D01*
X7381Y-3740D02*
X7204Y-3562D01*
X8287Y-5196D02*
X8287Y-5196D01*
X8287Y-5196D02*
X8287Y-4645D01*
X8287Y-6594D02*
X8287Y-6633D01*
X8287Y-6633D02*
X8287Y-5196D01*
X8287Y-4350D02*
X7677Y-3740D01*
X7677Y-3740D02*
X7381Y-3740D01*
X8287Y-8149D02*
X8287Y-6594D01*
G54D19*
X7578Y-3031D02*
X7578Y-2657D01*
X8803Y-2559D02*
X8858Y-2503D01*
X7677Y-2559D02*
X8803Y-2559D01*
X7578Y-2657D02*
X7677Y-2559D01*
G54D16*
X8759Y-1236D02*
X7480Y-1236D01*
G54D19*
X7578Y-2086D02*
X7578Y-1334D01*
X7578Y-1334D02*
X7480Y-1236D01*
G54D16*
X7480Y-535D02*
X5763Y-535D01*
X5763Y-535D02*
X5708Y-590D01*
G54D10*
G36*
X15157Y-3976D02*
X9606Y-3976D01*
X9606Y-196D01*
X15039Y-196D01*
X15095Y-207D01*
X15126Y-228D01*
X15146Y-258D01*
X15157Y-315D01*
X15157Y-3976D01*
X15157Y-3976D01*
G37*
G54D17*
X15157Y-3976D02*
X9606Y-3976D01*
X9606Y-196D01*
X15039Y-196D01*
X15095Y-207D01*
X15126Y-228D01*
X15146Y-258D01*
X15157Y-315D01*
X15157Y-3976D01*
G54D10*
G36*
X15157Y-21633D02*
X15146Y-21689D01*
X15126Y-21720D01*
X15095Y-21741D01*
X15039Y-21751D01*
X8818Y-21751D01*
X8818Y-21722D01*
X9286Y-21722D01*
X9305Y-21730D01*
X9375Y-21730D01*
X9867Y-21730D01*
X9932Y-21703D01*
X9982Y-21653D01*
X10009Y-21588D01*
X10009Y-21518D01*
X10009Y-21384D01*
X10009Y-20750D01*
X10009Y-20616D01*
X9982Y-20551D01*
X9933Y-20501D01*
X9868Y-20474D01*
X9797Y-20474D01*
X9305Y-20474D01*
X9240Y-20501D01*
X9190Y-20551D01*
X9163Y-20616D01*
X9163Y-20686D01*
X9163Y-20820D01*
X9190Y-20885D01*
X9240Y-20935D01*
X9305Y-20962D01*
X9375Y-20962D01*
X9867Y-20962D01*
X9932Y-20935D01*
X9982Y-20885D01*
X10009Y-20820D01*
X10009Y-20750D01*
X10009Y-21384D01*
X9982Y-21319D01*
X9933Y-21269D01*
X9868Y-21242D01*
X9797Y-21242D01*
X9305Y-21242D01*
X9286Y-21250D01*
X8838Y-21250D01*
X8838Y-20305D01*
X9286Y-20305D01*
X9305Y-20312D01*
X9375Y-20313D01*
X9867Y-20313D01*
X9932Y-20286D01*
X9982Y-20236D01*
X10009Y-20171D01*
X10009Y-20100D01*
X10009Y-19966D01*
X10009Y-19333D01*
X10009Y-19199D01*
X9982Y-19134D01*
X9933Y-19084D01*
X9868Y-19057D01*
X9797Y-19057D01*
X9305Y-19057D01*
X9240Y-19083D01*
X9190Y-19133D01*
X9163Y-19198D01*
X9163Y-19269D01*
X9163Y-19403D01*
X9190Y-19468D01*
X9240Y-19518D01*
X9305Y-19545D01*
X9375Y-19545D01*
X9867Y-19545D01*
X9932Y-19518D01*
X9982Y-19468D01*
X10009Y-19403D01*
X10009Y-19333D01*
X10009Y-19966D01*
X9982Y-19901D01*
X9933Y-19851D01*
X9868Y-19824D01*
X9797Y-19824D01*
X9305Y-19824D01*
X9286Y-19832D01*
X8838Y-19832D01*
X8838Y-19783D01*
X8838Y-18887D01*
X9286Y-18887D01*
X9305Y-18895D01*
X9375Y-18895D01*
X9867Y-18895D01*
X9932Y-18868D01*
X9982Y-18818D01*
X10009Y-18753D01*
X10009Y-18683D01*
X10009Y-18549D01*
X10009Y-17915D01*
X10009Y-17781D01*
X9982Y-17716D01*
X9933Y-17666D01*
X9868Y-17639D01*
X9797Y-17639D01*
X9305Y-17639D01*
X9240Y-17666D01*
X9190Y-17716D01*
X9163Y-17781D01*
X9163Y-17852D01*
X9163Y-17985D01*
X9190Y-18051D01*
X9240Y-18100D01*
X9305Y-18127D01*
X9375Y-18127D01*
X9867Y-18127D01*
X9932Y-18101D01*
X9982Y-18051D01*
X10009Y-17986D01*
X10009Y-17915D01*
X10009Y-18549D01*
X9982Y-18484D01*
X9933Y-18434D01*
X9868Y-18407D01*
X9797Y-18407D01*
X9305Y-18407D01*
X9286Y-18415D01*
X8838Y-18415D01*
X8838Y-18405D01*
X8838Y-18287D01*
X8838Y-17391D01*
X9286Y-17391D01*
X9305Y-17399D01*
X9375Y-17399D01*
X9867Y-17399D01*
X9932Y-17372D01*
X9982Y-17322D01*
X10009Y-17257D01*
X10009Y-17187D01*
X10009Y-17053D01*
X10009Y-16419D01*
X10009Y-16285D01*
X9982Y-16220D01*
X9933Y-16170D01*
X9868Y-16143D01*
X9797Y-16143D01*
X9305Y-16143D01*
X9240Y-16170D01*
X9190Y-16220D01*
X9163Y-16285D01*
X9163Y-16355D01*
X9163Y-16489D01*
X9190Y-16554D01*
X9240Y-16604D01*
X9305Y-16631D01*
X9375Y-16631D01*
X9867Y-16631D01*
X9932Y-16605D01*
X9982Y-16555D01*
X10009Y-16490D01*
X10009Y-16419D01*
X10009Y-17053D01*
X9982Y-16988D01*
X9933Y-16938D01*
X9868Y-16911D01*
X9797Y-16911D01*
X9305Y-16911D01*
X9286Y-16919D01*
X8838Y-16919D01*
X8838Y-16732D01*
X8838Y-15895D01*
X9286Y-15895D01*
X9305Y-15903D01*
X9375Y-15903D01*
X9867Y-15903D01*
X9932Y-15876D01*
X9982Y-15826D01*
X10009Y-15761D01*
X10009Y-15691D01*
X10009Y-15557D01*
X10009Y-14923D01*
X10009Y-14789D01*
X9982Y-14724D01*
X9933Y-14674D01*
X9868Y-14647D01*
X9797Y-14647D01*
X9305Y-14647D01*
X9240Y-14674D01*
X9190Y-14724D01*
X9163Y-14789D01*
X9163Y-14859D01*
X9163Y-14993D01*
X9190Y-15058D01*
X9240Y-15108D01*
X9305Y-15135D01*
X9375Y-15135D01*
X9867Y-15135D01*
X9932Y-15108D01*
X9982Y-15059D01*
X10009Y-14994D01*
X10009Y-14923D01*
X10009Y-15557D01*
X9982Y-15492D01*
X9933Y-15442D01*
X9868Y-15415D01*
X9797Y-15415D01*
X9305Y-15415D01*
X9286Y-15423D01*
X8838Y-15423D01*
X8838Y-15137D01*
X8838Y-14399D01*
X9286Y-14399D01*
X9305Y-14407D01*
X9375Y-14407D01*
X9867Y-14407D01*
X9932Y-14380D01*
X9982Y-14330D01*
X10009Y-14265D01*
X10009Y-14195D01*
X10009Y-14061D01*
X10009Y-13427D01*
X10009Y-13293D01*
X9982Y-13228D01*
X9933Y-13178D01*
X9868Y-13151D01*
X9797Y-13151D01*
X9305Y-13151D01*
X9240Y-13178D01*
X9190Y-13228D01*
X9163Y-13293D01*
X9163Y-13363D01*
X9163Y-13497D01*
X9190Y-13562D01*
X9240Y-13612D01*
X9305Y-13639D01*
X9375Y-13639D01*
X9867Y-13639D01*
X9932Y-13612D01*
X9982Y-13563D01*
X10009Y-13497D01*
X10009Y-13427D01*
X10009Y-14061D01*
X9982Y-13996D01*
X9933Y-13946D01*
X9868Y-13919D01*
X9797Y-13919D01*
X9305Y-13919D01*
X9286Y-13927D01*
X8838Y-13927D01*
X8838Y-13582D01*
X8838Y-12903D01*
X9286Y-12903D01*
X9305Y-12911D01*
X9375Y-12911D01*
X9867Y-12911D01*
X9932Y-12884D01*
X9982Y-12834D01*
X10009Y-12769D01*
X10009Y-12699D01*
X10009Y-12565D01*
X10009Y-11931D01*
X10009Y-11797D01*
X9982Y-11732D01*
X9933Y-11682D01*
X9868Y-11655D01*
X9797Y-11655D01*
X9305Y-11655D01*
X9240Y-11682D01*
X9190Y-11732D01*
X9163Y-11797D01*
X9163Y-11867D01*
X9163Y-12001D01*
X9190Y-12066D01*
X9240Y-12116D01*
X9305Y-12143D01*
X9375Y-12143D01*
X9867Y-12143D01*
X9932Y-12116D01*
X9982Y-12067D01*
X10009Y-12001D01*
X10009Y-11931D01*
X10009Y-12565D01*
X9982Y-12500D01*
X9933Y-12450D01*
X9868Y-12423D01*
X9797Y-12423D01*
X9305Y-12423D01*
X9286Y-12431D01*
X8838Y-12431D01*
X8838Y-12007D01*
X8838Y-11407D01*
X9286Y-11407D01*
X9305Y-11415D01*
X9375Y-11415D01*
X9867Y-11415D01*
X9932Y-11388D01*
X9982Y-11338D01*
X10009Y-11273D01*
X10009Y-11203D01*
X10009Y-11069D01*
X10009Y-10435D01*
X10009Y-10301D01*
X9982Y-10236D01*
X9933Y-10186D01*
X9868Y-10159D01*
X9797Y-10159D01*
X9305Y-10159D01*
X9240Y-10186D01*
X9190Y-10236D01*
X9163Y-10301D01*
X9163Y-10371D01*
X9163Y-10505D01*
X9190Y-10570D01*
X9240Y-10620D01*
X9305Y-10647D01*
X9375Y-10647D01*
X9867Y-10647D01*
X9932Y-10620D01*
X9982Y-10570D01*
X10009Y-10505D01*
X10009Y-10435D01*
X10009Y-11069D01*
X9982Y-11004D01*
X9933Y-10954D01*
X9868Y-10927D01*
X9797Y-10927D01*
X9305Y-10927D01*
X9286Y-10935D01*
X8838Y-10935D01*
X8838Y-10413D01*
X8838Y-9911D01*
X9286Y-9911D01*
X9305Y-9919D01*
X9375Y-9919D01*
X9867Y-9919D01*
X9932Y-9892D01*
X9982Y-9842D01*
X10009Y-9777D01*
X10009Y-9707D01*
X10009Y-9573D01*
X10009Y-8939D01*
X10009Y-8805D01*
X9982Y-8740D01*
X9933Y-8690D01*
X9868Y-8663D01*
X9797Y-8663D01*
X9305Y-8663D01*
X9240Y-8690D01*
X9190Y-8740D01*
X9163Y-8805D01*
X9163Y-8875D01*
X9163Y-9009D01*
X9190Y-9074D01*
X9240Y-9124D01*
X9305Y-9151D01*
X9375Y-9151D01*
X9867Y-9151D01*
X9932Y-9124D01*
X9982Y-9074D01*
X10009Y-9009D01*
X10009Y-8939D01*
X10009Y-9573D01*
X9982Y-9508D01*
X9933Y-9458D01*
X9868Y-9431D01*
X9797Y-9431D01*
X9305Y-9431D01*
X9286Y-9438D01*
X8838Y-9438D01*
X8838Y-8858D01*
X8838Y-8838D01*
X8838Y-8415D01*
X9286Y-8415D01*
X9305Y-8423D01*
X9375Y-8423D01*
X9867Y-8423D01*
X9932Y-8396D01*
X9982Y-8346D01*
X10009Y-8281D01*
X10009Y-8210D01*
X10009Y-8077D01*
X10009Y-7443D01*
X10009Y-7309D01*
X9982Y-7244D01*
X9933Y-7194D01*
X9868Y-7167D01*
X9797Y-7167D01*
X9305Y-7167D01*
X9240Y-7194D01*
X9190Y-7244D01*
X9163Y-7309D01*
X9163Y-7379D01*
X9163Y-7513D01*
X9190Y-7578D01*
X9240Y-7628D01*
X9305Y-7655D01*
X9375Y-7655D01*
X9867Y-7655D01*
X9932Y-7628D01*
X9982Y-7578D01*
X10009Y-7513D01*
X10009Y-7443D01*
X10009Y-8077D01*
X9982Y-8011D01*
X9933Y-7962D01*
X9868Y-7935D01*
X9797Y-7935D01*
X9305Y-7935D01*
X9286Y-7942D01*
X8838Y-7942D01*
X8838Y-6919D01*
X9286Y-6919D01*
X9305Y-6927D01*
X9375Y-6927D01*
X9867Y-6927D01*
X9932Y-6900D01*
X9982Y-6850D01*
X10009Y-6785D01*
X10009Y-6714D01*
X10009Y-6581D01*
X10009Y-5947D01*
X10009Y-5813D01*
X9982Y-5748D01*
X9933Y-5698D01*
X9868Y-5671D01*
X9797Y-5671D01*
X9305Y-5671D01*
X9240Y-5698D01*
X9190Y-5747D01*
X9163Y-5813D01*
X9163Y-5883D01*
X9163Y-6017D01*
X9190Y-6082D01*
X9240Y-6132D01*
X9305Y-6159D01*
X9375Y-6159D01*
X9867Y-6159D01*
X9932Y-6132D01*
X9982Y-6082D01*
X10009Y-6017D01*
X10009Y-5947D01*
X10009Y-6581D01*
X9982Y-6515D01*
X9933Y-6466D01*
X9868Y-6439D01*
X9797Y-6438D01*
X9305Y-6438D01*
X9286Y-6446D01*
X8838Y-6446D01*
X8838Y-5423D01*
X9286Y-5423D01*
X9305Y-5431D01*
X9375Y-5431D01*
X9867Y-5431D01*
X9932Y-5404D01*
X9982Y-5354D01*
X10009Y-5289D01*
X10009Y-5218D01*
X10009Y-5084D01*
X9982Y-5019D01*
X9933Y-4969D01*
X9868Y-4942D01*
X9797Y-4942D01*
X9305Y-4942D01*
X9286Y-4950D01*
X8838Y-4950D01*
X8838Y-4429D01*
X8838Y-4389D01*
X9163Y-4389D01*
X9163Y-4521D01*
X9190Y-4586D01*
X9240Y-4636D01*
X9305Y-4663D01*
X9375Y-4663D01*
X9867Y-4663D01*
X9932Y-4636D01*
X9982Y-4586D01*
X10009Y-4521D01*
X10009Y-4451D01*
X10009Y-4389D01*
X15157Y-4389D01*
X15157Y-21633D01*
X15157Y-21633D01*
G37*
G54D17*
X15157Y-21633D02*
X15146Y-21689D01*
X15126Y-21720D01*
X15095Y-21741D01*
X15039Y-21751D01*
X8818Y-21751D01*
X8818Y-21722D01*
X9286Y-21722D01*
X9305Y-21730D01*
X9375Y-21730D01*
X9867Y-21730D01*
X9932Y-21703D01*
X9982Y-21653D01*
X10009Y-21588D01*
X10009Y-21518D01*
X10009Y-21384D01*
X10009Y-20750D01*
X10009Y-20616D01*
X9982Y-20551D01*
X9933Y-20501D01*
X9868Y-20474D01*
X9797Y-20474D01*
X9305Y-20474D01*
X9240Y-20501D01*
X9190Y-20551D01*
X9163Y-20616D01*
X9163Y-20686D01*
X9163Y-20820D01*
X9190Y-20885D01*
X9240Y-20935D01*
X9305Y-20962D01*
X9375Y-20962D01*
X9867Y-20962D01*
X9932Y-20935D01*
X9982Y-20885D01*
X10009Y-20820D01*
X10009Y-20750D01*
X10009Y-21384D01*
X9982Y-21319D01*
X9933Y-21269D01*
X9868Y-21242D01*
X9797Y-21242D01*
X9305Y-21242D01*
X9286Y-21250D01*
X8838Y-21250D01*
X8838Y-20305D01*
X9286Y-20305D01*
X9305Y-20312D01*
X9375Y-20313D01*
X9867Y-20313D01*
X9932Y-20286D01*
X9982Y-20236D01*
X10009Y-20171D01*
X10009Y-20100D01*
X10009Y-19966D01*
X10009Y-19333D01*
X10009Y-19199D01*
X9982Y-19134D01*
X9933Y-19084D01*
X9868Y-19057D01*
X9797Y-19057D01*
X9305Y-19057D01*
X9240Y-19083D01*
X9190Y-19133D01*
X9163Y-19198D01*
X9163Y-19269D01*
X9163Y-19403D01*
X9190Y-19468D01*
X9240Y-19518D01*
X9305Y-19545D01*
X9375Y-19545D01*
X9867Y-19545D01*
X9932Y-19518D01*
X9982Y-19468D01*
X10009Y-19403D01*
X10009Y-19333D01*
X10009Y-19966D01*
X9982Y-19901D01*
X9933Y-19851D01*
X9868Y-19824D01*
X9797Y-19824D01*
X9305Y-19824D01*
X9286Y-19832D01*
X8838Y-19832D01*
X8838Y-19783D01*
X8838Y-18887D01*
X9286Y-18887D01*
X9305Y-18895D01*
X9375Y-18895D01*
X9867Y-18895D01*
X9932Y-18868D01*
X9982Y-18818D01*
X10009Y-18753D01*
X10009Y-18683D01*
X10009Y-18549D01*
X10009Y-17915D01*
X10009Y-17781D01*
X9982Y-17716D01*
X9933Y-17666D01*
X9868Y-17639D01*
X9797Y-17639D01*
X9305Y-17639D01*
X9240Y-17666D01*
X9190Y-17716D01*
X9163Y-17781D01*
X9163Y-17852D01*
X9163Y-17985D01*
X9190Y-18051D01*
X9240Y-18100D01*
X9305Y-18127D01*
X9375Y-18127D01*
X9867Y-18127D01*
X9932Y-18101D01*
X9982Y-18051D01*
X10009Y-17986D01*
X10009Y-17915D01*
X10009Y-18549D01*
X9982Y-18484D01*
X9933Y-18434D01*
X9868Y-18407D01*
X9797Y-18407D01*
X9305Y-18407D01*
X9286Y-18415D01*
X8838Y-18415D01*
X8838Y-18405D01*
X8838Y-18287D01*
X8838Y-17391D01*
X9286Y-17391D01*
X9305Y-17399D01*
X9375Y-17399D01*
X9867Y-17399D01*
X9932Y-17372D01*
X9982Y-17322D01*
X10009Y-17257D01*
X10009Y-17187D01*
X10009Y-17053D01*
X10009Y-16419D01*
X10009Y-16285D01*
X9982Y-16220D01*
X9933Y-16170D01*
X9868Y-16143D01*
X9797Y-16143D01*
X9305Y-16143D01*
X9240Y-16170D01*
X9190Y-16220D01*
X9163Y-16285D01*
X9163Y-16355D01*
X9163Y-16489D01*
X9190Y-16554D01*
X9240Y-16604D01*
X9305Y-16631D01*
X9375Y-16631D01*
X9867Y-16631D01*
X9932Y-16605D01*
X9982Y-16555D01*
X10009Y-16490D01*
X10009Y-16419D01*
X10009Y-17053D01*
X9982Y-16988D01*
X9933Y-16938D01*
X9868Y-16911D01*
X9797Y-16911D01*
X9305Y-16911D01*
X9286Y-16919D01*
X8838Y-16919D01*
X8838Y-16732D01*
X8838Y-15895D01*
X9286Y-15895D01*
X9305Y-15903D01*
X9375Y-15903D01*
X9867Y-15903D01*
X9932Y-15876D01*
X9982Y-15826D01*
X10009Y-15761D01*
X10009Y-15691D01*
X10009Y-15557D01*
X10009Y-14923D01*
X10009Y-14789D01*
X9982Y-14724D01*
X9933Y-14674D01*
X9868Y-14647D01*
X9797Y-14647D01*
X9305Y-14647D01*
X9240Y-14674D01*
X9190Y-14724D01*
X9163Y-14789D01*
X9163Y-14859D01*
X9163Y-14993D01*
X9190Y-15058D01*
X9240Y-15108D01*
X9305Y-15135D01*
X9375Y-15135D01*
X9867Y-15135D01*
X9932Y-15108D01*
X9982Y-15059D01*
X10009Y-14994D01*
X10009Y-14923D01*
X10009Y-15557D01*
X9982Y-15492D01*
X9933Y-15442D01*
X9868Y-15415D01*
X9797Y-15415D01*
X9305Y-15415D01*
X9286Y-15423D01*
X8838Y-15423D01*
X8838Y-15137D01*
X8838Y-14399D01*
X9286Y-14399D01*
X9305Y-14407D01*
X9375Y-14407D01*
X9867Y-14407D01*
X9932Y-14380D01*
X9982Y-14330D01*
X10009Y-14265D01*
X10009Y-14195D01*
X10009Y-14061D01*
X10009Y-13427D01*
X10009Y-13293D01*
X9982Y-13228D01*
X9933Y-13178D01*
X9868Y-13151D01*
X9797Y-13151D01*
X9305Y-13151D01*
X9240Y-13178D01*
X9190Y-13228D01*
X9163Y-13293D01*
X9163Y-13363D01*
X9163Y-13497D01*
X9190Y-13562D01*
X9240Y-13612D01*
X9305Y-13639D01*
X9375Y-13639D01*
X9867Y-13639D01*
X9932Y-13612D01*
X9982Y-13563D01*
X10009Y-13497D01*
X10009Y-13427D01*
X10009Y-14061D01*
X9982Y-13996D01*
X9933Y-13946D01*
X9868Y-13919D01*
X9797Y-13919D01*
X9305Y-13919D01*
X9286Y-13927D01*
X8838Y-13927D01*
X8838Y-13582D01*
X8838Y-12903D01*
X9286Y-12903D01*
X9305Y-12911D01*
X9375Y-12911D01*
X9867Y-12911D01*
X9932Y-12884D01*
X9982Y-12834D01*
X10009Y-12769D01*
X10009Y-12699D01*
X10009Y-12565D01*
X10009Y-11931D01*
X10009Y-11797D01*
X9982Y-11732D01*
X9933Y-11682D01*
X9868Y-11655D01*
X9797Y-11655D01*
X9305Y-11655D01*
X9240Y-11682D01*
X9190Y-11732D01*
X9163Y-11797D01*
X9163Y-11867D01*
X9163Y-12001D01*
X9190Y-12066D01*
X9240Y-12116D01*
X9305Y-12143D01*
X9375Y-12143D01*
X9867Y-12143D01*
X9932Y-12116D01*
X9982Y-12067D01*
X10009Y-12001D01*
X10009Y-11931D01*
X10009Y-12565D01*
X9982Y-12500D01*
X9933Y-12450D01*
X9868Y-12423D01*
X9797Y-12423D01*
X9305Y-12423D01*
X9286Y-12431D01*
X8838Y-12431D01*
X8838Y-12007D01*
X8838Y-11407D01*
X9286Y-11407D01*
X9305Y-11415D01*
X9375Y-11415D01*
X9867Y-11415D01*
X9932Y-11388D01*
X9982Y-11338D01*
X10009Y-11273D01*
X10009Y-11203D01*
X10009Y-11069D01*
X10009Y-10435D01*
X10009Y-10301D01*
X9982Y-10236D01*
X9933Y-10186D01*
X9868Y-10159D01*
X9797Y-10159D01*
X9305Y-10159D01*
X9240Y-10186D01*
X9190Y-10236D01*
X9163Y-10301D01*
X9163Y-10371D01*
X9163Y-10505D01*
X9190Y-10570D01*
X9240Y-10620D01*
X9305Y-10647D01*
X9375Y-10647D01*
X9867Y-10647D01*
X9932Y-10620D01*
X9982Y-10570D01*
X10009Y-10505D01*
X10009Y-10435D01*
X10009Y-11069D01*
X9982Y-11004D01*
X9933Y-10954D01*
X9868Y-10927D01*
X9797Y-10927D01*
X9305Y-10927D01*
X9286Y-10935D01*
X8838Y-10935D01*
X8838Y-10413D01*
X8838Y-9911D01*
X9286Y-9911D01*
X9305Y-9919D01*
X9375Y-9919D01*
X9867Y-9919D01*
X9932Y-9892D01*
X9982Y-9842D01*
X10009Y-9777D01*
X10009Y-9707D01*
X10009Y-9573D01*
X10009Y-8939D01*
X10009Y-8805D01*
X9982Y-8740D01*
X9933Y-8690D01*
X9868Y-8663D01*
X9797Y-8663D01*
X9305Y-8663D01*
X9240Y-8690D01*
X9190Y-8740D01*
X9163Y-8805D01*
X9163Y-8875D01*
X9163Y-9009D01*
X9190Y-9074D01*
X9240Y-9124D01*
X9305Y-9151D01*
X9375Y-9151D01*
X9867Y-9151D01*
X9932Y-9124D01*
X9982Y-9074D01*
X10009Y-9009D01*
X10009Y-8939D01*
X10009Y-9573D01*
X9982Y-9508D01*
X9933Y-9458D01*
X9868Y-9431D01*
X9797Y-9431D01*
X9305Y-9431D01*
X9286Y-9438D01*
X8838Y-9438D01*
X8838Y-8858D01*
X8838Y-8838D01*
X8838Y-8415D01*
X9286Y-8415D01*
X9305Y-8423D01*
X9375Y-8423D01*
X9867Y-8423D01*
X9932Y-8396D01*
X9982Y-8346D01*
X10009Y-8281D01*
X10009Y-8210D01*
X10009Y-8077D01*
X10009Y-7443D01*
X10009Y-7309D01*
X9982Y-7244D01*
X9933Y-7194D01*
X9868Y-7167D01*
X9797Y-7167D01*
X9305Y-7167D01*
X9240Y-7194D01*
X9190Y-7244D01*
X9163Y-7309D01*
X9163Y-7379D01*
X9163Y-7513D01*
X9190Y-7578D01*
X9240Y-7628D01*
X9305Y-7655D01*
X9375Y-7655D01*
X9867Y-7655D01*
X9932Y-7628D01*
X9982Y-7578D01*
X10009Y-7513D01*
X10009Y-7443D01*
X10009Y-8077D01*
X9982Y-8011D01*
X9933Y-7962D01*
X9868Y-7935D01*
X9797Y-7935D01*
X9305Y-7935D01*
X9286Y-7942D01*
X8838Y-7942D01*
X8838Y-6919D01*
X9286Y-6919D01*
X9305Y-6927D01*
X9375Y-6927D01*
X9867Y-6927D01*
X9932Y-6900D01*
X9982Y-6850D01*
X10009Y-6785D01*
X10009Y-6714D01*
X10009Y-6581D01*
X10009Y-5947D01*
X10009Y-5813D01*
X9982Y-5748D01*
X9933Y-5698D01*
X9868Y-5671D01*
X9797Y-5671D01*
X9305Y-5671D01*
X9240Y-5698D01*
X9190Y-5747D01*
X9163Y-5813D01*
X9163Y-5883D01*
X9163Y-6017D01*
X9190Y-6082D01*
X9240Y-6132D01*
X9305Y-6159D01*
X9375Y-6159D01*
X9867Y-6159D01*
X9932Y-6132D01*
X9982Y-6082D01*
X10009Y-6017D01*
X10009Y-5947D01*
X10009Y-6581D01*
X9982Y-6515D01*
X9933Y-6466D01*
X9868Y-6439D01*
X9797Y-6438D01*
X9305Y-6438D01*
X9286Y-6446D01*
X8838Y-6446D01*
X8838Y-5423D01*
X9286Y-5423D01*
X9305Y-5431D01*
X9375Y-5431D01*
X9867Y-5431D01*
X9932Y-5404D01*
X9982Y-5354D01*
X10009Y-5289D01*
X10009Y-5218D01*
X10009Y-5084D01*
X9982Y-5019D01*
X9933Y-4969D01*
X9868Y-4942D01*
X9797Y-4942D01*
X9305Y-4942D01*
X9286Y-4950D01*
X8838Y-4950D01*
X8838Y-4429D01*
X8838Y-4389D01*
X9163Y-4389D01*
X9163Y-4521D01*
X9190Y-4586D01*
X9240Y-4636D01*
X9305Y-4663D01*
X9375Y-4663D01*
X9867Y-4663D01*
X9932Y-4636D01*
X9982Y-4586D01*
X10009Y-4521D01*
X10009Y-4451D01*
X10009Y-4389D01*
X15157Y-4389D01*
X15157Y-21633D01*
G54D10*
G36*
X8011Y-21751D02*
X315Y-21751D01*
X258Y-21740D01*
X228Y-21720D01*
X207Y-21689D01*
X196Y-21634D01*
X196Y-314D01*
X207Y-259D01*
X228Y-228D01*
X258Y-207D01*
X315Y-196D01*
X6633Y-196D01*
X6633Y-1929D01*
X7263Y-1929D01*
X7263Y-2244D01*
X6633Y-2244D01*
X6633Y-4389D01*
X6879Y-4389D01*
X6879Y-4521D01*
X6906Y-4586D01*
X6956Y-4636D01*
X7021Y-4663D01*
X7092Y-4663D01*
X7584Y-4663D01*
X7649Y-4636D01*
X7699Y-4586D01*
X7726Y-4521D01*
X7726Y-4451D01*
X7726Y-4389D01*
X7937Y-4389D01*
X8011Y-4464D01*
X8011Y-4645D01*
X8011Y-4950D01*
X7603Y-4950D01*
X7584Y-4942D01*
X7514Y-4942D01*
X7022Y-4942D01*
X6956Y-4969D01*
X6906Y-5019D01*
X6879Y-5084D01*
X6879Y-5155D01*
X6879Y-5289D01*
X6906Y-5354D01*
X6956Y-5404D01*
X7021Y-5431D01*
X7092Y-5431D01*
X7584Y-5431D01*
X7603Y-5423D01*
X8011Y-5423D01*
X8011Y-6446D01*
X7726Y-6446D01*
X7726Y-5947D01*
X7726Y-5813D01*
X7699Y-5748D01*
X7649Y-5698D01*
X7584Y-5671D01*
X7514Y-5671D01*
X7022Y-5671D01*
X6956Y-5698D01*
X6906Y-5747D01*
X6879Y-5813D01*
X6879Y-5883D01*
X6879Y-6017D01*
X6906Y-6082D01*
X6956Y-6132D01*
X7021Y-6159D01*
X7092Y-6159D01*
X7584Y-6159D01*
X7649Y-6132D01*
X7699Y-6082D01*
X7726Y-6017D01*
X7726Y-5947D01*
X7726Y-6446D01*
X7603Y-6446D01*
X7584Y-6439D01*
X7514Y-6438D01*
X7022Y-6438D01*
X6956Y-6465D01*
X6906Y-6515D01*
X6879Y-6580D01*
X6879Y-6651D01*
X6879Y-6785D01*
X6906Y-6850D01*
X6956Y-6900D01*
X7021Y-6927D01*
X7092Y-6927D01*
X7584Y-6927D01*
X7603Y-6919D01*
X8011Y-6919D01*
X8011Y-7942D01*
X7726Y-7942D01*
X7726Y-7443D01*
X7726Y-7309D01*
X7699Y-7244D01*
X7649Y-7194D01*
X7584Y-7167D01*
X7514Y-7167D01*
X7022Y-7167D01*
X6956Y-7194D01*
X6906Y-7244D01*
X6879Y-7309D01*
X6879Y-7379D01*
X6879Y-7513D01*
X6906Y-7578D01*
X6956Y-7628D01*
X7021Y-7655D01*
X7092Y-7655D01*
X7584Y-7655D01*
X7649Y-7628D01*
X7699Y-7578D01*
X7726Y-7513D01*
X7726Y-7443D01*
X7726Y-7942D01*
X7603Y-7942D01*
X7584Y-7935D01*
X7514Y-7935D01*
X7022Y-7935D01*
X6956Y-7961D01*
X6906Y-8011D01*
X6879Y-8076D01*
X6879Y-8147D01*
X6879Y-8281D01*
X6906Y-8346D01*
X6956Y-8396D01*
X7021Y-8423D01*
X7092Y-8423D01*
X7584Y-8423D01*
X7603Y-8415D01*
X8011Y-8415D01*
X8011Y-8838D01*
X8011Y-8858D01*
X8011Y-9438D01*
X7726Y-9438D01*
X7726Y-8939D01*
X7726Y-8805D01*
X7699Y-8740D01*
X7649Y-8690D01*
X7584Y-8663D01*
X7514Y-8663D01*
X7022Y-8663D01*
X6956Y-8690D01*
X6906Y-8740D01*
X6879Y-8805D01*
X6879Y-8875D01*
X6879Y-9009D01*
X6906Y-9074D01*
X6956Y-9124D01*
X7021Y-9151D01*
X7092Y-9151D01*
X7584Y-9151D01*
X7649Y-9124D01*
X7699Y-9074D01*
X7726Y-9009D01*
X7726Y-8939D01*
X7726Y-9438D01*
X7603Y-9438D01*
X7584Y-9431D01*
X7514Y-9431D01*
X7022Y-9431D01*
X6956Y-9457D01*
X6906Y-9507D01*
X6879Y-9572D01*
X6879Y-9643D01*
X6879Y-9777D01*
X6906Y-9842D01*
X6956Y-9892D01*
X7021Y-9919D01*
X7092Y-9919D01*
X7584Y-9919D01*
X7603Y-9911D01*
X8011Y-9911D01*
X8011Y-10413D01*
X8011Y-10935D01*
X7726Y-10935D01*
X7726Y-10435D01*
X7726Y-10301D01*
X7699Y-10236D01*
X7649Y-10186D01*
X7584Y-10159D01*
X7514Y-10159D01*
X7022Y-10159D01*
X6956Y-10186D01*
X6906Y-10236D01*
X6879Y-10301D01*
X6879Y-10371D01*
X6879Y-10505D01*
X6906Y-10570D01*
X6956Y-10620D01*
X7021Y-10647D01*
X7092Y-10647D01*
X7584Y-10647D01*
X7649Y-10620D01*
X7699Y-10570D01*
X7726Y-10505D01*
X7726Y-10435D01*
X7726Y-10935D01*
X7603Y-10935D01*
X7584Y-10927D01*
X7514Y-10927D01*
X7022Y-10927D01*
X6956Y-10954D01*
X6906Y-11003D01*
X6879Y-11068D01*
X6879Y-11139D01*
X6879Y-11273D01*
X6906Y-11338D01*
X6956Y-11388D01*
X7021Y-11415D01*
X7092Y-11415D01*
X7584Y-11415D01*
X7603Y-11407D01*
X8011Y-11407D01*
X8011Y-11988D01*
X8011Y-12431D01*
X7726Y-12431D01*
X7726Y-11931D01*
X7726Y-11797D01*
X7699Y-11732D01*
X7649Y-11682D01*
X7584Y-11655D01*
X7514Y-11655D01*
X7022Y-11655D01*
X6956Y-11682D01*
X6906Y-11732D01*
X6879Y-11797D01*
X6879Y-11867D01*
X6879Y-12001D01*
X6906Y-12066D01*
X6956Y-12116D01*
X7021Y-12143D01*
X7092Y-12143D01*
X7584Y-12143D01*
X7649Y-12116D01*
X7699Y-12067D01*
X7726Y-12001D01*
X7726Y-11931D01*
X7726Y-12431D01*
X7603Y-12431D01*
X7584Y-12423D01*
X7514Y-12423D01*
X7022Y-12423D01*
X6956Y-12450D01*
X6906Y-12499D01*
X6879Y-12564D01*
X6879Y-12635D01*
X6879Y-12769D01*
X6906Y-12834D01*
X6956Y-12884D01*
X7021Y-12911D01*
X7092Y-12911D01*
X7584Y-12911D01*
X7603Y-12903D01*
X8011Y-12903D01*
X8011Y-13562D01*
X8011Y-13927D01*
X7726Y-13927D01*
X7726Y-13427D01*
X7726Y-13293D01*
X7699Y-13228D01*
X7649Y-13178D01*
X7584Y-13151D01*
X7514Y-13151D01*
X7022Y-13151D01*
X6956Y-13178D01*
X6906Y-13228D01*
X6879Y-13293D01*
X6879Y-13363D01*
X6879Y-13497D01*
X6906Y-13562D01*
X6956Y-13612D01*
X7021Y-13639D01*
X7092Y-13639D01*
X7584Y-13639D01*
X7649Y-13612D01*
X7699Y-13563D01*
X7726Y-13497D01*
X7726Y-13427D01*
X7726Y-13927D01*
X7603Y-13927D01*
X7584Y-13919D01*
X7514Y-13919D01*
X7022Y-13919D01*
X6956Y-13946D01*
X6906Y-13995D01*
X6879Y-14061D01*
X6879Y-14131D01*
X6879Y-14265D01*
X6906Y-14330D01*
X6956Y-14380D01*
X7021Y-14407D01*
X7092Y-14407D01*
X7584Y-14407D01*
X7603Y-14399D01*
X8011Y-14399D01*
X8011Y-15137D01*
X8011Y-15423D01*
X7726Y-15423D01*
X7726Y-14923D01*
X7726Y-14789D01*
X7699Y-14724D01*
X7649Y-14674D01*
X7584Y-14647D01*
X7514Y-14647D01*
X7022Y-14647D01*
X6956Y-14674D01*
X6906Y-14724D01*
X6879Y-14789D01*
X6879Y-14859D01*
X6879Y-14993D01*
X6906Y-15058D01*
X6956Y-15108D01*
X7021Y-15135D01*
X7092Y-15135D01*
X7584Y-15135D01*
X7649Y-15108D01*
X7699Y-15059D01*
X7726Y-14994D01*
X7726Y-14923D01*
X7726Y-15423D01*
X7603Y-15423D01*
X7584Y-15415D01*
X7514Y-15415D01*
X7022Y-15415D01*
X6956Y-15442D01*
X6906Y-15492D01*
X6879Y-15557D01*
X6879Y-15627D01*
X6879Y-15761D01*
X6906Y-15826D01*
X6956Y-15876D01*
X7021Y-15903D01*
X7092Y-15903D01*
X7584Y-15903D01*
X7603Y-15895D01*
X8011Y-15895D01*
X8011Y-16712D01*
X8011Y-16919D01*
X7726Y-16919D01*
X7726Y-16419D01*
X7726Y-16285D01*
X7699Y-16220D01*
X7649Y-16170D01*
X7584Y-16143D01*
X7514Y-16143D01*
X7022Y-16143D01*
X6956Y-16170D01*
X6906Y-16220D01*
X6879Y-16285D01*
X6879Y-16355D01*
X6879Y-16489D01*
X6906Y-16554D01*
X6956Y-16604D01*
X7021Y-16631D01*
X7092Y-16631D01*
X7584Y-16631D01*
X7649Y-16605D01*
X7699Y-16555D01*
X7726Y-16490D01*
X7726Y-16419D01*
X7726Y-16919D01*
X7603Y-16919D01*
X7584Y-16911D01*
X7514Y-16911D01*
X7022Y-16911D01*
X6956Y-16938D01*
X6906Y-16988D01*
X6879Y-17053D01*
X6879Y-17123D01*
X6879Y-17257D01*
X6906Y-17322D01*
X6956Y-17372D01*
X7021Y-17399D01*
X7092Y-17399D01*
X7584Y-17399D01*
X7603Y-17391D01*
X8011Y-17391D01*
X8011Y-18287D01*
X8011Y-18415D01*
X7726Y-18415D01*
X7726Y-17915D01*
X7726Y-17781D01*
X7699Y-17716D01*
X7649Y-17666D01*
X7584Y-17639D01*
X7514Y-17639D01*
X7022Y-17639D01*
X6956Y-17666D01*
X6906Y-17716D01*
X6879Y-17781D01*
X6879Y-17852D01*
X6879Y-17985D01*
X6906Y-18051D01*
X6956Y-18100D01*
X7021Y-18127D01*
X7092Y-18127D01*
X7584Y-18127D01*
X7649Y-18101D01*
X7699Y-18051D01*
X7726Y-17986D01*
X7726Y-17915D01*
X7726Y-18415D01*
X7603Y-18415D01*
X7584Y-18407D01*
X7514Y-18407D01*
X7022Y-18407D01*
X6956Y-18434D01*
X6906Y-18484D01*
X6879Y-18549D01*
X6879Y-18619D01*
X6879Y-18753D01*
X6906Y-18818D01*
X6956Y-18868D01*
X7021Y-18895D01*
X7092Y-18895D01*
X7584Y-18895D01*
X7603Y-18887D01*
X8011Y-18887D01*
X8011Y-19783D01*
X8011Y-19832D01*
X7726Y-19832D01*
X7726Y-19333D01*
X7726Y-19199D01*
X7699Y-19134D01*
X7649Y-19084D01*
X7584Y-19057D01*
X7514Y-19057D01*
X7022Y-19057D01*
X6956Y-19083D01*
X6906Y-19133D01*
X6879Y-19198D01*
X6879Y-19269D01*
X6879Y-19403D01*
X6906Y-19468D01*
X6956Y-19518D01*
X7021Y-19545D01*
X7092Y-19545D01*
X7584Y-19545D01*
X7649Y-19518D01*
X7699Y-19468D01*
X7726Y-19403D01*
X7726Y-19333D01*
X7726Y-19832D01*
X7603Y-19832D01*
X7584Y-19824D01*
X7514Y-19824D01*
X7022Y-19824D01*
X6956Y-19851D01*
X6906Y-19901D01*
X6879Y-19966D01*
X6879Y-20037D01*
X6879Y-20170D01*
X6906Y-20236D01*
X6956Y-20285D01*
X7021Y-20312D01*
X7092Y-20313D01*
X7584Y-20313D01*
X7603Y-20305D01*
X8011Y-20305D01*
X8011Y-21250D01*
X7726Y-21250D01*
X7726Y-20750D01*
X7726Y-20616D01*
X7699Y-20551D01*
X7649Y-20501D01*
X7584Y-20474D01*
X7514Y-20474D01*
X7022Y-20474D01*
X6956Y-20501D01*
X6906Y-20551D01*
X6879Y-20616D01*
X6879Y-20686D01*
X6879Y-20820D01*
X6906Y-20885D01*
X6956Y-20935D01*
X7021Y-20962D01*
X7092Y-20962D01*
X7584Y-20962D01*
X7649Y-20935D01*
X7699Y-20885D01*
X7726Y-20820D01*
X7726Y-20750D01*
X7726Y-21250D01*
X7603Y-21250D01*
X7584Y-21242D01*
X7514Y-21242D01*
X7022Y-21242D01*
X6956Y-21269D01*
X6906Y-21318D01*
X6879Y-21383D01*
X6879Y-21454D01*
X6879Y-21588D01*
X6906Y-21653D01*
X6956Y-21703D01*
X7021Y-21730D01*
X7092Y-21730D01*
X7584Y-21730D01*
X7603Y-21722D01*
X8011Y-21722D01*
X8011Y-21751D01*
X8011Y-21751D01*
G37*
G54D17*
X8011Y-21751D02*
X315Y-21751D01*
X258Y-21740D01*
X228Y-21720D01*
X207Y-21689D01*
X196Y-21634D01*
X196Y-314D01*
X207Y-259D01*
X228Y-228D01*
X258Y-207D01*
X315Y-196D01*
X6633Y-196D01*
X6633Y-1929D01*
X7263Y-1929D01*
X7263Y-2244D01*
X6633Y-2244D01*
X6633Y-4389D01*
X6879Y-4389D01*
X6879Y-4521D01*
X6906Y-4586D01*
X6956Y-4636D01*
X7021Y-4663D01*
X7092Y-4663D01*
X7584Y-4663D01*
X7649Y-4636D01*
X7699Y-4586D01*
X7726Y-4521D01*
X7726Y-4451D01*
X7726Y-4389D01*
X7937Y-4389D01*
X8011Y-4464D01*
X8011Y-4645D01*
X8011Y-4950D01*
X7603Y-4950D01*
X7584Y-4942D01*
X7514Y-4942D01*
X7022Y-4942D01*
X6956Y-4969D01*
X6906Y-5019D01*
X6879Y-5084D01*
X6879Y-5155D01*
X6879Y-5289D01*
X6906Y-5354D01*
X6956Y-5404D01*
X7021Y-5431D01*
X7092Y-5431D01*
X7584Y-5431D01*
X7603Y-5423D01*
X8011Y-5423D01*
X8011Y-6446D01*
X7726Y-6446D01*
X7726Y-5947D01*
X7726Y-5813D01*
X7699Y-5748D01*
X7649Y-5698D01*
X7584Y-5671D01*
X7514Y-5671D01*
X7022Y-5671D01*
X6956Y-5698D01*
X6906Y-5747D01*
X6879Y-5813D01*
X6879Y-5883D01*
X6879Y-6017D01*
X6906Y-6082D01*
X6956Y-6132D01*
X7021Y-6159D01*
X7092Y-6159D01*
X7584Y-6159D01*
X7649Y-6132D01*
X7699Y-6082D01*
X7726Y-6017D01*
X7726Y-5947D01*
X7726Y-6446D01*
X7603Y-6446D01*
X7584Y-6439D01*
X7514Y-6438D01*
X7022Y-6438D01*
X6956Y-6465D01*
X6906Y-6515D01*
X6879Y-6580D01*
X6879Y-6651D01*
X6879Y-6785D01*
X6906Y-6850D01*
X6956Y-6900D01*
X7021Y-6927D01*
X7092Y-6927D01*
X7584Y-6927D01*
X7603Y-6919D01*
X8011Y-6919D01*
X8011Y-7942D01*
X7726Y-7942D01*
X7726Y-7443D01*
X7726Y-7309D01*
X7699Y-7244D01*
X7649Y-7194D01*
X7584Y-7167D01*
X7514Y-7167D01*
X7022Y-7167D01*
X6956Y-7194D01*
X6906Y-7244D01*
X6879Y-7309D01*
X6879Y-7379D01*
X6879Y-7513D01*
X6906Y-7578D01*
X6956Y-7628D01*
X7021Y-7655D01*
X7092Y-7655D01*
X7584Y-7655D01*
X7649Y-7628D01*
X7699Y-7578D01*
X7726Y-7513D01*
X7726Y-7443D01*
X7726Y-7942D01*
X7603Y-7942D01*
X7584Y-7935D01*
X7514Y-7935D01*
X7022Y-7935D01*
X6956Y-7961D01*
X6906Y-8011D01*
X6879Y-8076D01*
X6879Y-8147D01*
X6879Y-8281D01*
X6906Y-8346D01*
X6956Y-8396D01*
X7021Y-8423D01*
X7092Y-8423D01*
X7584Y-8423D01*
X7603Y-8415D01*
X8011Y-8415D01*
X8011Y-8838D01*
X8011Y-8858D01*
X8011Y-9438D01*
X7726Y-9438D01*
X7726Y-8939D01*
X7726Y-8805D01*
X7699Y-8740D01*
X7649Y-8690D01*
X7584Y-8663D01*
X7514Y-8663D01*
X7022Y-8663D01*
X6956Y-8690D01*
X6906Y-8740D01*
X6879Y-8805D01*
X6879Y-8875D01*
X6879Y-9009D01*
X6906Y-9074D01*
X6956Y-9124D01*
X7021Y-9151D01*
X7092Y-9151D01*
X7584Y-9151D01*
X7649Y-9124D01*
X7699Y-9074D01*
X7726Y-9009D01*
X7726Y-8939D01*
X7726Y-9438D01*
X7603Y-9438D01*
X7584Y-9431D01*
X7514Y-9431D01*
X7022Y-9431D01*
X6956Y-9457D01*
X6906Y-9507D01*
X6879Y-9572D01*
X6879Y-9643D01*
X6879Y-9777D01*
X6906Y-9842D01*
X6956Y-9892D01*
X7021Y-9919D01*
X7092Y-9919D01*
X7584Y-9919D01*
X7603Y-9911D01*
X8011Y-9911D01*
X8011Y-10413D01*
X8011Y-10935D01*
X7726Y-10935D01*
X7726Y-10435D01*
X7726Y-10301D01*
X7699Y-10236D01*
X7649Y-10186D01*
X7584Y-10159D01*
X7514Y-10159D01*
X7022Y-10159D01*
X6956Y-10186D01*
X6906Y-10236D01*
X6879Y-10301D01*
X6879Y-10371D01*
X6879Y-10505D01*
X6906Y-10570D01*
X6956Y-10620D01*
X7021Y-10647D01*
X7092Y-10647D01*
X7584Y-10647D01*
X7649Y-10620D01*
X7699Y-10570D01*
X7726Y-10505D01*
X7726Y-10435D01*
X7726Y-10935D01*
X7603Y-10935D01*
X7584Y-10927D01*
X7514Y-10927D01*
X7022Y-10927D01*
X6956Y-10954D01*
X6906Y-11003D01*
X6879Y-11068D01*
X6879Y-11139D01*
X6879Y-11273D01*
X6906Y-11338D01*
X6956Y-11388D01*
X7021Y-11415D01*
X7092Y-11415D01*
X7584Y-11415D01*
X7603Y-11407D01*
X8011Y-11407D01*
X8011Y-11988D01*
X8011Y-12431D01*
X7726Y-12431D01*
X7726Y-11931D01*
X7726Y-11797D01*
X7699Y-11732D01*
X7649Y-11682D01*
X7584Y-11655D01*
X7514Y-11655D01*
X7022Y-11655D01*
X6956Y-11682D01*
X6906Y-11732D01*
X6879Y-11797D01*
X6879Y-11867D01*
X6879Y-12001D01*
X6906Y-12066D01*
X6956Y-12116D01*
X7021Y-12143D01*
X7092Y-12143D01*
X7584Y-12143D01*
X7649Y-12116D01*
X7699Y-12067D01*
X7726Y-12001D01*
X7726Y-11931D01*
X7726Y-12431D01*
X7603Y-12431D01*
X7584Y-12423D01*
X7514Y-12423D01*
X7022Y-12423D01*
X6956Y-12450D01*
X6906Y-12499D01*
X6879Y-12564D01*
X6879Y-12635D01*
X6879Y-12769D01*
X6906Y-12834D01*
X6956Y-12884D01*
X7021Y-12911D01*
X7092Y-12911D01*
X7584Y-12911D01*
X7603Y-12903D01*
X8011Y-12903D01*
X8011Y-13562D01*
X8011Y-13927D01*
X7726Y-13927D01*
X7726Y-13427D01*
X7726Y-13293D01*
X7699Y-13228D01*
X7649Y-13178D01*
X7584Y-13151D01*
X7514Y-13151D01*
X7022Y-13151D01*
X6956Y-13178D01*
X6906Y-13228D01*
X6879Y-13293D01*
X6879Y-13363D01*
X6879Y-13497D01*
X6906Y-13562D01*
X6956Y-13612D01*
X7021Y-13639D01*
X7092Y-13639D01*
X7584Y-13639D01*
X7649Y-13612D01*
X7699Y-13563D01*
X7726Y-13497D01*
X7726Y-13427D01*
X7726Y-13927D01*
X7603Y-13927D01*
X7584Y-13919D01*
X7514Y-13919D01*
X7022Y-13919D01*
X6956Y-13946D01*
X6906Y-13995D01*
X6879Y-14061D01*
X6879Y-14131D01*
X6879Y-14265D01*
X6906Y-14330D01*
X6956Y-14380D01*
X7021Y-14407D01*
X7092Y-14407D01*
X7584Y-14407D01*
X7603Y-14399D01*
X8011Y-14399D01*
X8011Y-15137D01*
X8011Y-15423D01*
X7726Y-15423D01*
X7726Y-14923D01*
X7726Y-14789D01*
X7699Y-14724D01*
X7649Y-14674D01*
X7584Y-14647D01*
X7514Y-14647D01*
X7022Y-14647D01*
X6956Y-14674D01*
X6906Y-14724D01*
X6879Y-14789D01*
X6879Y-14859D01*
X6879Y-14993D01*
X6906Y-15058D01*
X6956Y-15108D01*
X7021Y-15135D01*
X7092Y-15135D01*
X7584Y-15135D01*
X7649Y-15108D01*
X7699Y-15059D01*
X7726Y-14994D01*
X7726Y-14923D01*
X7726Y-15423D01*
X7603Y-15423D01*
X7584Y-15415D01*
X7514Y-15415D01*
X7022Y-15415D01*
X6956Y-15442D01*
X6906Y-15492D01*
X6879Y-15557D01*
X6879Y-15627D01*
X6879Y-15761D01*
X6906Y-15826D01*
X6956Y-15876D01*
X7021Y-15903D01*
X7092Y-15903D01*
X7584Y-15903D01*
X7603Y-15895D01*
X8011Y-15895D01*
X8011Y-16712D01*
X8011Y-16919D01*
X7726Y-16919D01*
X7726Y-16419D01*
X7726Y-16285D01*
X7699Y-16220D01*
X7649Y-16170D01*
X7584Y-16143D01*
X7514Y-16143D01*
X7022Y-16143D01*
X6956Y-16170D01*
X6906Y-16220D01*
X6879Y-16285D01*
X6879Y-16355D01*
X6879Y-16489D01*
X6906Y-16554D01*
X6956Y-16604D01*
X7021Y-16631D01*
X7092Y-16631D01*
X7584Y-16631D01*
X7649Y-16605D01*
X7699Y-16555D01*
X7726Y-16490D01*
X7726Y-16419D01*
X7726Y-16919D01*
X7603Y-16919D01*
X7584Y-16911D01*
X7514Y-16911D01*
X7022Y-16911D01*
X6956Y-16938D01*
X6906Y-16988D01*
X6879Y-17053D01*
X6879Y-17123D01*
X6879Y-17257D01*
X6906Y-17322D01*
X6956Y-17372D01*
X7021Y-17399D01*
X7092Y-17399D01*
X7584Y-17399D01*
X7603Y-17391D01*
X8011Y-17391D01*
X8011Y-18287D01*
X8011Y-18415D01*
X7726Y-18415D01*
X7726Y-17915D01*
X7726Y-17781D01*
X7699Y-17716D01*
X7649Y-17666D01*
X7584Y-17639D01*
X7514Y-17639D01*
X7022Y-17639D01*
X6956Y-17666D01*
X6906Y-17716D01*
X6879Y-17781D01*
X6879Y-17852D01*
X6879Y-17985D01*
X6906Y-18051D01*
X6956Y-18100D01*
X7021Y-18127D01*
X7092Y-18127D01*
X7584Y-18127D01*
X7649Y-18101D01*
X7699Y-18051D01*
X7726Y-17986D01*
X7726Y-17915D01*
X7726Y-18415D01*
X7603Y-18415D01*
X7584Y-18407D01*
X7514Y-18407D01*
X7022Y-18407D01*
X6956Y-18434D01*
X6906Y-18484D01*
X6879Y-18549D01*
X6879Y-18619D01*
X6879Y-18753D01*
X6906Y-18818D01*
X6956Y-18868D01*
X7021Y-18895D01*
X7092Y-18895D01*
X7584Y-18895D01*
X7603Y-18887D01*
X8011Y-18887D01*
X8011Y-19783D01*
X8011Y-19832D01*
X7726Y-19832D01*
X7726Y-19333D01*
X7726Y-19199D01*
X7699Y-19134D01*
X7649Y-19084D01*
X7584Y-19057D01*
X7514Y-19057D01*
X7022Y-19057D01*
X6956Y-19083D01*
X6906Y-19133D01*
X6879Y-19198D01*
X6879Y-19269D01*
X6879Y-19403D01*
X6906Y-19468D01*
X6956Y-19518D01*
X7021Y-19545D01*
X7092Y-19545D01*
X7584Y-19545D01*
X7649Y-19518D01*
X7699Y-19468D01*
X7726Y-19403D01*
X7726Y-19333D01*
X7726Y-19832D01*
X7603Y-19832D01*
X7584Y-19824D01*
X7514Y-19824D01*
X7022Y-19824D01*
X6956Y-19851D01*
X6906Y-19901D01*
X6879Y-19966D01*
X6879Y-20037D01*
X6879Y-20170D01*
X6906Y-20236D01*
X6956Y-20285D01*
X7021Y-20312D01*
X7092Y-20313D01*
X7584Y-20313D01*
X7603Y-20305D01*
X8011Y-20305D01*
X8011Y-21250D01*
X7726Y-21250D01*
X7726Y-20750D01*
X7726Y-20616D01*
X7699Y-20551D01*
X7649Y-20501D01*
X7584Y-20474D01*
X7514Y-20474D01*
X7022Y-20474D01*
X6956Y-20501D01*
X6906Y-20551D01*
X6879Y-20616D01*
X6879Y-20686D01*
X6879Y-20820D01*
X6906Y-20885D01*
X6956Y-20935D01*
X7021Y-20962D01*
X7092Y-20962D01*
X7584Y-20962D01*
X7649Y-20935D01*
X7699Y-20885D01*
X7726Y-20820D01*
X7726Y-20750D01*
X7726Y-21250D01*
X7603Y-21250D01*
X7584Y-21242D01*
X7514Y-21242D01*
X7022Y-21242D01*
X6956Y-21269D01*
X6906Y-21318D01*
X6879Y-21383D01*
X6879Y-21454D01*
X6879Y-21588D01*
X6906Y-21653D01*
X6956Y-21703D01*
X7021Y-21730D01*
X7092Y-21730D01*
X7584Y-21730D01*
X7603Y-21722D01*
X8011Y-21722D01*
X8011Y-21751D01*
M02*
