M48
INCH,TZ
T1C0.012
%
G90
G05
T1
X000571Y-018976
X000669Y-006870
X000669Y-008346
X000669Y-014154
X000669Y-016811
X000768Y-000669
X000768Y-007657
X000768Y-010413
X000768Y-011890
X000768Y-020256
X000866Y-002638
X000866Y-003917
X000866Y-005000
X000866Y-009626
X000866Y-017795
X000965Y-001358
X000965Y-015728
X000965Y-021339
X001063Y-013071
X001161Y-005886
X001161Y-019665
X001358Y-015138
X001358Y-018583
X001457Y-004409
X001457Y-011004
X001457Y-013858
X001555Y-002047
X001555Y-007362
X001555Y-008740
X001555Y-016909
X001654Y-000866
X001654Y-002933
X001654Y-006673
X001752Y-003720
X001752Y-005098
X001752Y-009823
X001752Y-017894
X001850Y-019075
X001949Y-008150
X001949Y-012480
X002047Y-020650
X002146Y-011102
X002244Y-016122
X002244Y-019764
X002343Y-005787
X002343Y-011791
X002441Y-001457
X002441Y-004213
X002441Y-015236
X002539Y-002343
X002539Y-007362
X002539Y-021339
X002638Y-000669
X002638Y-018583
X002736Y-004902
X002736Y-010512
X002736Y-016811
X002835Y-009134
X002933Y-003228
X002933Y-020354
X003031Y-008248
X003031Y-017697
X003130Y-011496
X003130Y-015827
X003228Y-019173
X003327Y-004311
X003327Y-005492
X003327Y-009823
X003425Y-000965
X003524Y-001752
X003524Y-002441
X003720Y-008839
X003720Y-019961
X004016Y-004213
X004016Y-007657
X004114Y-003130
X004114Y-005000
X004114Y-019272
X004114Y-021142
X004213Y-020453
X004311Y-001161
X004311Y-005886
X004508Y-002244
X004508Y-008445
X004606Y-000669
X004803Y-018189
X004902Y-006673
X004902Y-007756
X004902Y-009626
X004902Y-012972
X004902Y-016319
X004902Y-021043
X005000Y-004213
X005000Y-005098
X005000Y-008937
X005000Y-011496
X005000Y-014449
X005000Y-015630
X005098Y-001654
X005098Y-002835
X005098Y-017598
X005098Y-019665
X005295Y-000965
X005295Y-018780
X005394Y-005787
X005394Y-013661
X005492Y-010610
X005492Y-020354
X005591Y-003524
X005591Y-012283
X005591Y-021437
X005689Y-009528
X005787Y-001654
X005787Y-015335
X005787Y-016713
X005787Y-019567
X005886Y-004409
X005886Y-006673
X005886Y-008150
X005886Y-014449
X005886Y-017500
X005984Y-000669
X005984Y-002441
X006083Y-005295
X006083Y-011299
X006083Y-013071
X006181Y-016122
X006181Y-020945
X006280Y-003819
X006280Y-007362
X006280Y-008839
X006280Y-010315
X006280Y-013760
X006280Y-018287
X006378Y-014941
X006378Y-020157
X006476Y-005984
X006476Y-012382
X006476Y-017008
X006476Y-018976
X007854Y-004724
X007854Y-006201
X007854Y-007756
X007854Y-009232
X007854Y-010709
X007854Y-012185
X007854Y-013661
X007854Y-015138
X007854Y-016614
X007854Y-018091
X007854Y-019567
X007854Y-021043
X008996Y-004724
X008996Y-006201
X008996Y-007756
X008996Y-009232
X008996Y-010709
X008996Y-012185
X008996Y-013661
X008996Y-015138
X008996Y-016614
X008996Y-018091
X008996Y-019567
X008996Y-021043
X010138Y-000827
X010177Y-003248
X010374Y-001929
X010374Y-004803
X010433Y-005906
X010433Y-007480
X010492Y-008091
X010492Y-018819
X010531Y-001220
X010551Y-011890
X010551Y-016102
X010571Y-006516
X010591Y-017106
X010610Y-000492
X010630Y-019744
X010650Y-002539
X010709Y-003583
X010728Y-014724
X010787Y-013189
X010807Y-008563
X010807Y-009724
X010866Y-005197
X010965Y-007756
X010984Y-010610
X010984Y-018031
X011004Y-001772
X011004Y-021004
X011181Y-006850
X011220Y-011417
X011280Y-003169
X011280Y-012205
X011339Y-005906
X011358Y-002303
X011398Y-001142
X011476Y-015472
X011555Y-010787
X011654Y-009606
X011673Y-013799
X011772Y-018524
X011811Y-008563
X011811Y-010138
X011811Y-013051
X011870Y-014587
X011890Y-000551
X011909Y-012067
X011969Y-001398
X011969Y-007756
X012028Y-003622
X012047Y-005197
X012067Y-002854
X012067Y-006280
X012106Y-020925
X012185Y-002008
X012205Y-006929
X012264Y-009094
X012480Y-014154
X012539Y-002559
X012559Y-010591
X012598Y-009843
X012638Y-001339
X012756Y-012579
X012756Y-014902
X012795Y-000630
X012933Y-008346
X012953Y-003366
X013110Y-002047
X013150Y-005039
X013169Y-013465
X013169Y-018150
X013228Y-006063
X013248Y-011949
X013268Y-001181
X013287Y-021161
X013307Y-007559
X013386Y-012657
X013465Y-006693
X013484Y-009685
X013484Y-015709
X013484Y-017087
X013543Y-002579
X013563Y-014232
X013661Y-000551
X013681Y-010709
X013760Y-003287
X013819Y-001811
X013858Y-011654
X014016Y-005000
X014035Y-007067
X014035Y-008169
X014075Y-013091
X014154Y-005630
X014173Y-009035
X014173Y-012264
X014232Y-002874
X014331Y-002264
X014429Y-014705
X014449Y-001417
X014449Y-010000
X014449Y-013917
X014488Y-000709
X014626Y-007579
X014626Y-010866
X014626Y-011634
X014665Y-012697
X014665Y-015945
X014685Y-003327
X014705Y-004803
X014724Y-018425
X014783Y-006398
T0
M30
