G04 (created by PCBNEW (2013-07-07 BZR 4022)-stable) date 12/4/2019 12:35:47*
%MOIN*%
G04 Gerber Fmt 3.4, Leading zero omitted, Abs format*
%FSLAX34Y34*%
G01*
G70*
G90*
G04 APERTURE LIST*
%ADD10C,0.00590551*%
%ADD11C,0.0001*%
%ADD12C,0.00787402*%
G04 APERTURE END LIST*
G54D10*
G54D11*
G36*
X13088Y-20315D02*
X13083Y-20315D01*
X13070Y-20315D01*
X13048Y-20316D01*
X13019Y-20316D01*
X12981Y-20316D01*
X12937Y-20316D01*
X12886Y-20317D01*
X12829Y-20317D01*
X12766Y-20317D01*
X12697Y-20317D01*
X12624Y-20317D01*
X12546Y-20317D01*
X12464Y-20318D01*
X12378Y-20318D01*
X12289Y-20318D01*
X12197Y-20318D01*
X12108Y-20318D01*
X12014Y-20318D01*
X11922Y-20318D01*
X11833Y-20318D01*
X11747Y-20318D01*
X11666Y-20317D01*
X11588Y-20317D01*
X11515Y-20317D01*
X11447Y-20317D01*
X11384Y-20317D01*
X11327Y-20316D01*
X11277Y-20316D01*
X11233Y-20316D01*
X11197Y-20316D01*
X11168Y-20315D01*
X11147Y-20315D01*
X11134Y-20315D01*
X11130Y-20314D01*
X11134Y-20307D01*
X11142Y-20293D01*
X11155Y-20272D01*
X11171Y-20245D01*
X11191Y-20211D01*
X11214Y-20172D01*
X11240Y-20128D01*
X11269Y-20079D01*
X11301Y-20027D01*
X11334Y-19970D01*
X11370Y-19910D01*
X11407Y-19847D01*
X11445Y-19782D01*
X11485Y-19716D01*
X11526Y-19647D01*
X11567Y-19578D01*
X11608Y-19508D01*
X11650Y-19438D01*
X11691Y-19368D01*
X11732Y-19299D01*
X11772Y-19232D01*
X11811Y-19166D01*
X11849Y-19102D01*
X11885Y-19041D01*
X11920Y-18983D01*
X11952Y-18929D01*
X11982Y-18879D01*
X12009Y-18833D01*
X12034Y-18791D01*
X12055Y-18756D01*
X12073Y-18726D01*
X12087Y-18702D01*
X12097Y-18685D01*
X12103Y-18675D01*
X12104Y-18673D01*
X12106Y-18671D01*
X12108Y-18670D01*
X12110Y-18671D01*
X12114Y-18674D01*
X12118Y-18680D01*
X12125Y-18690D01*
X12133Y-18703D01*
X12144Y-18720D01*
X12158Y-18742D01*
X12175Y-18770D01*
X12195Y-18804D01*
X12219Y-18844D01*
X12247Y-18891D01*
X12270Y-18931D01*
X12429Y-19199D01*
X12402Y-19226D01*
X12385Y-19243D01*
X12368Y-19257D01*
X12351Y-19269D01*
X12332Y-19279D01*
X12311Y-19287D01*
X12286Y-19294D01*
X12256Y-19299D01*
X12221Y-19304D01*
X12179Y-19308D01*
X12129Y-19313D01*
X12098Y-19315D01*
X12042Y-19320D01*
X11995Y-19325D01*
X11955Y-19330D01*
X11921Y-19338D01*
X11893Y-19347D01*
X11868Y-19359D01*
X11847Y-19374D01*
X11828Y-19392D01*
X11810Y-19414D01*
X11793Y-19441D01*
X11776Y-19469D01*
X11764Y-19489D01*
X11748Y-19512D01*
X11730Y-19536D01*
X11713Y-19559D01*
X11713Y-19559D01*
X11673Y-19609D01*
X11642Y-19655D01*
X11617Y-19698D01*
X11599Y-19737D01*
X11589Y-19774D01*
X11584Y-19809D01*
X11587Y-19844D01*
X11595Y-19879D01*
X11609Y-19914D01*
X11615Y-19925D01*
X11621Y-19938D01*
X11630Y-19958D01*
X11640Y-19984D01*
X11651Y-20013D01*
X11663Y-20045D01*
X11671Y-20066D01*
X11690Y-20119D01*
X11707Y-20163D01*
X11722Y-20199D01*
X11735Y-20226D01*
X11746Y-20243D01*
X11754Y-20253D01*
X11755Y-20253D01*
X11771Y-20257D01*
X11791Y-20257D01*
X11809Y-20251D01*
X11814Y-20248D01*
X11827Y-20236D01*
X11840Y-20216D01*
X11842Y-20213D01*
X11848Y-20200D01*
X11851Y-20189D01*
X11853Y-20176D01*
X11854Y-20160D01*
X11855Y-20138D01*
X11855Y-20136D01*
X11854Y-20109D01*
X11852Y-20088D01*
X11849Y-20070D01*
X11844Y-20053D01*
X11834Y-20027D01*
X11822Y-20002D01*
X11810Y-19981D01*
X11803Y-19972D01*
X11800Y-19966D01*
X11799Y-19959D01*
X11801Y-19946D01*
X11804Y-19935D01*
X11810Y-19893D01*
X11809Y-19853D01*
X11800Y-19815D01*
X11795Y-19801D01*
X11797Y-19795D01*
X11805Y-19784D01*
X11819Y-19766D01*
X11836Y-19748D01*
X11854Y-19729D01*
X11870Y-19714D01*
X11886Y-19701D01*
X11904Y-19688D01*
X11926Y-19674D01*
X11942Y-19664D01*
X12005Y-19626D01*
X12048Y-19660D01*
X12091Y-19693D01*
X12074Y-19742D01*
X12058Y-19790D01*
X12002Y-19845D01*
X11978Y-19871D01*
X11957Y-19894D01*
X11941Y-19913D01*
X11931Y-19927D01*
X11919Y-19956D01*
X11909Y-19992D01*
X11903Y-20032D01*
X11900Y-20076D01*
X11901Y-20120D01*
X11903Y-20139D01*
X11909Y-20181D01*
X11919Y-20214D01*
X11933Y-20238D01*
X11938Y-20245D01*
X11948Y-20253D01*
X11959Y-20257D01*
X11974Y-20258D01*
X11991Y-20256D01*
X12006Y-20251D01*
X12020Y-20242D01*
X12034Y-20228D01*
X12047Y-20208D01*
X12062Y-20181D01*
X12078Y-20146D01*
X12085Y-20132D01*
X12102Y-20093D01*
X12117Y-20061D01*
X12131Y-20035D01*
X12145Y-20013D01*
X12159Y-19994D01*
X12174Y-19976D01*
X12178Y-19972D01*
X12204Y-19948D01*
X12231Y-19929D01*
X12244Y-19922D01*
X12261Y-19913D01*
X12274Y-19905D01*
X12282Y-19899D01*
X12283Y-19898D01*
X12288Y-19894D01*
X12298Y-19886D01*
X12314Y-19873D01*
X12334Y-19858D01*
X12357Y-19841D01*
X12368Y-19833D01*
X12409Y-19802D01*
X12443Y-19776D01*
X12471Y-19753D01*
X12494Y-19732D01*
X12512Y-19714D01*
X12527Y-19696D01*
X12538Y-19679D01*
X12548Y-19661D01*
X12556Y-19642D01*
X12558Y-19634D01*
X12566Y-19615D01*
X12574Y-19596D01*
X12582Y-19582D01*
X12583Y-19580D01*
X12593Y-19568D01*
X12604Y-19557D01*
X12616Y-19548D01*
X12626Y-19542D01*
X12632Y-19542D01*
X12632Y-19542D01*
X12635Y-19547D01*
X12642Y-19559D01*
X12653Y-19577D01*
X12668Y-19601D01*
X12685Y-19631D01*
X12705Y-19665D01*
X12728Y-19703D01*
X12753Y-19745D01*
X12779Y-19789D01*
X12806Y-19835D01*
X12834Y-19882D01*
X12862Y-19930D01*
X12890Y-19978D01*
X12918Y-20025D01*
X12945Y-20071D01*
X12971Y-20115D01*
X12995Y-20156D01*
X13018Y-20194D01*
X13037Y-20228D01*
X13055Y-20257D01*
X13069Y-20281D01*
X13079Y-20299D01*
X13086Y-20311D01*
X13088Y-20315D01*
X13088Y-20315D01*
X13088Y-20315D01*
G37*
%LPC*%
G54D10*
G36*
X14881Y-3799D02*
X9783Y-3799D01*
X9783Y-275D01*
X14881Y-275D01*
X14881Y-3799D01*
X14881Y-3799D01*
G37*
G54D12*
X14881Y-3799D02*
X9783Y-3799D01*
X9783Y-275D01*
X14881Y-275D01*
X14881Y-3799D01*
G54D10*
G36*
X6456Y-6358D02*
X374Y-6358D01*
X374Y-275D01*
X6456Y-275D01*
X6456Y-6358D01*
X6456Y-6358D01*
G37*
G54D12*
X6456Y-6358D02*
X374Y-6358D01*
X374Y-275D01*
X6456Y-275D01*
X6456Y-6358D01*
G54D10*
G36*
X14881Y-10984D02*
X10275Y-10984D01*
X10275Y-6141D01*
X14881Y-6141D01*
X14881Y-10984D01*
X14881Y-10984D01*
G37*
G54D12*
X14881Y-10984D02*
X10275Y-10984D01*
X10275Y-6141D01*
X14881Y-6141D01*
X14881Y-10984D01*
M02*
