G04 (created by PCBNEW (2013-07-07 BZR 4022)-stable) date 8/5/2019 09:37:44*
%MOIN*%
G04 Gerber Fmt 3.4, Leading zero omitted, Abs format*
%FSLAX34Y34*%
G01*
G70*
G90*
G04 APERTURE LIST*
%ADD10C,0.00590551*%
%ADD11R,0.0905512X0.019685*%
%ADD12R,0.0905512X0.0787402*%
%ADD13R,0.0688976X0.0787402*%
%ADD14C,0.0275591*%
%ADD15C,0.11811*%
%ADD16R,0.0669291X0.0669291*%
%ADD17C,0.0669291*%
%ADD18R,0.11811X0.0866142*%
%ADD19R,0.0401575X0.0700787*%
%ADD20R,0.0700787X0.0401575*%
%ADD21R,0.0106299X0.0472441*%
%ADD22R,0.0472441X0.0106299*%
%ADD23R,0.19685X0.15748*%
%ADD24R,0.0244094X0.0480315*%
%ADD25R,0.0433071X0.023622*%
%ADD26C,0.141732*%
%ADD27R,0.155811X0.091811*%
%ADD28R,0.0511811X0.08*%
%ADD29C,0.0314961*%
%ADD30C,0.0354331*%
%ADD31R,0.0866142X0.173228*%
%ADD32R,0.0590551X0.0472441*%
%ADD33R,0.0393701X0.0787402*%
%ADD34R,0.0787402X0.0393701*%
%ADD35C,0.00984252*%
%ADD36C,0.0314961*%
%ADD37C,0.0354331*%
%ADD38C,0.015748*%
%ADD39C,0.023622*%
%ADD40C,0.0275591*%
%ADD41C,0.019685*%
%ADD42C,0.0244094*%
G04 APERTURE END LIST*
G54D10*
G54D11*
X26968Y-28110D03*
X26968Y-28425D03*
X26968Y-28740D03*
X26968Y-29055D03*
X26968Y-29370D03*
G54D12*
X26968Y-27283D03*
X26968Y-30196D03*
G54D13*
X25098Y-27283D03*
X25098Y-30196D03*
G54D12*
X25206Y-27283D03*
X25206Y-30196D03*
G54D14*
X31240Y-36889D03*
X28326Y-36850D03*
X29173Y-35472D03*
X28307Y-32027D03*
X27618Y-32027D03*
X24921Y-30826D03*
X25590Y-30826D03*
X29606Y-20236D03*
X27185Y-15846D03*
X29350Y-15944D03*
X27992Y-36318D03*
X26476Y-30826D03*
G54D15*
X44901Y-25098D03*
X46751Y-25098D03*
X48602Y-25098D03*
G54D14*
X26830Y-32421D03*
X24901Y-34547D03*
X28503Y-26240D03*
X27618Y-25649D03*
X30787Y-36594D03*
X27913Y-27224D03*
X28858Y-24527D03*
X27145Y-26515D03*
X28070Y-32460D03*
X25610Y-22401D03*
X25846Y-20767D03*
X25748Y-19291D03*
X27027Y-20374D03*
X26692Y-21614D03*
X29448Y-19074D03*
X31515Y-20354D03*
X30925Y-22185D03*
X30826Y-19625D03*
X27637Y-16988D03*
X28208Y-16082D03*
X29409Y-16889D03*
X27106Y-36771D03*
X31240Y-34724D03*
X33720Y-33228D03*
X33287Y-33661D03*
X33287Y-32834D03*
X35767Y-33464D03*
X36043Y-31850D03*
X36397Y-34094D03*
X35531Y-32913D03*
X36358Y-32913D03*
X48818Y-35629D03*
X49606Y-34842D03*
X48818Y-34055D03*
X50393Y-34055D03*
X50393Y-32480D03*
X49606Y-33267D03*
X48818Y-32480D03*
X36535Y-17657D03*
X36555Y-18779D03*
X36555Y-19980D03*
X36555Y-21141D03*
X35314Y-16181D03*
X33129Y-30649D03*
X27047Y-19192D03*
X28346Y-19192D03*
X25078Y-25964D03*
X26338Y-25728D03*
X26043Y-26791D03*
X28425Y-32854D03*
X28503Y-22696D03*
X29448Y-22401D03*
X29448Y-21259D03*
X28523Y-20275D03*
X28011Y-21456D03*
X31515Y-19173D03*
X30826Y-21102D03*
X31673Y-22165D03*
X27125Y-22598D03*
X32952Y-23897D03*
X32854Y-25551D03*
X32224Y-26259D03*
X33385Y-24724D03*
X33700Y-23622D03*
X33799Y-22125D03*
X34586Y-21338D03*
X33759Y-20629D03*
X34685Y-20413D03*
X30669Y-16377D03*
X34429Y-18011D03*
X33366Y-17893D03*
X34232Y-16889D03*
X32854Y-17007D03*
X31555Y-17007D03*
X33759Y-15846D03*
X32086Y-15944D03*
X32976Y-36019D03*
X32614Y-35531D03*
X35629Y-28051D03*
X35925Y-26181D03*
X25098Y-29232D03*
X25098Y-28444D03*
X37106Y-30629D03*
X37106Y-29547D03*
X37598Y-36043D03*
X35826Y-36043D03*
X39763Y-16358D03*
X42125Y-16358D03*
X44488Y-16358D03*
X44488Y-36338D03*
X42125Y-36338D03*
X39763Y-36338D03*
X38267Y-21338D03*
X44370Y-31338D03*
X24901Y-32480D03*
X26240Y-32421D03*
G54D16*
X45669Y-36228D03*
G54D17*
X45669Y-35228D03*
X45669Y-34228D03*
G54D16*
X40944Y-36228D03*
G54D17*
X40944Y-35228D03*
X40944Y-34228D03*
G54D16*
X38582Y-36228D03*
G54D17*
X38582Y-35228D03*
X38582Y-34228D03*
G54D16*
X38582Y-16429D03*
G54D17*
X38582Y-17429D03*
X38582Y-18429D03*
G54D16*
X40944Y-16429D03*
G54D17*
X40944Y-17429D03*
X40944Y-18429D03*
G54D16*
X45669Y-16429D03*
G54D17*
X45669Y-17429D03*
X45669Y-18429D03*
G54D16*
X43307Y-16429D03*
G54D17*
X43307Y-17429D03*
X43307Y-18429D03*
G54D16*
X43307Y-36228D03*
G54D17*
X43307Y-35228D03*
X43307Y-34228D03*
G54D18*
X43996Y-22165D03*
X43996Y-20354D03*
X38779Y-30492D03*
X38779Y-32303D03*
G54D19*
X34307Y-35629D03*
X33606Y-35629D03*
X47287Y-34448D03*
X47988Y-34448D03*
X37259Y-32283D03*
X36559Y-32283D03*
X37259Y-33464D03*
X36559Y-33464D03*
X45417Y-27263D03*
X46118Y-27263D03*
X37259Y-19389D03*
X36559Y-19389D03*
G54D20*
X25295Y-31944D03*
X25295Y-31244D03*
G54D21*
X29921Y-30610D03*
X30118Y-30610D03*
X30314Y-30610D03*
X30511Y-30610D03*
X30708Y-30610D03*
X30905Y-30610D03*
X31102Y-30610D03*
X31299Y-30610D03*
X31496Y-30610D03*
X31692Y-30610D03*
X31889Y-30610D03*
X32086Y-30610D03*
G54D22*
X32677Y-30019D03*
X32677Y-29822D03*
X32677Y-29625D03*
X32677Y-29429D03*
X32677Y-29232D03*
X32677Y-29035D03*
X32677Y-28838D03*
X32677Y-28641D03*
X32677Y-28444D03*
X32677Y-28248D03*
X32677Y-28051D03*
X32677Y-27854D03*
G54D21*
X32086Y-27263D03*
X31889Y-27263D03*
X31692Y-27263D03*
X31496Y-27263D03*
X31299Y-27263D03*
X31102Y-27263D03*
X30905Y-27263D03*
X30708Y-27263D03*
X30511Y-27263D03*
X30314Y-27263D03*
X30118Y-27263D03*
X29921Y-27263D03*
G54D22*
X29330Y-27854D03*
X29330Y-28051D03*
X29330Y-28248D03*
X29330Y-28444D03*
X29330Y-28641D03*
X29330Y-28838D03*
X29330Y-29035D03*
X29330Y-29232D03*
X29330Y-29429D03*
X29330Y-29625D03*
X29330Y-29822D03*
X29330Y-30019D03*
G54D23*
X40748Y-25196D03*
X40748Y-22047D03*
X42027Y-27460D03*
X42027Y-30610D03*
G54D24*
X44704Y-29354D03*
X45078Y-29354D03*
X45452Y-29354D03*
X45452Y-28322D03*
X45078Y-28322D03*
X44704Y-28322D03*
G54D19*
X47287Y-18011D03*
X47988Y-18011D03*
X32535Y-34448D03*
X31834Y-34448D03*
G54D25*
X26437Y-33543D03*
X26437Y-32795D03*
X25334Y-33543D03*
X26437Y-33169D03*
X25334Y-32795D03*
G54D24*
X38070Y-23204D03*
X37696Y-23204D03*
X37322Y-23204D03*
X37322Y-24236D03*
X37696Y-24236D03*
X38070Y-24236D03*
G54D20*
X26574Y-31944D03*
X26574Y-31244D03*
G54D19*
X37161Y-25590D03*
X36460Y-25590D03*
G54D14*
X48818Y-18208D03*
X49606Y-18996D03*
X50393Y-18208D03*
X50393Y-19783D03*
X48818Y-19783D03*
X49606Y-20570D03*
X50393Y-21358D03*
X26771Y-34370D03*
X24901Y-33858D03*
G54D19*
X30566Y-24901D03*
X29866Y-24901D03*
X30960Y-33267D03*
X30259Y-33267D03*
X37259Y-22145D03*
X36559Y-22145D03*
X29177Y-26082D03*
X29877Y-26082D03*
X34000Y-30511D03*
X34700Y-30511D03*
G54D20*
X28248Y-29078D03*
X28248Y-29779D03*
X35137Y-26728D03*
X35137Y-26027D03*
X35629Y-24562D03*
X35629Y-23862D03*
G54D19*
X27909Y-33858D03*
X27208Y-33858D03*
G54D20*
X45275Y-32141D03*
X45275Y-31440D03*
X37401Y-20417D03*
X37401Y-21118D03*
G54D19*
X45515Y-30413D03*
X46216Y-30413D03*
X26137Y-34547D03*
X25437Y-34547D03*
G54D20*
X27755Y-35685D03*
X27755Y-34984D03*
G54D19*
X32535Y-33267D03*
X31834Y-33267D03*
X37259Y-34645D03*
X36559Y-34645D03*
X32535Y-32086D03*
X31834Y-32086D03*
X31440Y-24901D03*
X32141Y-24901D03*
X28303Y-31397D03*
X27602Y-31397D03*
X30960Y-32086D03*
X30259Y-32086D03*
X47287Y-19192D03*
X47988Y-19192D03*
G54D20*
X46948Y-16984D03*
X46948Y-16283D03*
G54D19*
X47287Y-20374D03*
X47988Y-20374D03*
G54D20*
X46948Y-35476D03*
X46948Y-36177D03*
G54D19*
X47287Y-32086D03*
X47988Y-32086D03*
X47287Y-33267D03*
X47988Y-33267D03*
X37259Y-18208D03*
X36559Y-18208D03*
G54D16*
X36417Y-27059D03*
G54D17*
X36417Y-28059D03*
X36417Y-29059D03*
X36417Y-30059D03*
X36417Y-31059D03*
G54D26*
X25787Y-16535D03*
X25787Y-36122D03*
X51181Y-36122D03*
X51181Y-16535D03*
G54D27*
X34547Y-31770D03*
G54D28*
X34547Y-34370D03*
X35447Y-34370D03*
X33647Y-34370D03*
G54D29*
X34192Y-31771D03*
X34901Y-31771D03*
G54D19*
X29877Y-36476D03*
X29177Y-36476D03*
G54D30*
X49015Y-23031D03*
X49015Y-22480D03*
X49015Y-21968D03*
G54D31*
X48818Y-22480D03*
G54D30*
X46259Y-23031D03*
X46259Y-22480D03*
X46259Y-21968D03*
G54D31*
X46456Y-22480D03*
X46850Y-22480D03*
X48425Y-22480D03*
G54D30*
X46653Y-21968D03*
X47047Y-21968D03*
X47047Y-22480D03*
X46653Y-22480D03*
X46653Y-23031D03*
X47047Y-23031D03*
X48228Y-21968D03*
X48622Y-21968D03*
X48622Y-22480D03*
X48228Y-22480D03*
X48228Y-23031D03*
X48622Y-23031D03*
G54D32*
X33956Y-27657D03*
X33956Y-29429D03*
G54D33*
X24960Y-18110D03*
X25551Y-18110D03*
X26732Y-18110D03*
X26141Y-18110D03*
X28503Y-18110D03*
X29094Y-18110D03*
X27913Y-18110D03*
X27322Y-18110D03*
X30275Y-18110D03*
X30866Y-18110D03*
X32047Y-18110D03*
X31456Y-18110D03*
X29685Y-18110D03*
G54D34*
X32933Y-22933D03*
X32933Y-22342D03*
X32933Y-21161D03*
X32933Y-21751D03*
X32933Y-19389D03*
X32933Y-18799D03*
X32933Y-19980D03*
X32933Y-20570D03*
G54D33*
X29685Y-23622D03*
X31456Y-23622D03*
X32047Y-23622D03*
X30866Y-23622D03*
X30275Y-23622D03*
X27322Y-23622D03*
X27913Y-23622D03*
X29094Y-23622D03*
X28503Y-23622D03*
X26141Y-23622D03*
X26732Y-23622D03*
X25551Y-23622D03*
X24960Y-23622D03*
G54D14*
X31003Y-25314D03*
X26377Y-24606D03*
X30216Y-19094D03*
X31456Y-25570D03*
X30787Y-25767D03*
X26299Y-25137D03*
X30988Y-31500D03*
X36318Y-15905D03*
X31555Y-28444D03*
X33366Y-27736D03*
X31279Y-28720D03*
X33779Y-27165D03*
X34232Y-27185D03*
X33267Y-29192D03*
X30118Y-31338D03*
X30551Y-28927D03*
X30531Y-29350D03*
X29606Y-31240D03*
X29488Y-30866D03*
X30167Y-29468D03*
X29468Y-30413D03*
X29921Y-29763D03*
X31968Y-36811D03*
X30019Y-28129D03*
X30590Y-28011D03*
X28311Y-34433D03*
X26594Y-35177D03*
X30334Y-26358D03*
X34700Y-29299D03*
X34385Y-28413D03*
X36496Y-22893D03*
X45078Y-28897D03*
X37834Y-21791D03*
X36019Y-32303D03*
X31814Y-32681D03*
X30590Y-31476D03*
X33606Y-35039D03*
X30669Y-34586D03*
X44940Y-30826D03*
X35137Y-27322D03*
X31968Y-29448D03*
X27106Y-34960D03*
X26062Y-28031D03*
X28677Y-30614D03*
X28677Y-28377D03*
X31456Y-24311D03*
X29429Y-24901D03*
X31377Y-29940D03*
X32606Y-30570D03*
X30334Y-34015D03*
X32519Y-33877D03*
G54D35*
X30708Y-27263D02*
X30708Y-26082D01*
X30492Y-24976D02*
X30566Y-24901D01*
X30492Y-25866D02*
X30492Y-24976D01*
X30708Y-26082D02*
X30492Y-25866D01*
G54D36*
X30866Y-23622D02*
X30866Y-24602D01*
X30866Y-24602D02*
X30566Y-24901D01*
G54D35*
X31102Y-25413D02*
X31003Y-25314D01*
G54D36*
X25551Y-23622D02*
X25551Y-24370D01*
X25787Y-24606D02*
X26377Y-24606D01*
X25551Y-24370D02*
X25787Y-24606D01*
G54D35*
X31102Y-25413D02*
X31102Y-27263D01*
X31299Y-27263D02*
X31299Y-25728D01*
G54D36*
X30275Y-19035D02*
X30216Y-19094D01*
X30275Y-19035D02*
X30275Y-18110D01*
G54D35*
X31299Y-25728D02*
X31456Y-25570D01*
X30905Y-25885D02*
X30787Y-25767D01*
X30905Y-27263D02*
X30905Y-25885D01*
G54D36*
X24960Y-23622D02*
X24960Y-24566D01*
X25531Y-25137D02*
X26299Y-25137D01*
X24960Y-24566D02*
X25531Y-25137D01*
G54D35*
X32677Y-30019D02*
X33976Y-30019D01*
X33976Y-30019D02*
X34000Y-29996D01*
G54D37*
X34000Y-30511D02*
X34000Y-29996D01*
X34000Y-29996D02*
X34000Y-29472D01*
X34000Y-29472D02*
X33956Y-29429D01*
G54D35*
X31102Y-30610D02*
X31102Y-31385D01*
X31102Y-31385D02*
X30988Y-31500D01*
G54D38*
X30960Y-31527D02*
X30960Y-32086D01*
X30988Y-31500D02*
X30960Y-31527D01*
G54D37*
X30960Y-32086D02*
X30960Y-33267D01*
G54D38*
X36318Y-15905D02*
X36318Y-16161D01*
X35374Y-22145D02*
X34149Y-23370D01*
X35374Y-17106D02*
X35374Y-22145D01*
X36318Y-16161D02*
X35374Y-17106D01*
X34149Y-23370D02*
X34149Y-24952D01*
X34149Y-24952D02*
X33690Y-25411D01*
G54D35*
X29330Y-28444D02*
X31555Y-28444D01*
G54D38*
X33690Y-26624D02*
X33464Y-26850D01*
X33464Y-26850D02*
X33464Y-27637D01*
X33464Y-27637D02*
X33366Y-27736D01*
X33690Y-25411D02*
X33690Y-26624D01*
X34456Y-23433D02*
X34456Y-25055D01*
X34456Y-25055D02*
X33994Y-25517D01*
X33994Y-25517D02*
X33994Y-26950D01*
X42537Y-15659D02*
X37214Y-15659D01*
X43307Y-16429D02*
X42537Y-15659D01*
X35649Y-17224D02*
X37214Y-15659D01*
X35649Y-22240D02*
X34456Y-23433D01*
X35649Y-17224D02*
X35649Y-22240D01*
X33994Y-26950D02*
X33779Y-27165D01*
G54D35*
X31200Y-28641D02*
X31279Y-28720D01*
X29330Y-28641D02*
X31200Y-28641D01*
G54D38*
X34751Y-23547D02*
X34751Y-25204D01*
X34751Y-25204D02*
X34316Y-25639D01*
X34316Y-25639D02*
X34316Y-27100D01*
X40431Y-15915D02*
X37312Y-15915D01*
X40944Y-16429D02*
X40431Y-15915D01*
X34751Y-23547D02*
X35901Y-22397D01*
X35901Y-22397D02*
X35901Y-17326D01*
X35901Y-17326D02*
X37312Y-15915D01*
X34316Y-27100D02*
X34232Y-27185D01*
G54D35*
X33110Y-29035D02*
X32677Y-29035D01*
X33267Y-29192D02*
X33110Y-29035D01*
G54D38*
X34586Y-27153D02*
X34811Y-27377D01*
X34566Y-28838D02*
X33248Y-28838D01*
X34811Y-28594D02*
X34566Y-28838D01*
X34811Y-27377D02*
X34811Y-28594D01*
X35049Y-23631D02*
X35049Y-25332D01*
X35049Y-25332D02*
X34586Y-25795D01*
G54D35*
X32677Y-28838D02*
X33248Y-28838D01*
G54D38*
X34586Y-27153D02*
X34586Y-25795D01*
X37192Y-16429D02*
X36151Y-17470D01*
X37192Y-16429D02*
X38582Y-16429D01*
X36151Y-22529D02*
X36151Y-17470D01*
X35049Y-23631D02*
X36151Y-22529D01*
X29744Y-34192D02*
X30590Y-35039D01*
X29744Y-31712D02*
X30118Y-31338D01*
X29744Y-34192D02*
X29744Y-31712D01*
G54D35*
X30462Y-28838D02*
X30551Y-28927D01*
X29330Y-28838D02*
X30462Y-28838D01*
G54D38*
X31496Y-35039D02*
X32913Y-36456D01*
X30590Y-35039D02*
X31496Y-35039D01*
X38354Y-36456D02*
X38582Y-36228D01*
X32913Y-36456D02*
X38354Y-36456D01*
X29448Y-34271D02*
X30511Y-35334D01*
G54D35*
X29330Y-29035D02*
X30216Y-29035D01*
X30216Y-29035D02*
X30531Y-29350D01*
G54D38*
X29448Y-31397D02*
X29606Y-31240D01*
X29448Y-34271D02*
X29448Y-31397D01*
X31377Y-35334D02*
X32795Y-36751D01*
X30511Y-35334D02*
X31377Y-35334D01*
X40421Y-36751D02*
X32795Y-36751D01*
X40944Y-36228D02*
X40421Y-36751D01*
X29153Y-34409D02*
X30374Y-35629D01*
X29153Y-31200D02*
X29488Y-30866D01*
X29153Y-34409D02*
X29153Y-31200D01*
G54D35*
X30127Y-29429D02*
X30167Y-29468D01*
X29330Y-29429D02*
X30127Y-29429D01*
G54D38*
X31259Y-35629D02*
X32637Y-37007D01*
X30374Y-35629D02*
X31259Y-35629D01*
X43307Y-36228D02*
X42527Y-37007D01*
X42527Y-37007D02*
X32637Y-37007D01*
X28838Y-34527D02*
X30216Y-35905D01*
X28838Y-31767D02*
X28838Y-34527D01*
X29468Y-30433D02*
X29468Y-30413D01*
X28838Y-31062D02*
X29468Y-30433D01*
G54D35*
X29330Y-29625D02*
X29783Y-29625D01*
X29783Y-29625D02*
X29921Y-29763D01*
G54D38*
X28838Y-31767D02*
X28838Y-31062D01*
X31062Y-35905D02*
X31968Y-36811D01*
X30216Y-35905D02*
X31062Y-35905D01*
G54D35*
X30019Y-28129D02*
X29744Y-27854D01*
X29330Y-27854D02*
X29744Y-27854D01*
X30314Y-27263D02*
X30314Y-27736D01*
X30314Y-27736D02*
X30590Y-28011D01*
G54D39*
X28311Y-34433D02*
X28385Y-34507D01*
X29877Y-36196D02*
X29877Y-36476D01*
X29527Y-35846D02*
X29877Y-36196D01*
X29035Y-35846D02*
X29527Y-35846D01*
X28385Y-35196D02*
X29035Y-35846D01*
X28385Y-34507D02*
X28385Y-35196D01*
X26437Y-33169D02*
X28110Y-33169D01*
X28110Y-33169D02*
X28425Y-32854D01*
G54D37*
X27618Y-32027D02*
X28307Y-32027D01*
G54D35*
X29330Y-29822D02*
X28291Y-29822D01*
X28291Y-29822D02*
X28248Y-29779D01*
G54D40*
X25295Y-30866D02*
X25255Y-30826D01*
X25295Y-31244D02*
X25295Y-30866D01*
X25255Y-30826D02*
X25590Y-30826D01*
X24921Y-30826D02*
X25255Y-30826D01*
G54D39*
X26437Y-33169D02*
X25964Y-33169D01*
X26137Y-34267D02*
X26137Y-34547D01*
X25846Y-33976D02*
X26137Y-34267D01*
X25846Y-33287D02*
X25846Y-33976D01*
X25964Y-33169D02*
X25846Y-33287D01*
G54D37*
X27602Y-31397D02*
X27602Y-32011D01*
X27602Y-32011D02*
X27618Y-32027D01*
X27602Y-31397D02*
X27602Y-31059D01*
X28248Y-30413D02*
X28248Y-29779D01*
X27602Y-31059D02*
X28248Y-30413D01*
X26574Y-31244D02*
X27448Y-31244D01*
X27448Y-31244D02*
X27602Y-31397D01*
G54D41*
X26968Y-29370D02*
X27500Y-29370D01*
X27500Y-29370D02*
X27909Y-29779D01*
X27909Y-29779D02*
X28248Y-29779D01*
G54D37*
X26137Y-34547D02*
X26137Y-34720D01*
X26137Y-34720D02*
X26594Y-35177D01*
G54D35*
X30118Y-27263D02*
X30118Y-26574D01*
G54D36*
X30059Y-26082D02*
X30334Y-26358D01*
X30059Y-26082D02*
X29877Y-26082D01*
G54D35*
X30118Y-26574D02*
X30334Y-26358D01*
G54D36*
X32141Y-24901D02*
X32141Y-24169D01*
X32047Y-24074D02*
X32047Y-23622D01*
X32141Y-24169D02*
X32047Y-24074D01*
X32047Y-23622D02*
X32047Y-18110D01*
G54D37*
X33956Y-27657D02*
X33956Y-27984D01*
X36114Y-29755D02*
X36417Y-30059D01*
X35157Y-29755D02*
X36114Y-29755D01*
X34700Y-29299D02*
X35157Y-29755D01*
X33956Y-27984D02*
X34385Y-28413D01*
X36559Y-22145D02*
X36559Y-22830D01*
X36559Y-22830D02*
X36496Y-22893D01*
G54D39*
X37696Y-23204D02*
X37696Y-23622D01*
X37637Y-23681D02*
X36377Y-23681D01*
X37696Y-23622D02*
X37637Y-23681D01*
G54D42*
X45078Y-28897D02*
X46240Y-28897D01*
X45078Y-29354D02*
X45078Y-28897D01*
X37696Y-21929D02*
X37834Y-21791D01*
X37696Y-23204D02*
X37696Y-21929D01*
G54D37*
X36559Y-32283D02*
X36559Y-33464D01*
X36559Y-33464D02*
X36559Y-34645D01*
X36039Y-32283D02*
X36559Y-32283D01*
X36019Y-32303D02*
X36039Y-32283D01*
X30259Y-32086D02*
X30259Y-31807D01*
X31814Y-32681D02*
X31834Y-32681D01*
X30259Y-31807D02*
X30590Y-31476D01*
G54D35*
X32677Y-28051D02*
X33562Y-28051D01*
X33562Y-28051D02*
X33956Y-27657D01*
G54D42*
X45078Y-29354D02*
X45078Y-30688D01*
X45078Y-30688D02*
X44940Y-30826D01*
G54D35*
X31299Y-30610D02*
X31299Y-31102D01*
X31834Y-31637D02*
X31834Y-32086D01*
X31299Y-31102D02*
X31834Y-31637D01*
G54D37*
X30807Y-34448D02*
X31834Y-34448D01*
X30669Y-34586D02*
X30807Y-34448D01*
X33606Y-35629D02*
X33606Y-35039D01*
X33606Y-35039D02*
X33606Y-34411D01*
X33606Y-34411D02*
X33647Y-34370D01*
X31834Y-32086D02*
X31834Y-32681D01*
X31834Y-32681D02*
X31834Y-33267D01*
X31834Y-33267D02*
X31834Y-34448D01*
G54D38*
X35137Y-26728D02*
X35137Y-27322D01*
G54D35*
X31889Y-29527D02*
X31889Y-30610D01*
X31968Y-29448D02*
X31889Y-29527D01*
G54D39*
X29177Y-36476D02*
X28385Y-35685D01*
X28385Y-35685D02*
X27755Y-35685D01*
G54D36*
X27755Y-35685D02*
X27535Y-35685D01*
X27106Y-35255D02*
X27106Y-34960D01*
X27535Y-35685D02*
X27106Y-35255D01*
G54D41*
X26968Y-28110D02*
X26141Y-28110D01*
X26141Y-28110D02*
X26062Y-28031D01*
G54D36*
X27909Y-33858D02*
X27909Y-34830D01*
X27909Y-34830D02*
X27755Y-34984D01*
G54D35*
X29330Y-29232D02*
X28838Y-29232D01*
X28838Y-29232D02*
X28685Y-29078D01*
X28685Y-29078D02*
X28248Y-29078D01*
G54D42*
X37322Y-23204D02*
X37322Y-22208D01*
X37322Y-22208D02*
X37259Y-22145D01*
G54D37*
X37259Y-22145D02*
X37259Y-21259D01*
X37259Y-21259D02*
X37401Y-21118D01*
X45515Y-30413D02*
X45515Y-31200D01*
X45515Y-31200D02*
X45275Y-31440D01*
G54D42*
X45452Y-29354D02*
X45452Y-30350D01*
X45452Y-30350D02*
X45515Y-30413D01*
G54D37*
X35629Y-24562D02*
X35629Y-25535D01*
X35629Y-25535D02*
X35137Y-26027D01*
G54D35*
X29330Y-30019D02*
X28937Y-30019D01*
X28677Y-30279D02*
X28677Y-30614D01*
X28937Y-30019D02*
X28677Y-30279D01*
G54D37*
X28303Y-31397D02*
X28303Y-30988D01*
X28303Y-30988D02*
X28677Y-30614D01*
G54D36*
X28677Y-28377D02*
X28677Y-27523D01*
X29177Y-27023D02*
X28677Y-27523D01*
X29177Y-26771D02*
X29177Y-27023D01*
G54D35*
X29921Y-27263D02*
X29921Y-26968D01*
X29724Y-26771D02*
X29177Y-26771D01*
X29921Y-26968D02*
X29724Y-26771D01*
G54D36*
X29177Y-26082D02*
X29177Y-26771D01*
X29177Y-26082D02*
X29177Y-25153D01*
X29177Y-25153D02*
X29429Y-24901D01*
X29866Y-24901D02*
X29429Y-24901D01*
X31456Y-23622D02*
X31456Y-24311D01*
X31456Y-24311D02*
X31456Y-24885D01*
X31456Y-24885D02*
X31440Y-24901D01*
G54D35*
X32677Y-27854D02*
X32003Y-27854D01*
G54D37*
X31377Y-29940D02*
X31377Y-29409D01*
X32606Y-30570D02*
X32535Y-30641D01*
X32535Y-30641D02*
X32535Y-31259D01*
X31377Y-29409D02*
X31968Y-28818D01*
X31968Y-28818D02*
X31968Y-27889D01*
G54D35*
X32003Y-27854D02*
X31968Y-27889D01*
X31496Y-30610D02*
X31496Y-31003D01*
X31751Y-31259D02*
X32535Y-31259D01*
X31496Y-31003D02*
X31751Y-31259D01*
G54D37*
X32535Y-31259D02*
X32535Y-32086D01*
X36417Y-31059D02*
X35259Y-31059D01*
X35259Y-31059D02*
X34547Y-31770D01*
X30259Y-33267D02*
X30259Y-33940D01*
X30259Y-33940D02*
X30334Y-34015D01*
G54D10*
G36*
X47460Y-20787D02*
X46240Y-20787D01*
X46240Y-18316D01*
X46153Y-18106D01*
X45993Y-17945D01*
X45783Y-17858D01*
X45556Y-17858D01*
X45346Y-17944D01*
X45185Y-18105D01*
X45098Y-18315D01*
X45098Y-18542D01*
X45185Y-18752D01*
X45345Y-18912D01*
X45555Y-18999D01*
X45782Y-19000D01*
X45992Y-18913D01*
X46152Y-18752D01*
X46240Y-18543D01*
X46240Y-18316D01*
X46240Y-20787D01*
X43878Y-20787D01*
X43878Y-18316D01*
X43791Y-18106D01*
X43630Y-17945D01*
X43421Y-17858D01*
X43194Y-17858D01*
X42984Y-17944D01*
X42823Y-18105D01*
X42736Y-18315D01*
X42736Y-18542D01*
X42822Y-18752D01*
X42983Y-18912D01*
X43193Y-18999D01*
X43420Y-19000D01*
X43630Y-18913D01*
X43790Y-18752D01*
X43877Y-18543D01*
X43878Y-18316D01*
X43878Y-20787D01*
X41515Y-20787D01*
X41515Y-18316D01*
X41429Y-18106D01*
X41268Y-17945D01*
X41058Y-17858D01*
X40831Y-17858D01*
X40621Y-17944D01*
X40461Y-18105D01*
X40374Y-18315D01*
X40373Y-18542D01*
X40460Y-18752D01*
X40621Y-18912D01*
X40830Y-18999D01*
X41057Y-19000D01*
X41267Y-18913D01*
X41428Y-18752D01*
X41515Y-18543D01*
X41515Y-18316D01*
X41515Y-20787D01*
X39153Y-20787D01*
X39153Y-18316D01*
X39066Y-18106D01*
X38906Y-17945D01*
X38696Y-17858D01*
X38469Y-17858D01*
X38259Y-17944D01*
X38099Y-18105D01*
X38011Y-18315D01*
X38011Y-18542D01*
X38098Y-18752D01*
X38258Y-18912D01*
X38468Y-18999D01*
X38695Y-19000D01*
X38905Y-18913D01*
X39066Y-18752D01*
X39153Y-18543D01*
X39153Y-18316D01*
X39153Y-20787D01*
X38169Y-20787D01*
X38169Y-20590D01*
X37086Y-20590D01*
X37086Y-17355D01*
X37434Y-17007D01*
X46633Y-17007D01*
X46633Y-16811D01*
X47460Y-16811D01*
X47460Y-20787D01*
X47460Y-20787D01*
G37*
G54D38*
X47460Y-20787D02*
X46240Y-20787D01*
X46240Y-18316D01*
X46153Y-18106D01*
X45993Y-17945D01*
X45783Y-17858D01*
X45556Y-17858D01*
X45346Y-17944D01*
X45185Y-18105D01*
X45098Y-18315D01*
X45098Y-18542D01*
X45185Y-18752D01*
X45345Y-18912D01*
X45555Y-18999D01*
X45782Y-19000D01*
X45992Y-18913D01*
X46152Y-18752D01*
X46240Y-18543D01*
X46240Y-18316D01*
X46240Y-20787D01*
X43878Y-20787D01*
X43878Y-18316D01*
X43791Y-18106D01*
X43630Y-17945D01*
X43421Y-17858D01*
X43194Y-17858D01*
X42984Y-17944D01*
X42823Y-18105D01*
X42736Y-18315D01*
X42736Y-18542D01*
X42822Y-18752D01*
X42983Y-18912D01*
X43193Y-18999D01*
X43420Y-19000D01*
X43630Y-18913D01*
X43790Y-18752D01*
X43877Y-18543D01*
X43878Y-18316D01*
X43878Y-20787D01*
X41515Y-20787D01*
X41515Y-18316D01*
X41429Y-18106D01*
X41268Y-17945D01*
X41058Y-17858D01*
X40831Y-17858D01*
X40621Y-17944D01*
X40461Y-18105D01*
X40374Y-18315D01*
X40373Y-18542D01*
X40460Y-18752D01*
X40621Y-18912D01*
X40830Y-18999D01*
X41057Y-19000D01*
X41267Y-18913D01*
X41428Y-18752D01*
X41515Y-18543D01*
X41515Y-18316D01*
X41515Y-20787D01*
X39153Y-20787D01*
X39153Y-18316D01*
X39066Y-18106D01*
X38906Y-17945D01*
X38696Y-17858D01*
X38469Y-17858D01*
X38259Y-17944D01*
X38099Y-18105D01*
X38011Y-18315D01*
X38011Y-18542D01*
X38098Y-18752D01*
X38258Y-18912D01*
X38468Y-18999D01*
X38695Y-19000D01*
X38905Y-18913D01*
X39066Y-18752D01*
X39153Y-18543D01*
X39153Y-18316D01*
X39153Y-20787D01*
X38169Y-20787D01*
X38169Y-20590D01*
X37086Y-20590D01*
X37086Y-17355D01*
X37434Y-17007D01*
X46633Y-17007D01*
X46633Y-16811D01*
X47460Y-16811D01*
X47460Y-20787D01*
G54D10*
G36*
X45609Y-28539D02*
X45191Y-28539D01*
X45153Y-28523D01*
X45004Y-28523D01*
X44867Y-28580D01*
X44785Y-28661D01*
X37640Y-28661D01*
X37086Y-27830D01*
X37086Y-24035D01*
X37637Y-24035D01*
X37773Y-24008D01*
X37888Y-23931D01*
X37922Y-23897D01*
X45590Y-23897D01*
X45609Y-28539D01*
X45609Y-28539D01*
G37*
G54D38*
X45609Y-28539D02*
X45191Y-28539D01*
X45153Y-28523D01*
X45004Y-28523D01*
X44867Y-28580D01*
X44785Y-28661D01*
X37640Y-28661D01*
X37086Y-27830D01*
X37086Y-24035D01*
X37637Y-24035D01*
X37773Y-24008D01*
X37888Y-23931D01*
X37922Y-23897D01*
X45590Y-23897D01*
X45609Y-28539D01*
G54D10*
G36*
X45393Y-23543D02*
X38051Y-23543D01*
X38051Y-23501D01*
X38055Y-23492D01*
X38055Y-23398D01*
X38055Y-22917D01*
X38055Y-22917D01*
X38055Y-22807D01*
X39292Y-21102D01*
X45393Y-21102D01*
X45393Y-23543D01*
X45393Y-23543D01*
G37*
G54D38*
X45393Y-23543D02*
X38051Y-23543D01*
X38051Y-23501D01*
X38055Y-23492D01*
X38055Y-23398D01*
X38055Y-22917D01*
X38055Y-22917D01*
X38055Y-22807D01*
X39292Y-21102D01*
X45393Y-21102D01*
X45393Y-23543D01*
G54D10*
G36*
X44744Y-29661D02*
X43481Y-31555D01*
X37677Y-31555D01*
X37677Y-29015D01*
X44744Y-29015D01*
X44744Y-29661D01*
X44744Y-29661D01*
G37*
G54D38*
X44744Y-29661D02*
X43481Y-31555D01*
X37677Y-31555D01*
X37677Y-29015D01*
X44744Y-29015D01*
X44744Y-29661D01*
G54D10*
G36*
X47460Y-35649D02*
X46240Y-35649D01*
X46240Y-34115D01*
X46153Y-33905D01*
X45993Y-33744D01*
X45783Y-33657D01*
X45556Y-33657D01*
X45346Y-33744D01*
X45185Y-33904D01*
X45098Y-34114D01*
X45098Y-34341D01*
X45185Y-34551D01*
X45345Y-34712D01*
X45555Y-34799D01*
X45782Y-34799D01*
X45992Y-34712D01*
X46152Y-34552D01*
X46240Y-34342D01*
X46240Y-34115D01*
X46240Y-35649D01*
X43878Y-35649D01*
X43878Y-34115D01*
X43791Y-33905D01*
X43630Y-33744D01*
X43421Y-33657D01*
X43194Y-33657D01*
X42984Y-33744D01*
X42823Y-33904D01*
X42736Y-34114D01*
X42736Y-34341D01*
X42822Y-34551D01*
X42983Y-34712D01*
X43193Y-34799D01*
X43420Y-34799D01*
X43630Y-34712D01*
X43790Y-34552D01*
X43877Y-34342D01*
X43878Y-34115D01*
X43878Y-35649D01*
X41515Y-35649D01*
X41515Y-34115D01*
X41429Y-33905D01*
X41268Y-33744D01*
X41058Y-33657D01*
X40831Y-33657D01*
X40621Y-33744D01*
X40461Y-33904D01*
X40374Y-34114D01*
X40373Y-34341D01*
X40460Y-34551D01*
X40621Y-34712D01*
X40830Y-34799D01*
X41057Y-34799D01*
X41267Y-34712D01*
X41428Y-34552D01*
X41515Y-34342D01*
X41515Y-34115D01*
X41515Y-35649D01*
X39153Y-35649D01*
X39153Y-34115D01*
X39066Y-33905D01*
X38906Y-33744D01*
X38696Y-33657D01*
X38469Y-33657D01*
X38259Y-33744D01*
X38099Y-33904D01*
X38011Y-34114D01*
X38011Y-34341D01*
X38098Y-34551D01*
X38258Y-34712D01*
X38468Y-34799D01*
X38695Y-34799D01*
X38905Y-34712D01*
X39066Y-34552D01*
X39153Y-34342D01*
X39153Y-34115D01*
X39153Y-35649D01*
X35216Y-35649D01*
X35216Y-34035D01*
X35846Y-34035D01*
X35846Y-35314D01*
X37086Y-35314D01*
X37086Y-31870D01*
X44665Y-31870D01*
X44665Y-31968D01*
X45944Y-31968D01*
X45944Y-31476D01*
X47460Y-31476D01*
X47460Y-35649D01*
X47460Y-35649D01*
G37*
G54D38*
X47460Y-35649D02*
X46240Y-35649D01*
X46240Y-34115D01*
X46153Y-33905D01*
X45993Y-33744D01*
X45783Y-33657D01*
X45556Y-33657D01*
X45346Y-33744D01*
X45185Y-33904D01*
X45098Y-34114D01*
X45098Y-34341D01*
X45185Y-34551D01*
X45345Y-34712D01*
X45555Y-34799D01*
X45782Y-34799D01*
X45992Y-34712D01*
X46152Y-34552D01*
X46240Y-34342D01*
X46240Y-34115D01*
X46240Y-35649D01*
X43878Y-35649D01*
X43878Y-34115D01*
X43791Y-33905D01*
X43630Y-33744D01*
X43421Y-33657D01*
X43194Y-33657D01*
X42984Y-33744D01*
X42823Y-33904D01*
X42736Y-34114D01*
X42736Y-34341D01*
X42822Y-34551D01*
X42983Y-34712D01*
X43193Y-34799D01*
X43420Y-34799D01*
X43630Y-34712D01*
X43790Y-34552D01*
X43877Y-34342D01*
X43878Y-34115D01*
X43878Y-35649D01*
X41515Y-35649D01*
X41515Y-34115D01*
X41429Y-33905D01*
X41268Y-33744D01*
X41058Y-33657D01*
X40831Y-33657D01*
X40621Y-33744D01*
X40461Y-33904D01*
X40374Y-34114D01*
X40373Y-34341D01*
X40460Y-34551D01*
X40621Y-34712D01*
X40830Y-34799D01*
X41057Y-34799D01*
X41267Y-34712D01*
X41428Y-34552D01*
X41515Y-34342D01*
X41515Y-34115D01*
X41515Y-35649D01*
X39153Y-35649D01*
X39153Y-34115D01*
X39066Y-33905D01*
X38906Y-33744D01*
X38696Y-33657D01*
X38469Y-33657D01*
X38259Y-33744D01*
X38099Y-33904D01*
X38011Y-34114D01*
X38011Y-34341D01*
X38098Y-34551D01*
X38258Y-34712D01*
X38468Y-34799D01*
X38695Y-34799D01*
X38905Y-34712D01*
X39066Y-34552D01*
X39153Y-34342D01*
X39153Y-34115D01*
X39153Y-35649D01*
X35216Y-35649D01*
X35216Y-34035D01*
X35846Y-34035D01*
X35846Y-35314D01*
X37086Y-35314D01*
X37086Y-31870D01*
X44665Y-31870D01*
X44665Y-31968D01*
X45944Y-31968D01*
X45944Y-31476D01*
X47460Y-31476D01*
X47460Y-35649D01*
G54D10*
G36*
X47460Y-25807D02*
X45944Y-25807D01*
X45944Y-23543D01*
X45748Y-23543D01*
X45748Y-21102D01*
X47460Y-21102D01*
X47460Y-25807D01*
X47460Y-25807D01*
G37*
G54D38*
X47460Y-25807D02*
X45944Y-25807D01*
X45944Y-23543D01*
X45748Y-23543D01*
X45748Y-21102D01*
X47460Y-21102D01*
X47460Y-25807D01*
G54D10*
G36*
X27145Y-32502D02*
X26773Y-32814D01*
X26653Y-32814D01*
X26606Y-32814D01*
X26173Y-32814D01*
X26173Y-32814D01*
X26023Y-32814D01*
X26023Y-31791D01*
X27145Y-31791D01*
X27145Y-32502D01*
X27145Y-32502D01*
G37*
G54D38*
X27145Y-32502D02*
X26773Y-32814D01*
X26653Y-32814D01*
X26606Y-32814D01*
X26173Y-32814D01*
X26173Y-32814D01*
X26023Y-32814D01*
X26023Y-31791D01*
X27145Y-31791D01*
X27145Y-32502D01*
G54D10*
G36*
X27440Y-34547D02*
X27358Y-34547D01*
X27358Y-34547D01*
X26594Y-34547D01*
X26594Y-33996D01*
X26471Y-33996D01*
X26385Y-33960D01*
X26331Y-33960D01*
X26200Y-33829D01*
X26200Y-33523D01*
X26220Y-33523D01*
X26267Y-33523D01*
X26700Y-33523D01*
X26700Y-33523D01*
X27440Y-33523D01*
X27440Y-34547D01*
X27440Y-34547D01*
G37*
G54D38*
X27440Y-34547D02*
X27358Y-34547D01*
X27358Y-34547D01*
X26594Y-34547D01*
X26594Y-33996D01*
X26471Y-33996D01*
X26385Y-33960D01*
X26331Y-33960D01*
X26200Y-33829D01*
X26200Y-33523D01*
X26220Y-33523D01*
X26267Y-33523D01*
X26700Y-33523D01*
X26700Y-33523D01*
X27440Y-33523D01*
X27440Y-34547D01*
G54D10*
G36*
X25669Y-34881D02*
X24665Y-34881D01*
X24665Y-33346D01*
X25492Y-33346D01*
X25492Y-33976D01*
X25519Y-34111D01*
X25595Y-34226D01*
X25669Y-34300D01*
X25669Y-34881D01*
X25669Y-34881D01*
G37*
G54D38*
X25669Y-34881D02*
X24665Y-34881D01*
X24665Y-33346D01*
X25492Y-33346D01*
X25492Y-33976D01*
X25519Y-34111D01*
X25595Y-34226D01*
X25669Y-34300D01*
X25669Y-34881D01*
G54D10*
G36*
X25669Y-32963D02*
X25640Y-32992D01*
X24665Y-32992D01*
X24665Y-31791D01*
X25669Y-31791D01*
X25669Y-32963D01*
X25669Y-32963D01*
G37*
G54D38*
X25669Y-32963D02*
X25640Y-32992D01*
X24665Y-32992D01*
X24665Y-31791D01*
X25669Y-31791D01*
X25669Y-32963D01*
G54D10*
G36*
X29357Y-35492D02*
X29182Y-35492D01*
X28740Y-35050D01*
X28740Y-34874D01*
X29357Y-35492D01*
X29357Y-35492D01*
G37*
G54D38*
X29357Y-35492D02*
X29182Y-35492D01*
X28740Y-35050D01*
X28740Y-34874D01*
X29357Y-35492D01*
G54D10*
G36*
X30423Y-26791D02*
X30411Y-26791D01*
X30411Y-26791D01*
X30321Y-26791D01*
X30215Y-26791D01*
X30155Y-26815D01*
X30155Y-26815D01*
X30123Y-26766D01*
X30123Y-26766D01*
X29926Y-26569D01*
X29833Y-26507D01*
X29815Y-26504D01*
X29724Y-26486D01*
X29611Y-26486D01*
X29614Y-26480D01*
X29614Y-26386D01*
X29614Y-25685D01*
X29578Y-25598D01*
X29570Y-25591D01*
X29570Y-25468D01*
X29618Y-25488D01*
X29712Y-25488D01*
X30113Y-25488D01*
X30200Y-25452D01*
X30206Y-25446D01*
X30206Y-25866D01*
X30224Y-25957D01*
X30228Y-25975D01*
X30290Y-26067D01*
X30423Y-26200D01*
X30423Y-26791D01*
X30423Y-26791D01*
G37*
G54D38*
X30423Y-26791D02*
X30411Y-26791D01*
X30411Y-26791D01*
X30321Y-26791D01*
X30215Y-26791D01*
X30155Y-26815D01*
X30155Y-26815D01*
X30123Y-26766D01*
X30123Y-26766D01*
X29926Y-26569D01*
X29833Y-26507D01*
X29815Y-26504D01*
X29724Y-26486D01*
X29611Y-26486D01*
X29614Y-26480D01*
X29614Y-26386D01*
X29614Y-25685D01*
X29578Y-25598D01*
X29570Y-25591D01*
X29570Y-25468D01*
X29618Y-25488D01*
X29712Y-25488D01*
X30113Y-25488D01*
X30200Y-25452D01*
X30206Y-25446D01*
X30206Y-25866D01*
X30224Y-25957D01*
X30228Y-25975D01*
X30290Y-26067D01*
X30423Y-26200D01*
X30423Y-26791D01*
G54D10*
G36*
X30472Y-24314D02*
X30319Y-24314D01*
X30232Y-24350D01*
X30216Y-24366D01*
X30200Y-24351D01*
X30114Y-24315D01*
X30020Y-24314D01*
X29618Y-24314D01*
X29531Y-24350D01*
X29465Y-24417D01*
X29429Y-24503D01*
X29429Y-24507D01*
X29429Y-24507D01*
X29278Y-24537D01*
X29278Y-24537D01*
X29278Y-24537D01*
X29246Y-24559D01*
X29150Y-24623D01*
X29150Y-24623D01*
X28898Y-24875D01*
X28813Y-25002D01*
X28783Y-25153D01*
X28783Y-25591D01*
X28776Y-25598D01*
X28740Y-25685D01*
X28740Y-25779D01*
X28740Y-26479D01*
X28776Y-26566D01*
X28783Y-26574D01*
X28783Y-26771D01*
X28783Y-26860D01*
X28398Y-27245D01*
X28313Y-27372D01*
X28283Y-27523D01*
X28283Y-28377D01*
X28313Y-28528D01*
X28388Y-28641D01*
X27850Y-28641D01*
X27764Y-28677D01*
X27697Y-28743D01*
X27661Y-28830D01*
X27661Y-28924D01*
X27661Y-29326D01*
X27697Y-29413D01*
X27763Y-29479D01*
X27850Y-29515D01*
X27944Y-29515D01*
X28645Y-29515D01*
X28715Y-29486D01*
X28729Y-29495D01*
X28729Y-29495D01*
X28838Y-29517D01*
X28858Y-29517D01*
X28858Y-29529D01*
X28858Y-29529D01*
X28858Y-29619D01*
X28858Y-29725D01*
X28867Y-29748D01*
X28827Y-29755D01*
X28827Y-29755D01*
X28827Y-29755D01*
X28735Y-29817D01*
X28475Y-30077D01*
X28413Y-30170D01*
X28409Y-30188D01*
X28391Y-30279D01*
X28391Y-30317D01*
X28384Y-30321D01*
X28010Y-30695D01*
X27921Y-30829D01*
X27905Y-30910D01*
X27902Y-30913D01*
X27866Y-31000D01*
X27866Y-31094D01*
X27866Y-31794D01*
X27901Y-31881D01*
X27968Y-31948D01*
X28055Y-31984D01*
X28149Y-31984D01*
X28523Y-31984D01*
X28523Y-34116D01*
X28523Y-34116D01*
X28385Y-34059D01*
X28346Y-34059D01*
X28346Y-33461D01*
X28310Y-33374D01*
X28244Y-33307D01*
X28157Y-33271D01*
X28063Y-33271D01*
X27755Y-33271D01*
X27755Y-33149D01*
X27657Y-33149D01*
X27657Y-30543D01*
X27657Y-29756D01*
X27621Y-29669D01*
X27555Y-29603D01*
X27468Y-29566D01*
X27374Y-29566D01*
X26468Y-29566D01*
X26382Y-29602D01*
X26315Y-29669D01*
X26279Y-29755D01*
X26279Y-29849D01*
X26279Y-30637D01*
X26315Y-30724D01*
X26381Y-30790D01*
X26468Y-30826D01*
X26562Y-30826D01*
X27468Y-30826D01*
X27554Y-30790D01*
X27621Y-30724D01*
X27657Y-30637D01*
X27657Y-30543D01*
X27657Y-33149D01*
X26865Y-33149D01*
X27460Y-32649D01*
X27460Y-31476D01*
X25984Y-31476D01*
X25708Y-31476D01*
X24665Y-31476D01*
X24665Y-30809D01*
X24706Y-30826D01*
X24800Y-30826D01*
X25489Y-30826D01*
X25706Y-30826D01*
X25793Y-30790D01*
X25859Y-30724D01*
X25895Y-30637D01*
X25895Y-30543D01*
X25895Y-29756D01*
X25859Y-29669D01*
X25793Y-29603D01*
X25706Y-29566D01*
X25612Y-29566D01*
X25396Y-29566D01*
X24707Y-29566D01*
X24665Y-29584D01*
X24665Y-27896D01*
X24706Y-27913D01*
X24800Y-27913D01*
X25489Y-27913D01*
X25551Y-27913D01*
X25551Y-28582D01*
X26284Y-28582D01*
X26279Y-28594D01*
X26279Y-28688D01*
X26279Y-28885D01*
X26284Y-28897D01*
X26279Y-28909D01*
X26279Y-29003D01*
X26279Y-29200D01*
X26315Y-29287D01*
X26381Y-29353D01*
X26468Y-29389D01*
X26562Y-29389D01*
X27468Y-29389D01*
X27554Y-29353D01*
X27621Y-29287D01*
X27657Y-29200D01*
X27657Y-29106D01*
X27657Y-28909D01*
X27652Y-28897D01*
X27657Y-28885D01*
X27657Y-28791D01*
X27657Y-28594D01*
X27652Y-28582D01*
X27657Y-28570D01*
X27657Y-28476D01*
X27657Y-28444D01*
X27696Y-28444D01*
X27696Y-27519D01*
X27657Y-27519D01*
X27657Y-26842D01*
X27621Y-26756D01*
X27555Y-26689D01*
X27468Y-26653D01*
X27374Y-26653D01*
X26468Y-26653D01*
X26382Y-26689D01*
X26315Y-26755D01*
X26279Y-26842D01*
X26279Y-26936D01*
X26279Y-27519D01*
X25895Y-27519D01*
X25895Y-26842D01*
X25859Y-26756D01*
X25793Y-26689D01*
X25706Y-26653D01*
X25612Y-26653D01*
X25396Y-26653D01*
X24707Y-26653D01*
X24665Y-26670D01*
X24665Y-24820D01*
X24682Y-24845D01*
X25253Y-25416D01*
X25253Y-25416D01*
X25348Y-25480D01*
X25380Y-25501D01*
X25380Y-25501D01*
X25531Y-25531D01*
X26299Y-25531D01*
X26449Y-25501D01*
X26577Y-25416D01*
X26662Y-25288D01*
X26692Y-25137D01*
X26662Y-24987D01*
X26613Y-24913D01*
X26656Y-24884D01*
X26741Y-24756D01*
X26771Y-24606D01*
X26741Y-24455D01*
X26656Y-24327D01*
X26542Y-24251D01*
X26582Y-24252D01*
X26975Y-24252D01*
X27027Y-24230D01*
X27078Y-24251D01*
X27172Y-24252D01*
X27566Y-24252D01*
X27618Y-24230D01*
X27669Y-24251D01*
X27763Y-24252D01*
X28157Y-24252D01*
X28208Y-24230D01*
X28259Y-24251D01*
X28353Y-24252D01*
X28747Y-24252D01*
X28799Y-24230D01*
X28850Y-24251D01*
X28944Y-24252D01*
X29338Y-24252D01*
X29389Y-24230D01*
X29440Y-24251D01*
X29534Y-24252D01*
X29928Y-24252D01*
X29980Y-24230D01*
X30031Y-24251D01*
X30125Y-24252D01*
X30472Y-24252D01*
X30472Y-24314D01*
X30472Y-24314D01*
G37*
G54D38*
X30472Y-24314D02*
X30319Y-24314D01*
X30232Y-24350D01*
X30216Y-24366D01*
X30200Y-24351D01*
X30114Y-24315D01*
X30020Y-24314D01*
X29618Y-24314D01*
X29531Y-24350D01*
X29465Y-24417D01*
X29429Y-24503D01*
X29429Y-24507D01*
X29429Y-24507D01*
X29278Y-24537D01*
X29278Y-24537D01*
X29278Y-24537D01*
X29246Y-24559D01*
X29150Y-24623D01*
X29150Y-24623D01*
X28898Y-24875D01*
X28813Y-25002D01*
X28783Y-25153D01*
X28783Y-25591D01*
X28776Y-25598D01*
X28740Y-25685D01*
X28740Y-25779D01*
X28740Y-26479D01*
X28776Y-26566D01*
X28783Y-26574D01*
X28783Y-26771D01*
X28783Y-26860D01*
X28398Y-27245D01*
X28313Y-27372D01*
X28283Y-27523D01*
X28283Y-28377D01*
X28313Y-28528D01*
X28388Y-28641D01*
X27850Y-28641D01*
X27764Y-28677D01*
X27697Y-28743D01*
X27661Y-28830D01*
X27661Y-28924D01*
X27661Y-29326D01*
X27697Y-29413D01*
X27763Y-29479D01*
X27850Y-29515D01*
X27944Y-29515D01*
X28645Y-29515D01*
X28715Y-29486D01*
X28729Y-29495D01*
X28729Y-29495D01*
X28838Y-29517D01*
X28858Y-29517D01*
X28858Y-29529D01*
X28858Y-29529D01*
X28858Y-29619D01*
X28858Y-29725D01*
X28867Y-29748D01*
X28827Y-29755D01*
X28827Y-29755D01*
X28827Y-29755D01*
X28735Y-29817D01*
X28475Y-30077D01*
X28413Y-30170D01*
X28409Y-30188D01*
X28391Y-30279D01*
X28391Y-30317D01*
X28384Y-30321D01*
X28010Y-30695D01*
X27921Y-30829D01*
X27905Y-30910D01*
X27902Y-30913D01*
X27866Y-31000D01*
X27866Y-31094D01*
X27866Y-31794D01*
X27901Y-31881D01*
X27968Y-31948D01*
X28055Y-31984D01*
X28149Y-31984D01*
X28523Y-31984D01*
X28523Y-34116D01*
X28523Y-34116D01*
X28385Y-34059D01*
X28346Y-34059D01*
X28346Y-33461D01*
X28310Y-33374D01*
X28244Y-33307D01*
X28157Y-33271D01*
X28063Y-33271D01*
X27755Y-33271D01*
X27755Y-33149D01*
X27657Y-33149D01*
X27657Y-30543D01*
X27657Y-29756D01*
X27621Y-29669D01*
X27555Y-29603D01*
X27468Y-29566D01*
X27374Y-29566D01*
X26468Y-29566D01*
X26382Y-29602D01*
X26315Y-29669D01*
X26279Y-29755D01*
X26279Y-29849D01*
X26279Y-30637D01*
X26315Y-30724D01*
X26381Y-30790D01*
X26468Y-30826D01*
X26562Y-30826D01*
X27468Y-30826D01*
X27554Y-30790D01*
X27621Y-30724D01*
X27657Y-30637D01*
X27657Y-30543D01*
X27657Y-33149D01*
X26865Y-33149D01*
X27460Y-32649D01*
X27460Y-31476D01*
X25984Y-31476D01*
X25708Y-31476D01*
X24665Y-31476D01*
X24665Y-30809D01*
X24706Y-30826D01*
X24800Y-30826D01*
X25489Y-30826D01*
X25706Y-30826D01*
X25793Y-30790D01*
X25859Y-30724D01*
X25895Y-30637D01*
X25895Y-30543D01*
X25895Y-29756D01*
X25859Y-29669D01*
X25793Y-29603D01*
X25706Y-29566D01*
X25612Y-29566D01*
X25396Y-29566D01*
X24707Y-29566D01*
X24665Y-29584D01*
X24665Y-27896D01*
X24706Y-27913D01*
X24800Y-27913D01*
X25489Y-27913D01*
X25551Y-27913D01*
X25551Y-28582D01*
X26284Y-28582D01*
X26279Y-28594D01*
X26279Y-28688D01*
X26279Y-28885D01*
X26284Y-28897D01*
X26279Y-28909D01*
X26279Y-29003D01*
X26279Y-29200D01*
X26315Y-29287D01*
X26381Y-29353D01*
X26468Y-29389D01*
X26562Y-29389D01*
X27468Y-29389D01*
X27554Y-29353D01*
X27621Y-29287D01*
X27657Y-29200D01*
X27657Y-29106D01*
X27657Y-28909D01*
X27652Y-28897D01*
X27657Y-28885D01*
X27657Y-28791D01*
X27657Y-28594D01*
X27652Y-28582D01*
X27657Y-28570D01*
X27657Y-28476D01*
X27657Y-28444D01*
X27696Y-28444D01*
X27696Y-27519D01*
X27657Y-27519D01*
X27657Y-26842D01*
X27621Y-26756D01*
X27555Y-26689D01*
X27468Y-26653D01*
X27374Y-26653D01*
X26468Y-26653D01*
X26382Y-26689D01*
X26315Y-26755D01*
X26279Y-26842D01*
X26279Y-26936D01*
X26279Y-27519D01*
X25895Y-27519D01*
X25895Y-26842D01*
X25859Y-26756D01*
X25793Y-26689D01*
X25706Y-26653D01*
X25612Y-26653D01*
X25396Y-26653D01*
X24707Y-26653D01*
X24665Y-26670D01*
X24665Y-24820D01*
X24682Y-24845D01*
X25253Y-25416D01*
X25253Y-25416D01*
X25348Y-25480D01*
X25380Y-25501D01*
X25380Y-25501D01*
X25531Y-25531D01*
X26299Y-25531D01*
X26449Y-25501D01*
X26577Y-25416D01*
X26662Y-25288D01*
X26692Y-25137D01*
X26662Y-24987D01*
X26613Y-24913D01*
X26656Y-24884D01*
X26741Y-24756D01*
X26771Y-24606D01*
X26741Y-24455D01*
X26656Y-24327D01*
X26542Y-24251D01*
X26582Y-24252D01*
X26975Y-24252D01*
X27027Y-24230D01*
X27078Y-24251D01*
X27172Y-24252D01*
X27566Y-24252D01*
X27618Y-24230D01*
X27669Y-24251D01*
X27763Y-24252D01*
X28157Y-24252D01*
X28208Y-24230D01*
X28259Y-24251D01*
X28353Y-24252D01*
X28747Y-24252D01*
X28799Y-24230D01*
X28850Y-24251D01*
X28944Y-24252D01*
X29338Y-24252D01*
X29389Y-24230D01*
X29440Y-24251D01*
X29534Y-24252D01*
X29928Y-24252D01*
X29980Y-24230D01*
X30031Y-24251D01*
X30125Y-24252D01*
X30472Y-24252D01*
X30472Y-24314D01*
G54D10*
G36*
X30816Y-31166D02*
X30776Y-31182D01*
X30671Y-31287D01*
X30614Y-31425D01*
X30614Y-31547D01*
X30559Y-31602D01*
X30523Y-31689D01*
X30523Y-31783D01*
X30523Y-32483D01*
X30547Y-32541D01*
X30547Y-32697D01*
X30507Y-32681D01*
X30413Y-32681D01*
X30059Y-32681D01*
X30059Y-31843D01*
X30189Y-31712D01*
X30192Y-31712D01*
X30329Y-31655D01*
X30435Y-31550D01*
X30492Y-31413D01*
X30492Y-31264D01*
X30435Y-31126D01*
X30391Y-31082D01*
X30414Y-31082D01*
X30415Y-31082D01*
X30505Y-31082D01*
X30611Y-31082D01*
X30611Y-31082D01*
X30702Y-31082D01*
X30808Y-31082D01*
X30808Y-31082D01*
X30816Y-31082D01*
X30816Y-31166D01*
X30816Y-31166D01*
G37*
G54D38*
X30816Y-31166D02*
X30776Y-31182D01*
X30671Y-31287D01*
X30614Y-31425D01*
X30614Y-31547D01*
X30559Y-31602D01*
X30523Y-31689D01*
X30523Y-31783D01*
X30523Y-32483D01*
X30547Y-32541D01*
X30547Y-32697D01*
X30507Y-32681D01*
X30413Y-32681D01*
X30059Y-32681D01*
X30059Y-31843D01*
X30189Y-31712D01*
X30192Y-31712D01*
X30329Y-31655D01*
X30435Y-31550D01*
X30492Y-31413D01*
X30492Y-31264D01*
X30435Y-31126D01*
X30391Y-31082D01*
X30414Y-31082D01*
X30415Y-31082D01*
X30505Y-31082D01*
X30611Y-31082D01*
X30611Y-31082D01*
X30702Y-31082D01*
X30808Y-31082D01*
X30808Y-31082D01*
X30816Y-31082D01*
X30816Y-31166D01*
G54D10*
G36*
X32435Y-37244D02*
X24730Y-37244D01*
X24691Y-37236D01*
X24680Y-37229D01*
X24672Y-37217D01*
X24665Y-37179D01*
X24665Y-35196D01*
X25552Y-35196D01*
X25252Y-35320D01*
X24986Y-35586D01*
X24842Y-35933D01*
X24842Y-36309D01*
X24985Y-36656D01*
X25251Y-36922D01*
X25598Y-37066D01*
X25974Y-37067D01*
X26321Y-36923D01*
X26587Y-36657D01*
X26732Y-36310D01*
X26732Y-35934D01*
X26588Y-35587D01*
X26323Y-35321D01*
X25984Y-35180D01*
X25984Y-34311D01*
X26279Y-34311D01*
X26279Y-34862D01*
X26732Y-34862D01*
X26712Y-34960D01*
X26712Y-35255D01*
X26742Y-35406D01*
X26827Y-35534D01*
X27169Y-35875D01*
X27169Y-35932D01*
X27205Y-36019D01*
X27271Y-36085D01*
X27358Y-36122D01*
X27452Y-36122D01*
X28153Y-36122D01*
X28239Y-36086D01*
X28262Y-36063D01*
X28740Y-36540D01*
X28740Y-36873D01*
X28776Y-36960D01*
X28842Y-37026D01*
X28929Y-37062D01*
X29023Y-37063D01*
X29424Y-37063D01*
X29511Y-37027D01*
X29527Y-37011D01*
X29543Y-37026D01*
X29629Y-37062D01*
X29723Y-37063D01*
X30125Y-37063D01*
X30212Y-37027D01*
X30278Y-36960D01*
X30314Y-36873D01*
X30315Y-36779D01*
X30315Y-36220D01*
X30932Y-36220D01*
X31594Y-36882D01*
X31594Y-36885D01*
X31651Y-37022D01*
X31756Y-37127D01*
X31893Y-37184D01*
X32042Y-37185D01*
X32180Y-37128D01*
X32246Y-37061D01*
X32415Y-37230D01*
X32415Y-37230D01*
X32435Y-37244D01*
X32435Y-37244D01*
G37*
G54D38*
X32435Y-37244D02*
X24730Y-37244D01*
X24691Y-37236D01*
X24680Y-37229D01*
X24672Y-37217D01*
X24665Y-37179D01*
X24665Y-35196D01*
X25552Y-35196D01*
X25252Y-35320D01*
X24986Y-35586D01*
X24842Y-35933D01*
X24842Y-36309D01*
X24985Y-36656D01*
X25251Y-36922D01*
X25598Y-37066D01*
X25974Y-37067D01*
X26321Y-36923D01*
X26587Y-36657D01*
X26732Y-36310D01*
X26732Y-35934D01*
X26588Y-35587D01*
X26323Y-35321D01*
X25984Y-35180D01*
X25984Y-34311D01*
X26279Y-34311D01*
X26279Y-34862D01*
X26732Y-34862D01*
X26712Y-34960D01*
X26712Y-35255D01*
X26742Y-35406D01*
X26827Y-35534D01*
X27169Y-35875D01*
X27169Y-35932D01*
X27205Y-36019D01*
X27271Y-36085D01*
X27358Y-36122D01*
X27452Y-36122D01*
X28153Y-36122D01*
X28239Y-36086D01*
X28262Y-36063D01*
X28740Y-36540D01*
X28740Y-36873D01*
X28776Y-36960D01*
X28842Y-37026D01*
X28929Y-37062D01*
X29023Y-37063D01*
X29424Y-37063D01*
X29511Y-37027D01*
X29527Y-37011D01*
X29543Y-37026D01*
X29629Y-37062D01*
X29723Y-37063D01*
X30125Y-37063D01*
X30212Y-37027D01*
X30278Y-36960D01*
X30314Y-36873D01*
X30315Y-36779D01*
X30315Y-36220D01*
X30932Y-36220D01*
X31594Y-36882D01*
X31594Y-36885D01*
X31651Y-37022D01*
X31756Y-37127D01*
X31893Y-37184D01*
X32042Y-37185D01*
X32180Y-37128D01*
X32246Y-37061D01*
X32415Y-37230D01*
X32415Y-37230D01*
X32435Y-37244D01*
G54D10*
G36*
X33666Y-31062D02*
X32948Y-31062D01*
X32948Y-30788D01*
X32988Y-30729D01*
X33019Y-30570D01*
X32988Y-30412D01*
X32919Y-30309D01*
X32960Y-30309D01*
X32969Y-30305D01*
X33562Y-30305D01*
X33562Y-30908D01*
X33598Y-30995D01*
X33665Y-31062D01*
X33666Y-31062D01*
X33666Y-31062D01*
G37*
G54D38*
X33666Y-31062D02*
X32948Y-31062D01*
X32948Y-30788D01*
X32988Y-30729D01*
X33019Y-30570D01*
X32988Y-30412D01*
X32919Y-30309D01*
X32960Y-30309D01*
X32969Y-30305D01*
X33562Y-30305D01*
X33562Y-30908D01*
X33598Y-30995D01*
X33665Y-31062D01*
X33666Y-31062D01*
G54D10*
G36*
X33917Y-35000D02*
X33818Y-35000D01*
X33818Y-36141D01*
X33043Y-36141D01*
X31718Y-34816D01*
X31616Y-34748D01*
X31496Y-34724D01*
X30721Y-34724D01*
X30410Y-34414D01*
X30492Y-34397D01*
X30626Y-34308D01*
X30716Y-34173D01*
X30748Y-34015D01*
X30716Y-33857D01*
X30714Y-33854D01*
X30806Y-33854D01*
X31208Y-33854D01*
X31295Y-33818D01*
X31361Y-33752D01*
X31397Y-33665D01*
X31397Y-33571D01*
X31397Y-32870D01*
X31374Y-32813D01*
X31374Y-32540D01*
X31397Y-32484D01*
X31397Y-32390D01*
X31397Y-31689D01*
X31361Y-31602D01*
X31353Y-31594D01*
X31362Y-31574D01*
X31362Y-31500D01*
X31366Y-31495D01*
X31366Y-31495D01*
X31366Y-31495D01*
X31387Y-31385D01*
X31387Y-31385D01*
X31387Y-31299D01*
X31550Y-31461D01*
X31550Y-31461D01*
X31642Y-31523D01*
X31642Y-31523D01*
X31751Y-31545D01*
X31751Y-31545D01*
X32047Y-31545D01*
X32047Y-35078D01*
X33110Y-35078D01*
X33110Y-32618D01*
X33917Y-32618D01*
X33917Y-35000D01*
X33917Y-35000D01*
G37*
G54D38*
X33917Y-35000D02*
X33818Y-35000D01*
X33818Y-36141D01*
X33043Y-36141D01*
X31718Y-34816D01*
X31616Y-34748D01*
X31496Y-34724D01*
X30721Y-34724D01*
X30410Y-34414D01*
X30492Y-34397D01*
X30626Y-34308D01*
X30716Y-34173D01*
X30748Y-34015D01*
X30716Y-33857D01*
X30714Y-33854D01*
X30806Y-33854D01*
X31208Y-33854D01*
X31295Y-33818D01*
X31361Y-33752D01*
X31397Y-33665D01*
X31397Y-33571D01*
X31397Y-32870D01*
X31374Y-32813D01*
X31374Y-32540D01*
X31397Y-32484D01*
X31397Y-32390D01*
X31397Y-31689D01*
X31361Y-31602D01*
X31353Y-31594D01*
X31362Y-31574D01*
X31362Y-31500D01*
X31366Y-31495D01*
X31366Y-31495D01*
X31366Y-31495D01*
X31387Y-31385D01*
X31387Y-31385D01*
X31387Y-31299D01*
X31550Y-31461D01*
X31550Y-31461D01*
X31642Y-31523D01*
X31642Y-31523D01*
X31751Y-31545D01*
X31751Y-31545D01*
X32047Y-31545D01*
X32047Y-35078D01*
X33110Y-35078D01*
X33110Y-32618D01*
X33917Y-32618D01*
X33917Y-35000D01*
G54D10*
G36*
X34496Y-28464D02*
X34436Y-28523D01*
X33248Y-28523D01*
X33149Y-28543D01*
X33149Y-28541D01*
X33149Y-28541D01*
X33149Y-28451D01*
X33149Y-28344D01*
X33149Y-28344D01*
X33149Y-28254D01*
X33149Y-28148D01*
X33113Y-28061D01*
X33103Y-28051D01*
X33113Y-28041D01*
X33122Y-28021D01*
X33154Y-28053D01*
X33291Y-28110D01*
X33440Y-28110D01*
X33577Y-28053D01*
X33683Y-27948D01*
X33740Y-27810D01*
X33740Y-27781D01*
X33740Y-27781D01*
X33755Y-27758D01*
X33779Y-27637D01*
X33779Y-27637D01*
X33779Y-27539D01*
X33853Y-27539D01*
X33991Y-27482D01*
X33995Y-27477D01*
X34020Y-27501D01*
X34157Y-27558D01*
X34306Y-27559D01*
X34443Y-27502D01*
X34466Y-27479D01*
X34496Y-27508D01*
X34496Y-28464D01*
X34496Y-28464D01*
G37*
G54D38*
X34496Y-28464D02*
X34436Y-28523D01*
X33248Y-28523D01*
X33149Y-28543D01*
X33149Y-28541D01*
X33149Y-28541D01*
X33149Y-28451D01*
X33149Y-28344D01*
X33149Y-28344D01*
X33149Y-28254D01*
X33149Y-28148D01*
X33113Y-28061D01*
X33103Y-28051D01*
X33113Y-28041D01*
X33122Y-28021D01*
X33154Y-28053D01*
X33291Y-28110D01*
X33440Y-28110D01*
X33577Y-28053D01*
X33683Y-27948D01*
X33740Y-27810D01*
X33740Y-27781D01*
X33740Y-27781D01*
X33755Y-27758D01*
X33779Y-27637D01*
X33779Y-27637D01*
X33779Y-27539D01*
X33853Y-27539D01*
X33991Y-27482D01*
X33995Y-27477D01*
X34020Y-27501D01*
X34157Y-27558D01*
X34306Y-27559D01*
X34443Y-27502D01*
X34466Y-27479D01*
X34496Y-27508D01*
X34496Y-28464D01*
G54D10*
G36*
X36633Y-15691D02*
X36531Y-15588D01*
X36393Y-15531D01*
X36244Y-15531D01*
X36107Y-15588D01*
X36002Y-15693D01*
X35944Y-15830D01*
X35944Y-15979D01*
X35977Y-16057D01*
X35151Y-16883D01*
X35083Y-16985D01*
X35059Y-17106D01*
X35059Y-22015D01*
X33926Y-23147D01*
X33858Y-23249D01*
X33834Y-23370D01*
X33834Y-24822D01*
X33563Y-25093D01*
X33563Y-23083D01*
X33563Y-22689D01*
X33541Y-22637D01*
X33562Y-22586D01*
X33563Y-22492D01*
X33563Y-22098D01*
X33541Y-22047D01*
X33562Y-21996D01*
X33563Y-21902D01*
X33563Y-21508D01*
X33541Y-21456D01*
X33562Y-21405D01*
X33563Y-21311D01*
X33563Y-20917D01*
X33541Y-20866D01*
X33562Y-20814D01*
X33563Y-20720D01*
X33563Y-20327D01*
X33541Y-20275D01*
X33562Y-20224D01*
X33563Y-20130D01*
X33563Y-19736D01*
X33541Y-19685D01*
X33562Y-19633D01*
X33563Y-19539D01*
X33563Y-19146D01*
X33541Y-19094D01*
X33562Y-19043D01*
X33563Y-18949D01*
X33563Y-18555D01*
X33527Y-18468D01*
X33460Y-18402D01*
X33373Y-18366D01*
X33279Y-18366D01*
X32492Y-18366D01*
X32405Y-18401D01*
X32339Y-18468D01*
X32303Y-18555D01*
X32303Y-18649D01*
X32303Y-19042D01*
X32324Y-19094D01*
X32303Y-19145D01*
X32303Y-19239D01*
X32303Y-19633D01*
X32324Y-19685D01*
X32303Y-19736D01*
X32303Y-19830D01*
X32303Y-20223D01*
X32324Y-20275D01*
X32303Y-20326D01*
X32303Y-20420D01*
X32303Y-20814D01*
X32324Y-20866D01*
X32303Y-20917D01*
X32303Y-21011D01*
X32303Y-21405D01*
X32324Y-21456D01*
X32303Y-21507D01*
X32303Y-21601D01*
X32303Y-21995D01*
X32324Y-22047D01*
X32303Y-22098D01*
X32303Y-22192D01*
X32303Y-22586D01*
X32324Y-22637D01*
X32303Y-22689D01*
X32303Y-22783D01*
X32303Y-23176D01*
X32338Y-23263D01*
X32405Y-23330D01*
X32492Y-23366D01*
X32586Y-23366D01*
X33373Y-23366D01*
X33460Y-23330D01*
X33526Y-23263D01*
X33562Y-23177D01*
X33563Y-23083D01*
X33563Y-25093D01*
X33468Y-25188D01*
X33399Y-25290D01*
X33375Y-25411D01*
X33375Y-26493D01*
X33241Y-26627D01*
X33173Y-26729D01*
X33149Y-26850D01*
X33149Y-27423D01*
X33049Y-27524D01*
X33021Y-27590D01*
X32960Y-27565D01*
X32866Y-27564D01*
X32394Y-27564D01*
X32384Y-27568D01*
X32366Y-27568D01*
X32375Y-27547D01*
X32376Y-27453D01*
X32376Y-26980D01*
X32340Y-26893D01*
X32273Y-26827D01*
X32186Y-26791D01*
X32092Y-26791D01*
X31986Y-26791D01*
X31986Y-26791D01*
X31896Y-26791D01*
X31789Y-26791D01*
X31789Y-26791D01*
X31699Y-26791D01*
X31592Y-26791D01*
X31592Y-26791D01*
X31584Y-26791D01*
X31584Y-25922D01*
X31668Y-25888D01*
X31773Y-25783D01*
X31830Y-25645D01*
X31830Y-25496D01*
X31801Y-25426D01*
X31841Y-25385D01*
X31877Y-25299D01*
X31877Y-25205D01*
X31877Y-24504D01*
X31850Y-24437D01*
X31850Y-24311D01*
X31850Y-24153D01*
X31853Y-24149D01*
X31889Y-24062D01*
X31889Y-23968D01*
X31889Y-23181D01*
X31853Y-23094D01*
X31787Y-23028D01*
X31700Y-22992D01*
X31606Y-22992D01*
X31213Y-22992D01*
X31161Y-23013D01*
X31110Y-22992D01*
X31016Y-22992D01*
X30622Y-22992D01*
X30570Y-23013D01*
X30519Y-22992D01*
X30425Y-22992D01*
X30031Y-22992D01*
X29980Y-23013D01*
X29929Y-22992D01*
X29835Y-22992D01*
X29441Y-22992D01*
X29389Y-23013D01*
X29338Y-22992D01*
X29244Y-22992D01*
X28850Y-22992D01*
X28799Y-23013D01*
X28747Y-22992D01*
X28654Y-22992D01*
X28260Y-22992D01*
X28208Y-23013D01*
X28157Y-22992D01*
X28063Y-22992D01*
X27669Y-22992D01*
X27618Y-23013D01*
X27566Y-22992D01*
X27472Y-22992D01*
X27079Y-22992D01*
X27027Y-23013D01*
X26976Y-22992D01*
X26882Y-22992D01*
X26488Y-22992D01*
X26436Y-23013D01*
X26385Y-22992D01*
X26291Y-22992D01*
X25898Y-22992D01*
X25846Y-23013D01*
X25795Y-22992D01*
X25701Y-22992D01*
X25307Y-22992D01*
X25255Y-23013D01*
X25204Y-22992D01*
X25110Y-22992D01*
X24881Y-22992D01*
X24881Y-18740D01*
X25204Y-18740D01*
X25255Y-18718D01*
X25307Y-18740D01*
X25401Y-18740D01*
X25794Y-18740D01*
X25846Y-18718D01*
X25897Y-18740D01*
X25991Y-18740D01*
X26385Y-18740D01*
X26437Y-18718D01*
X26488Y-18740D01*
X26582Y-18740D01*
X26975Y-18740D01*
X27027Y-18718D01*
X27078Y-18740D01*
X27172Y-18740D01*
X27566Y-18740D01*
X27618Y-18718D01*
X27669Y-18740D01*
X27763Y-18740D01*
X28157Y-18740D01*
X28208Y-18718D01*
X28259Y-18740D01*
X28353Y-18740D01*
X28747Y-18740D01*
X28799Y-18718D01*
X28850Y-18740D01*
X28944Y-18740D01*
X29338Y-18740D01*
X29389Y-18718D01*
X29440Y-18740D01*
X29534Y-18740D01*
X29881Y-18740D01*
X29881Y-18900D01*
X29852Y-18943D01*
X29822Y-19094D01*
X29852Y-19245D01*
X29938Y-19372D01*
X30065Y-19458D01*
X30216Y-19488D01*
X30367Y-19458D01*
X30494Y-19372D01*
X30553Y-19313D01*
X30639Y-19186D01*
X30639Y-19186D01*
X30669Y-19035D01*
X30669Y-18740D01*
X30716Y-18740D01*
X31109Y-18740D01*
X31161Y-18718D01*
X31212Y-18740D01*
X31306Y-18740D01*
X31700Y-18740D01*
X31787Y-18704D01*
X31853Y-18637D01*
X31889Y-18551D01*
X31889Y-18457D01*
X31889Y-17669D01*
X31853Y-17582D01*
X31787Y-17516D01*
X31700Y-17480D01*
X31606Y-17480D01*
X31213Y-17480D01*
X31161Y-17501D01*
X31110Y-17480D01*
X31016Y-17480D01*
X30622Y-17480D01*
X30570Y-17501D01*
X30519Y-17480D01*
X30425Y-17480D01*
X30031Y-17480D01*
X29980Y-17501D01*
X29929Y-17480D01*
X29835Y-17480D01*
X29441Y-17480D01*
X29389Y-17501D01*
X29338Y-17480D01*
X29244Y-17480D01*
X28850Y-17480D01*
X28799Y-17501D01*
X28747Y-17480D01*
X28654Y-17480D01*
X28260Y-17480D01*
X28208Y-17501D01*
X28157Y-17480D01*
X28063Y-17480D01*
X27669Y-17480D01*
X27618Y-17501D01*
X27566Y-17480D01*
X27472Y-17480D01*
X27079Y-17480D01*
X27027Y-17501D01*
X26976Y-17480D01*
X26882Y-17480D01*
X26488Y-17480D01*
X26436Y-17501D01*
X26385Y-17480D01*
X26291Y-17480D01*
X25975Y-17480D01*
X26321Y-17336D01*
X26587Y-17071D01*
X26732Y-16724D01*
X26732Y-16348D01*
X26588Y-16000D01*
X26323Y-15734D01*
X25976Y-15590D01*
X25600Y-15590D01*
X25252Y-15733D01*
X24986Y-15999D01*
X24842Y-16346D01*
X24842Y-16722D01*
X24985Y-17069D01*
X25251Y-17335D01*
X25598Y-17480D01*
X25897Y-17480D01*
X25846Y-17501D01*
X25795Y-17480D01*
X25701Y-17480D01*
X25307Y-17480D01*
X25255Y-17501D01*
X25204Y-17480D01*
X25110Y-17480D01*
X24776Y-17480D01*
X24665Y-17368D01*
X24665Y-15477D01*
X24672Y-15439D01*
X24680Y-15428D01*
X24691Y-15421D01*
X24730Y-15413D01*
X36633Y-15413D01*
X36633Y-15691D01*
X36633Y-15691D01*
G37*
G54D38*
X36633Y-15691D02*
X36531Y-15588D01*
X36393Y-15531D01*
X36244Y-15531D01*
X36107Y-15588D01*
X36002Y-15693D01*
X35944Y-15830D01*
X35944Y-15979D01*
X35977Y-16057D01*
X35151Y-16883D01*
X35083Y-16985D01*
X35059Y-17106D01*
X35059Y-22015D01*
X33926Y-23147D01*
X33858Y-23249D01*
X33834Y-23370D01*
X33834Y-24822D01*
X33563Y-25093D01*
X33563Y-23083D01*
X33563Y-22689D01*
X33541Y-22637D01*
X33562Y-22586D01*
X33563Y-22492D01*
X33563Y-22098D01*
X33541Y-22047D01*
X33562Y-21996D01*
X33563Y-21902D01*
X33563Y-21508D01*
X33541Y-21456D01*
X33562Y-21405D01*
X33563Y-21311D01*
X33563Y-20917D01*
X33541Y-20866D01*
X33562Y-20814D01*
X33563Y-20720D01*
X33563Y-20327D01*
X33541Y-20275D01*
X33562Y-20224D01*
X33563Y-20130D01*
X33563Y-19736D01*
X33541Y-19685D01*
X33562Y-19633D01*
X33563Y-19539D01*
X33563Y-19146D01*
X33541Y-19094D01*
X33562Y-19043D01*
X33563Y-18949D01*
X33563Y-18555D01*
X33527Y-18468D01*
X33460Y-18402D01*
X33373Y-18366D01*
X33279Y-18366D01*
X32492Y-18366D01*
X32405Y-18401D01*
X32339Y-18468D01*
X32303Y-18555D01*
X32303Y-18649D01*
X32303Y-19042D01*
X32324Y-19094D01*
X32303Y-19145D01*
X32303Y-19239D01*
X32303Y-19633D01*
X32324Y-19685D01*
X32303Y-19736D01*
X32303Y-19830D01*
X32303Y-20223D01*
X32324Y-20275D01*
X32303Y-20326D01*
X32303Y-20420D01*
X32303Y-20814D01*
X32324Y-20866D01*
X32303Y-20917D01*
X32303Y-21011D01*
X32303Y-21405D01*
X32324Y-21456D01*
X32303Y-21507D01*
X32303Y-21601D01*
X32303Y-21995D01*
X32324Y-22047D01*
X32303Y-22098D01*
X32303Y-22192D01*
X32303Y-22586D01*
X32324Y-22637D01*
X32303Y-22689D01*
X32303Y-22783D01*
X32303Y-23176D01*
X32338Y-23263D01*
X32405Y-23330D01*
X32492Y-23366D01*
X32586Y-23366D01*
X33373Y-23366D01*
X33460Y-23330D01*
X33526Y-23263D01*
X33562Y-23177D01*
X33563Y-23083D01*
X33563Y-25093D01*
X33468Y-25188D01*
X33399Y-25290D01*
X33375Y-25411D01*
X33375Y-26493D01*
X33241Y-26627D01*
X33173Y-26729D01*
X33149Y-26850D01*
X33149Y-27423D01*
X33049Y-27524D01*
X33021Y-27590D01*
X32960Y-27565D01*
X32866Y-27564D01*
X32394Y-27564D01*
X32384Y-27568D01*
X32366Y-27568D01*
X32375Y-27547D01*
X32376Y-27453D01*
X32376Y-26980D01*
X32340Y-26893D01*
X32273Y-26827D01*
X32186Y-26791D01*
X32092Y-26791D01*
X31986Y-26791D01*
X31986Y-26791D01*
X31896Y-26791D01*
X31789Y-26791D01*
X31789Y-26791D01*
X31699Y-26791D01*
X31592Y-26791D01*
X31592Y-26791D01*
X31584Y-26791D01*
X31584Y-25922D01*
X31668Y-25888D01*
X31773Y-25783D01*
X31830Y-25645D01*
X31830Y-25496D01*
X31801Y-25426D01*
X31841Y-25385D01*
X31877Y-25299D01*
X31877Y-25205D01*
X31877Y-24504D01*
X31850Y-24437D01*
X31850Y-24311D01*
X31850Y-24153D01*
X31853Y-24149D01*
X31889Y-24062D01*
X31889Y-23968D01*
X31889Y-23181D01*
X31853Y-23094D01*
X31787Y-23028D01*
X31700Y-22992D01*
X31606Y-22992D01*
X31213Y-22992D01*
X31161Y-23013D01*
X31110Y-22992D01*
X31016Y-22992D01*
X30622Y-22992D01*
X30570Y-23013D01*
X30519Y-22992D01*
X30425Y-22992D01*
X30031Y-22992D01*
X29980Y-23013D01*
X29929Y-22992D01*
X29835Y-22992D01*
X29441Y-22992D01*
X29389Y-23013D01*
X29338Y-22992D01*
X29244Y-22992D01*
X28850Y-22992D01*
X28799Y-23013D01*
X28747Y-22992D01*
X28654Y-22992D01*
X28260Y-22992D01*
X28208Y-23013D01*
X28157Y-22992D01*
X28063Y-22992D01*
X27669Y-22992D01*
X27618Y-23013D01*
X27566Y-22992D01*
X27472Y-22992D01*
X27079Y-22992D01*
X27027Y-23013D01*
X26976Y-22992D01*
X26882Y-22992D01*
X26488Y-22992D01*
X26436Y-23013D01*
X26385Y-22992D01*
X26291Y-22992D01*
X25898Y-22992D01*
X25846Y-23013D01*
X25795Y-22992D01*
X25701Y-22992D01*
X25307Y-22992D01*
X25255Y-23013D01*
X25204Y-22992D01*
X25110Y-22992D01*
X24881Y-22992D01*
X24881Y-18740D01*
X25204Y-18740D01*
X25255Y-18718D01*
X25307Y-18740D01*
X25401Y-18740D01*
X25794Y-18740D01*
X25846Y-18718D01*
X25897Y-18740D01*
X25991Y-18740D01*
X26385Y-18740D01*
X26437Y-18718D01*
X26488Y-18740D01*
X26582Y-18740D01*
X26975Y-18740D01*
X27027Y-18718D01*
X27078Y-18740D01*
X27172Y-18740D01*
X27566Y-18740D01*
X27618Y-18718D01*
X27669Y-18740D01*
X27763Y-18740D01*
X28157Y-18740D01*
X28208Y-18718D01*
X28259Y-18740D01*
X28353Y-18740D01*
X28747Y-18740D01*
X28799Y-18718D01*
X28850Y-18740D01*
X28944Y-18740D01*
X29338Y-18740D01*
X29389Y-18718D01*
X29440Y-18740D01*
X29534Y-18740D01*
X29881Y-18740D01*
X29881Y-18900D01*
X29852Y-18943D01*
X29822Y-19094D01*
X29852Y-19245D01*
X29938Y-19372D01*
X30065Y-19458D01*
X30216Y-19488D01*
X30367Y-19458D01*
X30494Y-19372D01*
X30553Y-19313D01*
X30639Y-19186D01*
X30639Y-19186D01*
X30669Y-19035D01*
X30669Y-18740D01*
X30716Y-18740D01*
X31109Y-18740D01*
X31161Y-18718D01*
X31212Y-18740D01*
X31306Y-18740D01*
X31700Y-18740D01*
X31787Y-18704D01*
X31853Y-18637D01*
X31889Y-18551D01*
X31889Y-18457D01*
X31889Y-17669D01*
X31853Y-17582D01*
X31787Y-17516D01*
X31700Y-17480D01*
X31606Y-17480D01*
X31213Y-17480D01*
X31161Y-17501D01*
X31110Y-17480D01*
X31016Y-17480D01*
X30622Y-17480D01*
X30570Y-17501D01*
X30519Y-17480D01*
X30425Y-17480D01*
X30031Y-17480D01*
X29980Y-17501D01*
X29929Y-17480D01*
X29835Y-17480D01*
X29441Y-17480D01*
X29389Y-17501D01*
X29338Y-17480D01*
X29244Y-17480D01*
X28850Y-17480D01*
X28799Y-17501D01*
X28747Y-17480D01*
X28654Y-17480D01*
X28260Y-17480D01*
X28208Y-17501D01*
X28157Y-17480D01*
X28063Y-17480D01*
X27669Y-17480D01*
X27618Y-17501D01*
X27566Y-17480D01*
X27472Y-17480D01*
X27079Y-17480D01*
X27027Y-17501D01*
X26976Y-17480D01*
X26882Y-17480D01*
X26488Y-17480D01*
X26436Y-17501D01*
X26385Y-17480D01*
X26291Y-17480D01*
X25975Y-17480D01*
X26321Y-17336D01*
X26587Y-17071D01*
X26732Y-16724D01*
X26732Y-16348D01*
X26588Y-16000D01*
X26323Y-15734D01*
X25976Y-15590D01*
X25600Y-15590D01*
X25252Y-15733D01*
X24986Y-15999D01*
X24842Y-16346D01*
X24842Y-16722D01*
X24985Y-17069D01*
X25251Y-17335D01*
X25598Y-17480D01*
X25897Y-17480D01*
X25846Y-17501D01*
X25795Y-17480D01*
X25701Y-17480D01*
X25307Y-17480D01*
X25255Y-17501D01*
X25204Y-17480D01*
X25110Y-17480D01*
X24776Y-17480D01*
X24665Y-17368D01*
X24665Y-15477D01*
X24672Y-15439D01*
X24680Y-15428D01*
X24691Y-15421D01*
X24730Y-15413D01*
X36633Y-15413D01*
X36633Y-15691D01*
G54D10*
G36*
X36633Y-35000D02*
X36161Y-35000D01*
X36161Y-33720D01*
X35177Y-33720D01*
X35177Y-32618D01*
X35669Y-32618D01*
X35669Y-31472D01*
X36023Y-31472D01*
X36093Y-31542D01*
X36303Y-31629D01*
X36530Y-31630D01*
X36633Y-31587D01*
X36633Y-35000D01*
X36633Y-35000D01*
G37*
G54D38*
X36633Y-35000D02*
X36161Y-35000D01*
X36161Y-33720D01*
X35177Y-33720D01*
X35177Y-32618D01*
X35669Y-32618D01*
X35669Y-31472D01*
X36023Y-31472D01*
X36093Y-31542D01*
X36303Y-31629D01*
X36530Y-31630D01*
X36633Y-31587D01*
X36633Y-35000D01*
G54D10*
G36*
X36633Y-36141D02*
X35177Y-36141D01*
X35177Y-35964D01*
X36633Y-35964D01*
X36633Y-36141D01*
X36633Y-36141D01*
G37*
G54D38*
X36633Y-36141D02*
X35177Y-36141D01*
X35177Y-35964D01*
X36633Y-35964D01*
X36633Y-36141D01*
G54D10*
G36*
X37322Y-31555D02*
X37111Y-31555D01*
X37111Y-30165D01*
X37099Y-29891D01*
X37018Y-29695D01*
X36891Y-29668D01*
X36500Y-30059D01*
X36891Y-30449D01*
X37018Y-30422D01*
X37111Y-30165D01*
X37111Y-31555D01*
X36771Y-31555D01*
X36711Y-31555D01*
X36740Y-31543D01*
X36900Y-31382D01*
X36988Y-31173D01*
X36988Y-30946D01*
X36901Y-30736D01*
X36788Y-30623D01*
X36807Y-30532D01*
X36417Y-30142D01*
X36333Y-30226D01*
X36333Y-30059D01*
X35943Y-29668D01*
X35816Y-29695D01*
X35722Y-29953D01*
X35735Y-30226D01*
X35816Y-30422D01*
X35943Y-30449D01*
X36333Y-30059D01*
X36333Y-30226D01*
X36027Y-30532D01*
X36045Y-30623D01*
X36023Y-30645D01*
X35669Y-30645D01*
X35669Y-29881D01*
X34413Y-29881D01*
X34413Y-29837D01*
X34452Y-29799D01*
X34488Y-29712D01*
X34488Y-29618D01*
X34488Y-29153D01*
X34566Y-29153D01*
X34566Y-29153D01*
X34687Y-29129D01*
X34789Y-29061D01*
X35033Y-28817D01*
X35033Y-28817D01*
X35102Y-28715D01*
X35125Y-28594D01*
X35125Y-28594D01*
X35125Y-27696D01*
X35211Y-27696D01*
X35349Y-27640D01*
X35454Y-27534D01*
X35511Y-27397D01*
X35511Y-27248D01*
X35477Y-27165D01*
X35534Y-27165D01*
X35621Y-27129D01*
X35688Y-27063D01*
X35724Y-26976D01*
X35724Y-26882D01*
X35724Y-26480D01*
X35688Y-26393D01*
X35672Y-26377D01*
X35688Y-26362D01*
X35724Y-26275D01*
X35724Y-26181D01*
X35724Y-26025D01*
X35922Y-25827D01*
X35922Y-25827D01*
X35922Y-25827D01*
X36011Y-25693D01*
X36011Y-25693D01*
X36043Y-25535D01*
X36043Y-25535D01*
X36043Y-24993D01*
X36113Y-24964D01*
X36180Y-24897D01*
X36216Y-24810D01*
X36216Y-24716D01*
X36216Y-24315D01*
X36180Y-24228D01*
X36114Y-24162D01*
X36027Y-24126D01*
X35933Y-24125D01*
X35364Y-24125D01*
X35364Y-23762D01*
X36374Y-22752D01*
X36374Y-22752D01*
X36419Y-22683D01*
X36442Y-22650D01*
X36442Y-22650D01*
X36466Y-22529D01*
X36466Y-22529D01*
X36466Y-17600D01*
X36633Y-17433D01*
X36633Y-26488D01*
X36035Y-26488D01*
X35949Y-26524D01*
X35882Y-26590D01*
X35846Y-26677D01*
X35846Y-26771D01*
X35846Y-27440D01*
X35882Y-27527D01*
X35948Y-27593D01*
X36035Y-27629D01*
X36039Y-27629D01*
X35933Y-27735D01*
X35846Y-27945D01*
X35846Y-28172D01*
X35933Y-28382D01*
X36093Y-28542D01*
X36132Y-28558D01*
X36094Y-28574D01*
X35933Y-28735D01*
X35846Y-28945D01*
X35846Y-29172D01*
X35933Y-29382D01*
X36045Y-29495D01*
X36027Y-29585D01*
X36417Y-29975D01*
X36807Y-29585D01*
X36788Y-29494D01*
X36900Y-29382D01*
X36988Y-29173D01*
X36988Y-28946D01*
X36901Y-28736D01*
X36741Y-28575D01*
X36701Y-28559D01*
X36740Y-28543D01*
X36900Y-28382D01*
X36953Y-28255D01*
X37322Y-28803D01*
X37322Y-31555D01*
X37322Y-31555D01*
G37*
G54D38*
X37322Y-31555D02*
X37111Y-31555D01*
X37111Y-30165D01*
X37099Y-29891D01*
X37018Y-29695D01*
X36891Y-29668D01*
X36500Y-30059D01*
X36891Y-30449D01*
X37018Y-30422D01*
X37111Y-30165D01*
X37111Y-31555D01*
X36771Y-31555D01*
X36711Y-31555D01*
X36740Y-31543D01*
X36900Y-31382D01*
X36988Y-31173D01*
X36988Y-30946D01*
X36901Y-30736D01*
X36788Y-30623D01*
X36807Y-30532D01*
X36417Y-30142D01*
X36333Y-30226D01*
X36333Y-30059D01*
X35943Y-29668D01*
X35816Y-29695D01*
X35722Y-29953D01*
X35735Y-30226D01*
X35816Y-30422D01*
X35943Y-30449D01*
X36333Y-30059D01*
X36333Y-30226D01*
X36027Y-30532D01*
X36045Y-30623D01*
X36023Y-30645D01*
X35669Y-30645D01*
X35669Y-29881D01*
X34413Y-29881D01*
X34413Y-29837D01*
X34452Y-29799D01*
X34488Y-29712D01*
X34488Y-29618D01*
X34488Y-29153D01*
X34566Y-29153D01*
X34566Y-29153D01*
X34687Y-29129D01*
X34789Y-29061D01*
X35033Y-28817D01*
X35033Y-28817D01*
X35102Y-28715D01*
X35125Y-28594D01*
X35125Y-28594D01*
X35125Y-27696D01*
X35211Y-27696D01*
X35349Y-27640D01*
X35454Y-27534D01*
X35511Y-27397D01*
X35511Y-27248D01*
X35477Y-27165D01*
X35534Y-27165D01*
X35621Y-27129D01*
X35688Y-27063D01*
X35724Y-26976D01*
X35724Y-26882D01*
X35724Y-26480D01*
X35688Y-26393D01*
X35672Y-26377D01*
X35688Y-26362D01*
X35724Y-26275D01*
X35724Y-26181D01*
X35724Y-26025D01*
X35922Y-25827D01*
X35922Y-25827D01*
X35922Y-25827D01*
X36011Y-25693D01*
X36011Y-25693D01*
X36043Y-25535D01*
X36043Y-25535D01*
X36043Y-24993D01*
X36113Y-24964D01*
X36180Y-24897D01*
X36216Y-24810D01*
X36216Y-24716D01*
X36216Y-24315D01*
X36180Y-24228D01*
X36114Y-24162D01*
X36027Y-24126D01*
X35933Y-24125D01*
X35364Y-24125D01*
X35364Y-23762D01*
X36374Y-22752D01*
X36374Y-22752D01*
X36419Y-22683D01*
X36442Y-22650D01*
X36442Y-22650D01*
X36466Y-22529D01*
X36466Y-22529D01*
X36466Y-17600D01*
X36633Y-17433D01*
X36633Y-26488D01*
X36035Y-26488D01*
X35949Y-26524D01*
X35882Y-26590D01*
X35846Y-26677D01*
X35846Y-26771D01*
X35846Y-27440D01*
X35882Y-27527D01*
X35948Y-27593D01*
X36035Y-27629D01*
X36039Y-27629D01*
X35933Y-27735D01*
X35846Y-27945D01*
X35846Y-28172D01*
X35933Y-28382D01*
X36093Y-28542D01*
X36132Y-28558D01*
X36094Y-28574D01*
X35933Y-28735D01*
X35846Y-28945D01*
X35846Y-29172D01*
X35933Y-29382D01*
X36045Y-29495D01*
X36027Y-29585D01*
X36417Y-29975D01*
X36807Y-29585D01*
X36788Y-29494D01*
X36900Y-29382D01*
X36988Y-29173D01*
X36988Y-28946D01*
X36901Y-28736D01*
X36741Y-28575D01*
X36701Y-28559D01*
X36740Y-28543D01*
X36900Y-28382D01*
X36953Y-28255D01*
X37322Y-28803D01*
X37322Y-31555D01*
G54D10*
G36*
X27381Y-28090D02*
X27374Y-28090D01*
X26468Y-28090D01*
X26382Y-28126D01*
X26378Y-28129D01*
X26200Y-28129D01*
X26200Y-28267D01*
X25866Y-28267D01*
X25866Y-27834D01*
X26339Y-27834D01*
X26381Y-27877D01*
X26468Y-27913D01*
X26562Y-27913D01*
X27381Y-27913D01*
X27381Y-28090D01*
X27381Y-28090D01*
G37*
G54D38*
X27381Y-28090D02*
X27374Y-28090D01*
X26468Y-28090D01*
X26382Y-28126D01*
X26378Y-28129D01*
X26200Y-28129D01*
X26200Y-28267D01*
X25866Y-28267D01*
X25866Y-27834D01*
X26339Y-27834D01*
X26381Y-27877D01*
X26468Y-27913D01*
X26562Y-27913D01*
X27381Y-27913D01*
X27381Y-28090D01*
G54D10*
G36*
X35354Y-32303D02*
X34862Y-32303D01*
X34862Y-36141D01*
X34133Y-36141D01*
X34133Y-35314D01*
X34232Y-35314D01*
X34232Y-32303D01*
X32795Y-32303D01*
X32795Y-34763D01*
X32362Y-34763D01*
X32362Y-31377D01*
X34527Y-31377D01*
X34527Y-30196D01*
X35354Y-30196D01*
X35354Y-32303D01*
X35354Y-32303D01*
G37*
G54D38*
X35354Y-32303D02*
X34862Y-32303D01*
X34862Y-36141D01*
X34133Y-36141D01*
X34133Y-35314D01*
X34232Y-35314D01*
X34232Y-32303D01*
X32795Y-32303D01*
X32795Y-34763D01*
X32362Y-34763D01*
X32362Y-31377D01*
X34527Y-31377D01*
X34527Y-30196D01*
X35354Y-30196D01*
X35354Y-32303D01*
G54D10*
G36*
X38011Y-36141D02*
X37086Y-36141D01*
X37086Y-36003D01*
X38011Y-36003D01*
X38011Y-36141D01*
X38011Y-36141D01*
G37*
G54D38*
X38011Y-36141D02*
X37086Y-36141D01*
X37086Y-36003D01*
X38011Y-36003D01*
X38011Y-36141D01*
G54D10*
G36*
X40373Y-16653D02*
X39153Y-16653D01*
X39153Y-16230D01*
X40300Y-16230D01*
X40373Y-16303D01*
X40373Y-16653D01*
X40373Y-16653D01*
G37*
G54D38*
X40373Y-16653D02*
X39153Y-16653D01*
X39153Y-16230D01*
X40300Y-16230D01*
X40373Y-16303D01*
X40373Y-16653D01*
G54D10*
G36*
X40373Y-36353D02*
X40290Y-36437D01*
X39153Y-36437D01*
X39153Y-36003D01*
X40373Y-36003D01*
X40373Y-36353D01*
X40373Y-36353D01*
G37*
G54D38*
X40373Y-36353D02*
X40290Y-36437D01*
X39153Y-36437D01*
X39153Y-36003D01*
X40373Y-36003D01*
X40373Y-36353D01*
G54D10*
G36*
X42736Y-16653D02*
X41515Y-16653D01*
X41515Y-16047D01*
X41485Y-15974D01*
X42406Y-15974D01*
X42736Y-16303D01*
X42736Y-16653D01*
X42736Y-16653D01*
G37*
G54D38*
X42736Y-16653D02*
X41515Y-16653D01*
X41515Y-16047D01*
X41485Y-15974D01*
X42406Y-15974D01*
X42736Y-16303D01*
X42736Y-16653D01*
G54D10*
G36*
X42736Y-36353D02*
X42397Y-36692D01*
X41481Y-36692D01*
X41515Y-36610D01*
X41515Y-36516D01*
X41515Y-36003D01*
X42736Y-36003D01*
X42736Y-36353D01*
X42736Y-36353D01*
G37*
G54D38*
X42736Y-36353D02*
X42397Y-36692D01*
X41481Y-36692D01*
X41515Y-36610D01*
X41515Y-36516D01*
X41515Y-36003D01*
X42736Y-36003D01*
X42736Y-36353D01*
G54D10*
G36*
X52303Y-37179D02*
X52295Y-37218D01*
X52288Y-37228D01*
X52276Y-37236D01*
X52238Y-37244D01*
X52126Y-37244D01*
X52126Y-35934D01*
X52126Y-16348D01*
X51982Y-16000D01*
X51717Y-15734D01*
X51369Y-15590D01*
X50993Y-15590D01*
X50646Y-15733D01*
X50380Y-15999D01*
X50236Y-16346D01*
X50236Y-16722D01*
X50379Y-17069D01*
X50645Y-17335D01*
X50992Y-17480D01*
X51368Y-17480D01*
X51715Y-17336D01*
X51981Y-17071D01*
X52125Y-16724D01*
X52126Y-16348D01*
X52126Y-35934D01*
X51982Y-35587D01*
X51717Y-35321D01*
X51369Y-35177D01*
X50993Y-35177D01*
X50646Y-35320D01*
X50380Y-35586D01*
X50236Y-35933D01*
X50236Y-36309D01*
X50379Y-36656D01*
X50645Y-36922D01*
X50992Y-37066D01*
X51368Y-37067D01*
X51715Y-36923D01*
X51981Y-36657D01*
X52125Y-36310D01*
X52126Y-35934D01*
X52126Y-37244D01*
X42730Y-37244D01*
X42750Y-37230D01*
X43181Y-36799D01*
X43688Y-36799D01*
X43775Y-36763D01*
X43841Y-36696D01*
X43877Y-36610D01*
X43877Y-36516D01*
X43877Y-36003D01*
X45098Y-36003D01*
X45098Y-36609D01*
X45134Y-36696D01*
X45200Y-36763D01*
X45287Y-36799D01*
X45381Y-36799D01*
X46050Y-36799D01*
X46137Y-36763D01*
X46204Y-36696D01*
X46240Y-36610D01*
X46240Y-36516D01*
X46240Y-36003D01*
X47814Y-36003D01*
X47814Y-31122D01*
X45944Y-31122D01*
X45944Y-30829D01*
X45952Y-30810D01*
X45952Y-30716D01*
X45952Y-30016D01*
X45944Y-29997D01*
X45944Y-26161D01*
X47814Y-26161D01*
X47814Y-25357D01*
X47901Y-25566D01*
X48133Y-25798D01*
X48437Y-25925D01*
X48766Y-25925D01*
X49070Y-25799D01*
X49302Y-25567D01*
X49428Y-25263D01*
X49429Y-24934D01*
X49303Y-24630D01*
X49071Y-24397D01*
X48767Y-24271D01*
X48438Y-24271D01*
X48134Y-24397D01*
X47901Y-24629D01*
X47814Y-24838D01*
X47814Y-16456D01*
X46240Y-16456D01*
X46240Y-16047D01*
X46204Y-15960D01*
X46137Y-15894D01*
X46051Y-15858D01*
X45957Y-15858D01*
X45287Y-15858D01*
X45201Y-15894D01*
X45134Y-15960D01*
X45098Y-16047D01*
X45098Y-16141D01*
X45098Y-16653D01*
X43877Y-16653D01*
X43877Y-16047D01*
X43842Y-15960D01*
X43775Y-15894D01*
X43688Y-15858D01*
X43594Y-15858D01*
X43181Y-15858D01*
X42760Y-15436D01*
X42725Y-15413D01*
X52238Y-15413D01*
X52276Y-15420D01*
X52288Y-15428D01*
X52295Y-15439D01*
X52303Y-15478D01*
X52303Y-37179D01*
X52303Y-37179D01*
G37*
G54D38*
X52303Y-37179D02*
X52295Y-37218D01*
X52288Y-37228D01*
X52276Y-37236D01*
X52238Y-37244D01*
X52126Y-37244D01*
X52126Y-35934D01*
X52126Y-16348D01*
X51982Y-16000D01*
X51717Y-15734D01*
X51369Y-15590D01*
X50993Y-15590D01*
X50646Y-15733D01*
X50380Y-15999D01*
X50236Y-16346D01*
X50236Y-16722D01*
X50379Y-17069D01*
X50645Y-17335D01*
X50992Y-17480D01*
X51368Y-17480D01*
X51715Y-17336D01*
X51981Y-17071D01*
X52125Y-16724D01*
X52126Y-16348D01*
X52126Y-35934D01*
X51982Y-35587D01*
X51717Y-35321D01*
X51369Y-35177D01*
X50993Y-35177D01*
X50646Y-35320D01*
X50380Y-35586D01*
X50236Y-35933D01*
X50236Y-36309D01*
X50379Y-36656D01*
X50645Y-36922D01*
X50992Y-37066D01*
X51368Y-37067D01*
X51715Y-36923D01*
X51981Y-36657D01*
X52125Y-36310D01*
X52126Y-35934D01*
X52126Y-37244D01*
X42730Y-37244D01*
X42750Y-37230D01*
X43181Y-36799D01*
X43688Y-36799D01*
X43775Y-36763D01*
X43841Y-36696D01*
X43877Y-36610D01*
X43877Y-36516D01*
X43877Y-36003D01*
X45098Y-36003D01*
X45098Y-36609D01*
X45134Y-36696D01*
X45200Y-36763D01*
X45287Y-36799D01*
X45381Y-36799D01*
X46050Y-36799D01*
X46137Y-36763D01*
X46204Y-36696D01*
X46240Y-36610D01*
X46240Y-36516D01*
X46240Y-36003D01*
X47814Y-36003D01*
X47814Y-31122D01*
X45944Y-31122D01*
X45944Y-30829D01*
X45952Y-30810D01*
X45952Y-30716D01*
X45952Y-30016D01*
X45944Y-29997D01*
X45944Y-26161D01*
X47814Y-26161D01*
X47814Y-25357D01*
X47901Y-25566D01*
X48133Y-25798D01*
X48437Y-25925D01*
X48766Y-25925D01*
X49070Y-25799D01*
X49302Y-25567D01*
X49428Y-25263D01*
X49429Y-24934D01*
X49303Y-24630D01*
X49071Y-24397D01*
X48767Y-24271D01*
X48438Y-24271D01*
X48134Y-24397D01*
X47901Y-24629D01*
X47814Y-24838D01*
X47814Y-16456D01*
X46240Y-16456D01*
X46240Y-16047D01*
X46204Y-15960D01*
X46137Y-15894D01*
X46051Y-15858D01*
X45957Y-15858D01*
X45287Y-15858D01*
X45201Y-15894D01*
X45134Y-15960D01*
X45098Y-16047D01*
X45098Y-16141D01*
X45098Y-16653D01*
X43877Y-16653D01*
X43877Y-16047D01*
X43842Y-15960D01*
X43775Y-15894D01*
X43688Y-15858D01*
X43594Y-15858D01*
X43181Y-15858D01*
X42760Y-15436D01*
X42725Y-15413D01*
X52238Y-15413D01*
X52276Y-15420D01*
X52288Y-15428D01*
X52295Y-15439D01*
X52303Y-15478D01*
X52303Y-37179D01*
G54D10*
G36*
X45102Y-30984D02*
X44665Y-30984D01*
X44665Y-31555D01*
X43945Y-31555D01*
X45002Y-29960D01*
X45094Y-29960D01*
X45094Y-29977D01*
X45078Y-30015D01*
X45078Y-30109D01*
X45078Y-30810D01*
X45102Y-30867D01*
X45102Y-30984D01*
X45102Y-30984D01*
G37*
G54D38*
X45102Y-30984D02*
X44665Y-30984D01*
X44665Y-31555D01*
X43945Y-31555D01*
X45002Y-29960D01*
X45094Y-29960D01*
X45094Y-29977D01*
X45078Y-30015D01*
X45078Y-30109D01*
X45078Y-30810D01*
X45102Y-30867D01*
X45102Y-30984D01*
G54D10*
G36*
X38840Y-21102D02*
X37775Y-22559D01*
X37690Y-22559D01*
X37696Y-22543D01*
X37696Y-22449D01*
X37696Y-21748D01*
X37673Y-21691D01*
X37673Y-21555D01*
X37798Y-21555D01*
X37885Y-21519D01*
X37889Y-21515D01*
X37952Y-21515D01*
X37952Y-21451D01*
X37988Y-21366D01*
X37988Y-21272D01*
X37988Y-21102D01*
X38840Y-21102D01*
X38840Y-21102D01*
G37*
G54D38*
X38840Y-21102D02*
X37775Y-22559D01*
X37690Y-22559D01*
X37696Y-22543D01*
X37696Y-22449D01*
X37696Y-21748D01*
X37673Y-21691D01*
X37673Y-21555D01*
X37798Y-21555D01*
X37885Y-21519D01*
X37889Y-21515D01*
X37952Y-21515D01*
X37952Y-21451D01*
X37988Y-21366D01*
X37988Y-21272D01*
X37988Y-21102D01*
X38840Y-21102D01*
M02*
