M48
INCH,TZ
T1C0.012
T2C0.016
T3C0.032
T4C0.051
T5C0.058
T6C0.087
%
G90
G05
T1
X2.4902Y-3.248
X2.4902Y-3.3858
X2.4902Y-3.4547
X2.4921Y-3.0827
X2.5079Y-2.5965
X2.5098Y-2.8445
X2.5098Y-2.9232
X2.5591Y-3.0827
X2.561Y-2.2402
X2.5748Y-1.9291
X2.5846Y-2.0768
X2.6043Y-2.6791
X2.6063Y-2.8031
X2.624Y-3.2421
X2.6299Y-2.5138
X2.6339Y-2.5728
X2.6378Y-2.4606
X2.6476Y-3.0827
X2.6594Y-3.5177
X2.6693Y-2.1614
X2.6772Y-3.437
X2.6831Y-3.2421
X2.7028Y-2.0374
X2.7047Y-1.9193
X2.7106Y-3.4961
X2.7106Y-3.6772
X2.7126Y-2.2598
X2.7146Y-2.6516
X2.7185Y-1.5846
X2.7618Y-2.565
X2.7618Y-3.2028
X2.7638Y-1.6988
X2.7913Y-2.7224
X2.7992Y-3.6319
X2.8012Y-2.1457
X2.8071Y-3.2461
X2.8209Y-1.6083
X2.8307Y-3.2028
X2.8311Y-3.4433
X2.8327Y-3.685
X2.8346Y-1.9193
X2.8425Y-3.2854
X2.8504Y-2.2697
X2.8504Y-2.624
X2.8524Y-2.0276
X2.8677Y-2.8378
X2.8677Y-3.0614
X2.8858Y-2.4528
X2.9173Y-3.5472
X2.935Y-1.5945
X2.9409Y-1.689
X2.9429Y-2.4902
X2.9449Y-1.9075
X2.9449Y-2.126
X2.9449Y-2.2402
X2.9469Y-3.0413
X2.9488Y-3.0866
X2.9606Y-2.0236
X2.9606Y-3.124
X2.9921Y-2.9764
X3.002Y-2.813
X3.0118Y-3.1339
X3.0167Y-2.9469
X3.0217Y-1.9094
X3.0335Y-2.6358
X3.0335Y-3.4016
X3.0531Y-2.935
X3.0551Y-2.8927
X3.0591Y-2.8012
X3.0591Y-3.1476
X3.0669Y-1.6378
X3.0669Y-3.4587
X3.0787Y-2.5768
X3.0787Y-3.6594
X3.0827Y-1.9626
X3.0827Y-2.1102
X3.0925Y-2.2185
X3.0988Y-3.15
X3.1004Y-2.5315
X3.124Y-3.4724
X3.124Y-3.689
X3.128Y-2.872
X3.1378Y-2.9941
X3.1457Y-2.4311
X3.1457Y-2.5571
X3.1516Y-1.9173
X3.1516Y-2.0354
X3.1555Y-1.7008
X3.1555Y-2.8445
X3.1673Y-2.2165
X3.1815Y-3.2681
X3.1969Y-2.9449
X3.1969Y-3.6811
X3.2087Y-1.5945
X3.2224Y-2.626
X3.252Y-3.3878
X3.2606Y-3.0571
X3.2614Y-3.5531
X3.2854Y-1.7008
X3.2854Y-2.5551
X3.2953Y-2.3898
X3.2976Y-3.602
X3.313Y-3.065
X3.3268Y-2.9193
X3.3287Y-3.2835
X3.3287Y-3.3661
X3.3366Y-1.7894
X3.3366Y-2.7736
X3.3386Y-2.4724
X3.3606Y-3.5039
X3.3701Y-2.3622
X3.372Y-3.3228
X3.376Y-1.5846
X3.376Y-2.063
X3.378Y-2.7165
X3.3799Y-2.2126
X3.4232Y-1.689
X3.4232Y-2.7185
X3.4386Y-2.8413
X3.4429Y-1.8012
X3.4587Y-2.1339
X3.4685Y-2.0413
X3.4701Y-2.9299
X3.5138Y-2.7323
X3.5315Y-1.6181
X3.5531Y-3.2913
X3.563Y-2.8051
X3.5768Y-3.3465
X3.5827Y-3.6043
X3.5925Y-2.6181
X3.602Y-3.2303
X3.6043Y-3.185
X3.6319Y-1.5906
X3.6358Y-3.2913
X3.6398Y-3.4094
X3.6496Y-2.2894
X3.6535Y-1.7657
X3.6555Y-1.878
X3.6555Y-1.998
X3.6555Y-2.1142
X3.7106Y-2.9547
X3.7106Y-3.063
X3.7598Y-3.6043
X3.7835Y-2.1791
X3.8268Y-2.1339
X3.9764Y-1.6358
X3.9764Y-3.6339
X4.2126Y-1.6358
X4.2126Y-3.6339
X4.437Y-3.1339
X4.4488Y-1.6358
X4.4488Y-3.6339
X4.4941Y-3.0827
X4.5079Y-2.8898
X4.8819Y-1.8209
X4.8819Y-1.9783
X4.8819Y-3.248
X4.8819Y-3.4055
X4.8819Y-3.563
X4.9606Y-1.8996
X4.9606Y-2.0571
X4.9606Y-3.3268
X4.9606Y-3.4843
X5.0394Y-1.8209
X5.0394Y-1.9783
X5.0394Y-2.1358
X5.0394Y-3.248
X5.0394Y-3.4055
T2
X3.4193Y-3.1772
X3.4902Y-3.1772
X4.626Y-2.1969
X4.626Y-2.248
X4.626Y-2.3031
X4.6654Y-2.1969
X4.6654Y-2.248
X4.6654Y-2.3031
X4.7047Y-2.1969
X4.7047Y-2.248
X4.7047Y-2.3031
X4.8228Y-2.1969
X4.8228Y-2.248
X4.8228Y-2.3031
X4.8622Y-2.1969
X4.8622Y-2.248
X4.8622Y-2.3031
X4.9016Y-2.1969
X4.9016Y-2.248
X4.9016Y-2.3031
T3
X3.6417Y-2.7059
X3.6417Y-2.8059
X3.6417Y-2.9059
X3.6417Y-3.0059
X3.6417Y-3.1059
X3.8583Y-1.6429
X3.8583Y-1.7429
X3.8583Y-1.8429
X3.8583Y-3.4228
X3.8583Y-3.5228
X3.8583Y-3.6228
X4.0945Y-1.6429
X4.0945Y-1.7429
X4.0945Y-1.8429
X4.0945Y-3.4228
X4.0945Y-3.5228
X4.0945Y-3.6228
X4.3307Y-1.6429
X4.3307Y-1.7429
X4.3307Y-1.8429
X4.3307Y-3.4228
X4.3307Y-3.5228
X4.3307Y-3.6228
X4.5669Y-1.6429
X4.5669Y-1.7429
X4.5669Y-1.8429
X4.5669Y-3.4228
X4.5669Y-3.5228
X4.5669Y-3.6228
T4
X2.5098Y-2.7283
X2.5098Y-3.0197
X2.6969Y-2.7283
X2.6969Y-3.0197
T5
X4.4902Y-2.5098
X4.6752Y-2.5098
X4.8602Y-2.5098
T6
X2.5787Y-1.6535
X2.5787Y-3.6122
X5.1181Y-1.6535
X5.1181Y-3.6122
T0
M30
