G04 (created by PCBNEW (2013-07-07 BZR 4022)-stable) date 8/5/2019 09:37:44*
%MOIN*%
G04 Gerber Fmt 3.4, Leading zero omitted, Abs format*
%FSLAX34Y34*%
G01*
G70*
G90*
G04 APERTURE LIST*
%ADD10C,0.00590551*%
%ADD11R,0.0907874X0.0199213*%
%ADD12R,0.0907874X0.0789764*%
%ADD13R,0.0691339X0.0789764*%
%ADD14C,0.118346*%
%ADD15R,0.0671654X0.0671654*%
%ADD16C,0.0671654*%
%ADD17R,0.118346X0.0868504*%
%ADD18R,0.0403937X0.070315*%
%ADD19R,0.070315X0.0403937*%
%ADD20R,0.0108661X0.0474803*%
%ADD21R,0.0474803X0.0108661*%
%ADD22R,0.197087X0.157717*%
%ADD23R,0.0246457X0.0482677*%
%ADD24R,0.0435433X0.0238583*%
%ADD25C,0.141969*%
%ADD26R,0.156047X0.0920472*%
%ADD27R,0.0514173X0.0802362*%
%ADD28C,0.0356693*%
%ADD29R,0.0592913X0.0474803*%
%ADD30R,0.0396063X0.0789764*%
%ADD31R,0.0789764X0.0396063*%
G04 APERTURE END LIST*
G54D10*
G54D11*
X26968Y-28110D03*
X26968Y-28425D03*
X26968Y-28740D03*
X26968Y-29055D03*
X26968Y-29370D03*
G54D12*
X26968Y-27283D03*
X26968Y-30196D03*
G54D13*
X25098Y-27283D03*
X25098Y-30196D03*
G54D12*
X25206Y-27283D03*
X25206Y-30196D03*
G54D14*
X44901Y-25098D03*
X46751Y-25098D03*
X48602Y-25098D03*
G54D15*
X45669Y-36228D03*
G54D16*
X45669Y-35228D03*
X45669Y-34228D03*
G54D15*
X40944Y-36228D03*
G54D16*
X40944Y-35228D03*
X40944Y-34228D03*
G54D15*
X38582Y-36228D03*
G54D16*
X38582Y-35228D03*
X38582Y-34228D03*
G54D15*
X38582Y-16429D03*
G54D16*
X38582Y-17429D03*
X38582Y-18429D03*
G54D15*
X40944Y-16429D03*
G54D16*
X40944Y-17429D03*
X40944Y-18429D03*
G54D15*
X45669Y-16429D03*
G54D16*
X45669Y-17429D03*
X45669Y-18429D03*
G54D15*
X43307Y-16429D03*
G54D16*
X43307Y-17429D03*
X43307Y-18429D03*
G54D15*
X43307Y-36228D03*
G54D16*
X43307Y-35228D03*
X43307Y-34228D03*
G54D17*
X43996Y-22165D03*
X43996Y-20354D03*
X38779Y-30492D03*
X38779Y-32303D03*
G54D18*
X34307Y-35629D03*
X33606Y-35629D03*
X47287Y-34448D03*
X47988Y-34448D03*
X37259Y-32283D03*
X36559Y-32283D03*
X37259Y-33464D03*
X36559Y-33464D03*
X45417Y-27263D03*
X46118Y-27263D03*
X37259Y-19389D03*
X36559Y-19389D03*
G54D19*
X25295Y-31944D03*
X25295Y-31244D03*
G54D20*
X29921Y-30610D03*
X30118Y-30610D03*
X30314Y-30610D03*
X30511Y-30610D03*
X30708Y-30610D03*
X30905Y-30610D03*
X31102Y-30610D03*
X31299Y-30610D03*
X31496Y-30610D03*
X31692Y-30610D03*
X31889Y-30610D03*
X32086Y-30610D03*
G54D21*
X32677Y-30019D03*
X32677Y-29822D03*
X32677Y-29625D03*
X32677Y-29429D03*
X32677Y-29232D03*
X32677Y-29035D03*
X32677Y-28838D03*
X32677Y-28641D03*
X32677Y-28444D03*
X32677Y-28248D03*
X32677Y-28051D03*
X32677Y-27854D03*
G54D20*
X32086Y-27263D03*
X31889Y-27263D03*
X31692Y-27263D03*
X31496Y-27263D03*
X31299Y-27263D03*
X31102Y-27263D03*
X30905Y-27263D03*
X30708Y-27263D03*
X30511Y-27263D03*
X30314Y-27263D03*
X30118Y-27263D03*
X29921Y-27263D03*
G54D21*
X29330Y-27854D03*
X29330Y-28051D03*
X29330Y-28248D03*
X29330Y-28444D03*
X29330Y-28641D03*
X29330Y-28838D03*
X29330Y-29035D03*
X29330Y-29232D03*
X29330Y-29429D03*
X29330Y-29625D03*
X29330Y-29822D03*
X29330Y-30019D03*
G54D22*
X40748Y-25196D03*
X40748Y-22047D03*
X42027Y-27460D03*
X42027Y-30610D03*
G54D23*
X44704Y-29354D03*
X45078Y-29354D03*
X45452Y-29354D03*
X45452Y-28322D03*
X45078Y-28322D03*
X44704Y-28322D03*
G54D18*
X47287Y-18011D03*
X47988Y-18011D03*
X32535Y-34448D03*
X31834Y-34448D03*
G54D24*
X26437Y-33543D03*
X26437Y-32795D03*
X25334Y-33543D03*
X26437Y-33169D03*
X25334Y-32795D03*
G54D23*
X38070Y-23204D03*
X37696Y-23204D03*
X37322Y-23204D03*
X37322Y-24236D03*
X37696Y-24236D03*
X38070Y-24236D03*
G54D19*
X26574Y-31944D03*
X26574Y-31244D03*
G54D18*
X37161Y-25590D03*
X36460Y-25590D03*
X30566Y-24901D03*
X29866Y-24901D03*
X30960Y-33267D03*
X30259Y-33267D03*
X37259Y-22145D03*
X36559Y-22145D03*
X29177Y-26082D03*
X29877Y-26082D03*
X34000Y-30511D03*
X34700Y-30511D03*
G54D19*
X28248Y-29078D03*
X28248Y-29779D03*
X35137Y-26728D03*
X35137Y-26027D03*
X35629Y-24562D03*
X35629Y-23862D03*
G54D18*
X27909Y-33858D03*
X27208Y-33858D03*
G54D19*
X45275Y-32141D03*
X45275Y-31440D03*
X37401Y-20417D03*
X37401Y-21118D03*
G54D18*
X45515Y-30413D03*
X46216Y-30413D03*
X26137Y-34547D03*
X25437Y-34547D03*
G54D19*
X27755Y-35685D03*
X27755Y-34984D03*
G54D18*
X32535Y-33267D03*
X31834Y-33267D03*
X37259Y-34645D03*
X36559Y-34645D03*
X32535Y-32086D03*
X31834Y-32086D03*
X31440Y-24901D03*
X32141Y-24901D03*
X28303Y-31397D03*
X27602Y-31397D03*
X30960Y-32086D03*
X30259Y-32086D03*
X47287Y-19192D03*
X47988Y-19192D03*
G54D19*
X46948Y-16984D03*
X46948Y-16283D03*
G54D18*
X47287Y-20374D03*
X47988Y-20374D03*
G54D19*
X46948Y-35476D03*
X46948Y-36177D03*
G54D18*
X47287Y-32086D03*
X47988Y-32086D03*
X47287Y-33267D03*
X47988Y-33267D03*
X37259Y-18208D03*
X36559Y-18208D03*
G54D15*
X36417Y-27059D03*
G54D16*
X36417Y-28059D03*
X36417Y-29059D03*
X36417Y-30059D03*
X36417Y-31059D03*
G54D25*
X25787Y-16535D03*
X25787Y-36122D03*
X51181Y-36122D03*
X51181Y-16535D03*
G54D26*
X34547Y-31770D03*
G54D27*
X34547Y-34370D03*
X35447Y-34370D03*
X33647Y-34370D03*
G54D18*
X29877Y-36476D03*
X29177Y-36476D03*
G54D28*
X49015Y-23031D03*
X49015Y-22480D03*
X49015Y-21968D03*
X46259Y-23031D03*
X46259Y-22480D03*
X46259Y-21968D03*
X46653Y-21968D03*
X47047Y-21968D03*
X47047Y-22480D03*
X46653Y-22480D03*
X46653Y-23031D03*
X47047Y-23031D03*
X48228Y-21968D03*
X48622Y-21968D03*
X48622Y-22480D03*
X48228Y-22480D03*
X48228Y-23031D03*
X48622Y-23031D03*
G54D29*
X33956Y-27657D03*
X33956Y-29429D03*
G54D30*
X24960Y-18110D03*
X25551Y-18110D03*
X26732Y-18110D03*
X26141Y-18110D03*
X28503Y-18110D03*
X29094Y-18110D03*
X27913Y-18110D03*
X27322Y-18110D03*
X30275Y-18110D03*
X30866Y-18110D03*
X32047Y-18110D03*
X31456Y-18110D03*
X29685Y-18110D03*
G54D31*
X32933Y-22933D03*
X32933Y-22342D03*
X32933Y-21161D03*
X32933Y-21751D03*
X32933Y-19389D03*
X32933Y-18799D03*
X32933Y-19980D03*
X32933Y-20570D03*
G54D30*
X29685Y-23622D03*
X31456Y-23622D03*
X32047Y-23622D03*
X30866Y-23622D03*
X30275Y-23622D03*
X27322Y-23622D03*
X27913Y-23622D03*
X29094Y-23622D03*
X28503Y-23622D03*
X26141Y-23622D03*
X26732Y-23622D03*
X25551Y-23622D03*
X24960Y-23622D03*
M02*
