G04 (created by PCBNEW (2013-07-07 BZR 4022)-stable) date 8/5/2019 09:37:44*
%MOIN*%
G04 Gerber Fmt 3.4, Leading zero omitted, Abs format*
%FSLAX34Y34*%
G01*
G70*
G90*
G04 APERTURE LIST*
%ADD10C,0.00590551*%
%ADD11C,0.0127953*%
%ADD12C,0.00787402*%
%ADD13C,0.00984252*%
%ADD14C,0.0001*%
%ADD15R,0.0907874X0.0199213*%
%ADD16R,0.0907874X0.0789764*%
%ADD17R,0.0691339X0.0789764*%
%ADD18C,0.118346*%
%ADD19R,0.0671654X0.0671654*%
%ADD20C,0.0671654*%
%ADD21R,0.118346X0.0868504*%
%ADD22R,0.0403937X0.070315*%
%ADD23R,0.070315X0.0403937*%
%ADD24R,0.0108661X0.0474803*%
%ADD25R,0.0474803X0.0108661*%
%ADD26R,0.197087X0.157717*%
%ADD27R,0.0246457X0.0482677*%
%ADD28R,0.0435433X0.0238583*%
%ADD29C,0.141969*%
%ADD30R,0.156047X0.0920472*%
%ADD31R,0.0514173X0.0802362*%
%ADD32C,0.0356693*%
%ADD33R,0.0592913X0.0474803*%
%ADD34R,0.0396063X0.0789764*%
%ADD35R,0.0789764X0.0396063*%
G04 APERTURE END LIST*
G54D10*
G54D11*
X51073Y-34460D02*
X51585Y-34338D01*
X51219Y-34240D01*
X51585Y-34143D01*
X51073Y-34021D01*
X51073Y-33875D02*
X51585Y-33753D01*
X51219Y-33655D01*
X51585Y-33558D01*
X51073Y-33436D01*
X51073Y-33290D02*
X51585Y-33168D01*
X51219Y-33070D01*
X51585Y-32973D01*
X51073Y-32851D01*
X51536Y-32656D02*
X51560Y-32632D01*
X51585Y-32656D01*
X51560Y-32680D01*
X51536Y-32656D01*
X51585Y-32656D01*
X51585Y-32120D02*
X51341Y-32290D01*
X51585Y-32412D02*
X51073Y-32412D01*
X51073Y-32217D01*
X51097Y-32169D01*
X51122Y-32144D01*
X51170Y-32120D01*
X51243Y-32120D01*
X51292Y-32144D01*
X51317Y-32169D01*
X51341Y-32217D01*
X51341Y-32412D01*
X51073Y-31803D02*
X51073Y-31706D01*
X51097Y-31657D01*
X51146Y-31608D01*
X51243Y-31584D01*
X51414Y-31584D01*
X51511Y-31608D01*
X51560Y-31657D01*
X51585Y-31706D01*
X51585Y-31803D01*
X51560Y-31852D01*
X51511Y-31901D01*
X51414Y-31925D01*
X51243Y-31925D01*
X51146Y-31901D01*
X51097Y-31852D01*
X51073Y-31803D01*
X51536Y-31072D02*
X51560Y-31096D01*
X51585Y-31169D01*
X51585Y-31218D01*
X51560Y-31291D01*
X51511Y-31340D01*
X51463Y-31364D01*
X51365Y-31389D01*
X51292Y-31389D01*
X51195Y-31364D01*
X51146Y-31340D01*
X51097Y-31291D01*
X51073Y-31218D01*
X51073Y-31169D01*
X51097Y-31096D01*
X51122Y-31072D01*
X51585Y-30853D02*
X51073Y-30853D01*
X51585Y-30560D02*
X51292Y-30779D01*
X51073Y-30560D02*
X51365Y-30853D01*
X51317Y-30341D02*
X51317Y-30170D01*
X51585Y-30097D02*
X51585Y-30341D01*
X51073Y-30341D01*
X51073Y-30097D01*
X51073Y-29951D02*
X51073Y-29658D01*
X51585Y-29805D02*
X51073Y-29805D01*
X51390Y-29488D02*
X51390Y-29098D01*
X51560Y-28878D02*
X51585Y-28805D01*
X51585Y-28683D01*
X51560Y-28635D01*
X51536Y-28610D01*
X51487Y-28586D01*
X51438Y-28586D01*
X51390Y-28610D01*
X51365Y-28635D01*
X51341Y-28683D01*
X51317Y-28781D01*
X51292Y-28830D01*
X51268Y-28854D01*
X51219Y-28878D01*
X51170Y-28878D01*
X51122Y-28854D01*
X51097Y-28830D01*
X51073Y-28781D01*
X51073Y-28659D01*
X51097Y-28586D01*
X51536Y-28074D02*
X51560Y-28098D01*
X51585Y-28172D01*
X51585Y-28220D01*
X51560Y-28293D01*
X51511Y-28342D01*
X51463Y-28367D01*
X51365Y-28391D01*
X51292Y-28391D01*
X51195Y-28367D01*
X51146Y-28342D01*
X51097Y-28293D01*
X51073Y-28220D01*
X51073Y-28172D01*
X51097Y-28098D01*
X51122Y-28074D01*
X51585Y-27855D02*
X51073Y-27855D01*
X51317Y-27611D02*
X51317Y-27440D01*
X51585Y-27367D02*
X51585Y-27611D01*
X51073Y-27611D01*
X51073Y-27367D01*
X51585Y-27148D02*
X51073Y-27148D01*
X51585Y-26856D01*
X51073Y-26856D01*
X51073Y-26685D02*
X51073Y-26392D01*
X51585Y-26539D02*
X51073Y-26539D01*
X51585Y-26222D02*
X51073Y-26222D01*
X51560Y-26002D02*
X51585Y-25929D01*
X51585Y-25808D01*
X51560Y-25759D01*
X51536Y-25734D01*
X51487Y-25710D01*
X51438Y-25710D01*
X51390Y-25734D01*
X51365Y-25759D01*
X51341Y-25808D01*
X51317Y-25905D01*
X51292Y-25954D01*
X51268Y-25978D01*
X51219Y-26002D01*
X51170Y-26002D01*
X51122Y-25978D01*
X51097Y-25954D01*
X51073Y-25905D01*
X51073Y-25783D01*
X51097Y-25710D01*
X51073Y-25564D02*
X51073Y-25271D01*
X51585Y-25418D02*
X51073Y-25418D01*
X51536Y-25101D02*
X51560Y-25076D01*
X51585Y-25101D01*
X51560Y-25125D01*
X51536Y-25101D01*
X51585Y-25101D01*
X51585Y-24857D02*
X51073Y-24857D01*
X51438Y-24686D01*
X51073Y-24516D01*
X51585Y-24516D01*
X51317Y-24272D02*
X51317Y-24101D01*
X51585Y-24028D02*
X51585Y-24272D01*
X51073Y-24272D01*
X51073Y-24028D01*
G54D12*
X36642Y-24735D02*
X36659Y-24685D01*
X36659Y-24600D01*
X36642Y-24566D01*
X36625Y-24550D01*
X36591Y-24533D01*
X36557Y-24533D01*
X36524Y-24550D01*
X36507Y-24566D01*
X36490Y-24600D01*
X36473Y-24668D01*
X36456Y-24701D01*
X36439Y-24718D01*
X36406Y-24735D01*
X36372Y-24735D01*
X36338Y-24718D01*
X36321Y-24701D01*
X36304Y-24668D01*
X36304Y-24583D01*
X36321Y-24533D01*
X36304Y-24431D02*
X36304Y-24229D01*
X36659Y-24330D02*
X36304Y-24330D01*
X36557Y-24128D02*
X36557Y-23959D01*
X36659Y-24161D02*
X36304Y-24043D01*
X36659Y-23925D01*
X36304Y-23858D02*
X36304Y-23655D01*
X36659Y-23757D02*
X36304Y-23757D01*
X39024Y-20295D02*
X38982Y-20274D01*
X38941Y-20233D01*
X38879Y-20171D01*
X38838Y-20150D01*
X38797Y-20150D01*
X38817Y-20254D02*
X38776Y-20233D01*
X38735Y-20192D01*
X38714Y-20109D01*
X38714Y-19965D01*
X38735Y-19882D01*
X38776Y-19841D01*
X38817Y-19820D01*
X38900Y-19820D01*
X38941Y-19841D01*
X38982Y-19882D01*
X39003Y-19965D01*
X39003Y-20109D01*
X38982Y-20192D01*
X38941Y-20233D01*
X38900Y-20254D01*
X38817Y-20254D01*
X39374Y-19965D02*
X39374Y-20254D01*
X39189Y-19965D02*
X39189Y-20192D01*
X39209Y-20233D01*
X39251Y-20254D01*
X39312Y-20254D01*
X39354Y-20233D01*
X39374Y-20212D01*
X39766Y-20254D02*
X39766Y-20027D01*
X39745Y-19985D01*
X39704Y-19965D01*
X39622Y-19965D01*
X39580Y-19985D01*
X39766Y-20233D02*
X39725Y-20254D01*
X39622Y-20254D01*
X39580Y-20233D01*
X39560Y-20192D01*
X39560Y-20150D01*
X39580Y-20109D01*
X39622Y-20089D01*
X39725Y-20089D01*
X39766Y-20068D01*
X40158Y-20254D02*
X40158Y-19820D01*
X40158Y-20233D02*
X40117Y-20254D01*
X40034Y-20254D01*
X39993Y-20233D01*
X39972Y-20212D01*
X39952Y-20171D01*
X39952Y-20047D01*
X39972Y-20006D01*
X39993Y-19985D01*
X40034Y-19965D01*
X40117Y-19965D01*
X40158Y-19985D01*
X40364Y-20254D02*
X40364Y-19965D01*
X40364Y-20047D02*
X40385Y-20006D01*
X40405Y-19985D01*
X40447Y-19965D01*
X40488Y-19965D01*
X40818Y-19965D02*
X40818Y-20254D01*
X40632Y-19965D02*
X40632Y-20192D01*
X40653Y-20233D01*
X40694Y-20254D01*
X40756Y-20254D01*
X40797Y-20233D01*
X40818Y-20212D01*
X41024Y-19965D02*
X41024Y-20398D01*
X41024Y-19985D02*
X41065Y-19965D01*
X41148Y-19965D01*
X41189Y-19985D01*
X41210Y-20006D01*
X41230Y-20047D01*
X41230Y-20171D01*
X41210Y-20212D01*
X41189Y-20233D01*
X41148Y-20254D01*
X41065Y-20254D01*
X41024Y-20233D01*
X41581Y-20233D02*
X41540Y-20254D01*
X41457Y-20254D01*
X41416Y-20233D01*
X41395Y-20192D01*
X41395Y-20027D01*
X41416Y-19985D01*
X41457Y-19965D01*
X41540Y-19965D01*
X41581Y-19985D01*
X41601Y-20027D01*
X41601Y-20068D01*
X41395Y-20109D01*
X41973Y-20254D02*
X41973Y-19820D01*
X41973Y-20233D02*
X41931Y-20254D01*
X41849Y-20254D01*
X41808Y-20233D01*
X41787Y-20212D01*
X41766Y-20171D01*
X41766Y-20047D01*
X41787Y-20006D01*
X41808Y-19985D01*
X41849Y-19965D01*
X41931Y-19965D01*
X41973Y-19985D01*
X28751Y-35764D02*
X28768Y-35781D01*
X28785Y-35832D01*
X28785Y-35866D01*
X28768Y-35916D01*
X28734Y-35950D01*
X28700Y-35967D01*
X28633Y-35984D01*
X28582Y-35984D01*
X28515Y-35967D01*
X28481Y-35950D01*
X28447Y-35916D01*
X28430Y-35866D01*
X28430Y-35832D01*
X28447Y-35781D01*
X28464Y-35764D01*
X28785Y-35613D02*
X28430Y-35613D01*
X28599Y-35613D02*
X28599Y-35410D01*
X28785Y-35410D02*
X28430Y-35410D01*
X28785Y-35039D02*
X28616Y-35157D01*
X28785Y-35241D02*
X28430Y-35241D01*
X28430Y-35106D01*
X28447Y-35073D01*
X28464Y-35056D01*
X28498Y-35039D01*
X28548Y-35039D01*
X28582Y-35056D01*
X28599Y-35073D01*
X28616Y-35106D01*
X28616Y-35241D01*
X28447Y-34701D02*
X28430Y-34735D01*
X28430Y-34786D01*
X28447Y-34836D01*
X28481Y-34870D01*
X28515Y-34887D01*
X28582Y-34904D01*
X28633Y-34904D01*
X28700Y-34887D01*
X28734Y-34870D01*
X28768Y-34836D01*
X28785Y-34786D01*
X28785Y-34752D01*
X28768Y-34701D01*
X28751Y-34685D01*
X28633Y-34685D01*
X28633Y-34752D01*
G54D13*
X37549Y-26663D02*
X37549Y-27450D01*
X37155Y-27057D02*
X37549Y-26663D01*
X37155Y-27057D02*
X37549Y-27450D01*
G54D12*
X35281Y-29057D02*
X35112Y-29176D01*
X35281Y-29260D02*
X34926Y-29260D01*
X34926Y-29125D01*
X34943Y-29091D01*
X34960Y-29074D01*
X34994Y-29057D01*
X35044Y-29057D01*
X35078Y-29074D01*
X35095Y-29091D01*
X35112Y-29125D01*
X35112Y-29260D01*
X35095Y-28906D02*
X35095Y-28787D01*
X35281Y-28737D02*
X35281Y-28906D01*
X34926Y-28906D01*
X34926Y-28737D01*
X35264Y-28602D02*
X35281Y-28551D01*
X35281Y-28467D01*
X35264Y-28433D01*
X35247Y-28416D01*
X35213Y-28399D01*
X35179Y-28399D01*
X35146Y-28416D01*
X35129Y-28433D01*
X35112Y-28467D01*
X35095Y-28534D01*
X35078Y-28568D01*
X35061Y-28585D01*
X35028Y-28602D01*
X34994Y-28602D01*
X34960Y-28585D01*
X34943Y-28568D01*
X34926Y-28534D01*
X34926Y-28450D01*
X34943Y-28399D01*
X35095Y-28248D02*
X35095Y-28129D01*
X35281Y-28079D02*
X35281Y-28248D01*
X34926Y-28248D01*
X34926Y-28079D01*
X34926Y-27978D02*
X34926Y-27775D01*
X35281Y-27876D02*
X34926Y-27876D01*
G54D13*
X49704Y-24901D02*
X50098Y-25295D01*
X50212Y-25098D02*
G75*
G03X50212Y-25098I-311J0D01*
G74*
G01*
X43913Y-25098D02*
G75*
G03X43913Y-25098I-311J0D01*
G74*
G01*
X25885Y-30196D02*
X26279Y-30196D01*
X25885Y-27283D02*
X26279Y-27283D01*
G54D14*
G36*
X35598Y-21916D02*
X35623Y-21917D01*
X35647Y-21918D01*
X35668Y-21920D01*
X35682Y-21923D01*
X35715Y-21935D01*
X35743Y-21950D01*
X35768Y-21969D01*
X35782Y-21985D01*
X35614Y-21985D01*
X35585Y-21987D01*
X35558Y-21993D01*
X35538Y-22001D01*
X35515Y-22014D01*
X35498Y-22029D01*
X35486Y-22047D01*
X35479Y-22066D01*
X35474Y-22090D01*
X35475Y-22112D01*
X35481Y-22133D01*
X35492Y-22152D01*
X35495Y-22155D01*
X35509Y-22169D01*
X35526Y-22179D01*
X35546Y-22187D01*
X35571Y-22193D01*
X35590Y-22196D01*
X35622Y-22197D01*
X35651Y-22194D01*
X35678Y-22186D01*
X35701Y-22175D01*
X35721Y-22159D01*
X35733Y-22144D01*
X35744Y-22123D01*
X35750Y-22101D01*
X35749Y-22079D01*
X35743Y-22056D01*
X35741Y-22050D01*
X35731Y-22034D01*
X35717Y-22018D01*
X35700Y-22005D01*
X35693Y-22001D01*
X35669Y-21992D01*
X35642Y-21986D01*
X35614Y-21985D01*
X35782Y-21985D01*
X35788Y-21991D01*
X35803Y-22016D01*
X35812Y-22038D01*
X35815Y-22056D01*
X35817Y-22075D01*
X35818Y-22095D01*
X35817Y-22111D01*
X35809Y-22146D01*
X35797Y-22176D01*
X35781Y-22203D01*
X35761Y-22224D01*
X35737Y-22242D01*
X35709Y-22255D01*
X35695Y-22259D01*
X35683Y-22262D01*
X35667Y-22263D01*
X35647Y-22265D01*
X35625Y-22265D01*
X35603Y-22265D01*
X35581Y-22265D01*
X35560Y-22264D01*
X35544Y-22262D01*
X35531Y-22260D01*
X35530Y-22259D01*
X35499Y-22248D01*
X35473Y-22233D01*
X35451Y-22215D01*
X35433Y-22192D01*
X35420Y-22166D01*
X35416Y-22154D01*
X35413Y-22139D01*
X35411Y-22119D01*
X35410Y-22098D01*
X35410Y-22077D01*
X35411Y-22057D01*
X35413Y-22048D01*
X35422Y-22017D01*
X35436Y-21991D01*
X35454Y-21968D01*
X35476Y-21949D01*
X35503Y-21934D01*
X35534Y-21923D01*
X35552Y-21920D01*
X35574Y-21918D01*
X35598Y-21916D01*
X35598Y-21916D01*
X35598Y-21916D01*
G37*
G36*
X35654Y-21009D02*
X35680Y-21010D01*
X35699Y-21013D01*
X35727Y-21022D01*
X35752Y-21035D01*
X35773Y-21053D01*
X35791Y-21076D01*
X35804Y-21102D01*
X35814Y-21132D01*
X35815Y-21136D01*
X35817Y-21149D01*
X35818Y-21166D01*
X35819Y-21186D01*
X35819Y-21205D01*
X35818Y-21223D01*
X35817Y-21237D01*
X35817Y-21237D01*
X35810Y-21269D01*
X35799Y-21298D01*
X35783Y-21324D01*
X35763Y-21346D01*
X35740Y-21365D01*
X35713Y-21378D01*
X35694Y-21385D01*
X35673Y-21389D01*
X35655Y-21389D01*
X35642Y-21385D01*
X35633Y-21377D01*
X35628Y-21366D01*
X35627Y-21358D01*
X35630Y-21344D01*
X35638Y-21332D01*
X35652Y-21321D01*
X35672Y-21311D01*
X35675Y-21309D01*
X35698Y-21298D01*
X35715Y-21285D01*
X35729Y-21268D01*
X35734Y-21259D01*
X35741Y-21238D01*
X35746Y-21216D01*
X35748Y-21193D01*
X35747Y-21169D01*
X35743Y-21147D01*
X35736Y-21128D01*
X35727Y-21111D01*
X35720Y-21103D01*
X35708Y-21094D01*
X35695Y-21088D01*
X35679Y-21084D01*
X35674Y-21084D01*
X35658Y-21083D01*
X35645Y-21083D01*
X35633Y-21087D01*
X35623Y-21093D01*
X35613Y-21102D01*
X35604Y-21116D01*
X35596Y-21133D01*
X35587Y-21155D01*
X35577Y-21182D01*
X35570Y-21206D01*
X35560Y-21237D01*
X35552Y-21262D01*
X35544Y-21283D01*
X35537Y-21301D01*
X35530Y-21315D01*
X35523Y-21326D01*
X35515Y-21336D01*
X35506Y-21344D01*
X35496Y-21352D01*
X35493Y-21354D01*
X35472Y-21366D01*
X35447Y-21373D01*
X35421Y-21377D01*
X35394Y-21377D01*
X35375Y-21373D01*
X35350Y-21364D01*
X35328Y-21349D01*
X35308Y-21331D01*
X35292Y-21308D01*
X35280Y-21282D01*
X35270Y-21253D01*
X35266Y-21222D01*
X35265Y-21189D01*
X35269Y-21156D01*
X35275Y-21128D01*
X35285Y-21103D01*
X35300Y-21081D01*
X35314Y-21064D01*
X35331Y-21050D01*
X35348Y-21039D01*
X35367Y-21030D01*
X35386Y-21024D01*
X35403Y-21021D01*
X35419Y-21022D01*
X35432Y-21026D01*
X35437Y-21031D01*
X35443Y-21040D01*
X35445Y-21052D01*
X35443Y-21065D01*
X35438Y-21076D01*
X35430Y-21086D01*
X35418Y-21094D01*
X35406Y-21097D01*
X35405Y-21097D01*
X35391Y-21100D01*
X35377Y-21108D01*
X35365Y-21120D01*
X35355Y-21136D01*
X35346Y-21155D01*
X35340Y-21175D01*
X35337Y-21197D01*
X35337Y-21218D01*
X35338Y-21229D01*
X35343Y-21251D01*
X35352Y-21269D01*
X35365Y-21284D01*
X35366Y-21286D01*
X35382Y-21297D01*
X35399Y-21302D01*
X35417Y-21302D01*
X35435Y-21296D01*
X35440Y-21293D01*
X35452Y-21285D01*
X35462Y-21275D01*
X35470Y-21262D01*
X35478Y-21246D01*
X35485Y-21225D01*
X35489Y-21212D01*
X35500Y-21171D01*
X35512Y-21136D01*
X35523Y-21106D01*
X35535Y-21081D01*
X35546Y-21061D01*
X35559Y-21045D01*
X35572Y-21032D01*
X35586Y-21023D01*
X35606Y-21016D01*
X35629Y-21011D01*
X35654Y-21009D01*
X35654Y-21009D01*
X35654Y-21009D01*
G37*
G36*
X35430Y-22310D02*
X35458Y-22312D01*
X35483Y-22318D01*
X35506Y-22329D01*
X35526Y-22345D01*
X35531Y-22350D01*
X35548Y-22367D01*
X35566Y-22354D01*
X35575Y-22346D01*
X35584Y-22341D01*
X35591Y-22337D01*
X35591Y-22337D01*
X35596Y-22336D01*
X35607Y-22334D01*
X35621Y-22333D01*
X35638Y-22330D01*
X35658Y-22328D01*
X35678Y-22326D01*
X35699Y-22323D01*
X35719Y-22321D01*
X35738Y-22319D01*
X35753Y-22318D01*
X35766Y-22317D01*
X35773Y-22317D01*
X35773Y-22317D01*
X35789Y-22319D01*
X35801Y-22325D01*
X35808Y-22334D01*
X35810Y-22346D01*
X35808Y-22359D01*
X35803Y-22368D01*
X35797Y-22376D01*
X35787Y-22382D01*
X35774Y-22387D01*
X35770Y-22388D01*
X35442Y-22388D01*
X35432Y-22388D01*
X35425Y-22388D01*
X35405Y-22391D01*
X35389Y-22396D01*
X35376Y-22405D01*
X35368Y-22412D01*
X35363Y-22420D01*
X35358Y-22428D01*
X35355Y-22438D01*
X35352Y-22452D01*
X35350Y-22471D01*
X35350Y-22472D01*
X35349Y-22483D01*
X35348Y-22497D01*
X35348Y-22514D01*
X35348Y-22532D01*
X35348Y-22551D01*
X35348Y-22569D01*
X35348Y-22585D01*
X35349Y-22599D01*
X35350Y-22608D01*
X35351Y-22612D01*
X35353Y-22615D01*
X35357Y-22617D01*
X35363Y-22619D01*
X35373Y-22620D01*
X35386Y-22621D01*
X35405Y-22622D01*
X35406Y-22622D01*
X35421Y-22623D01*
X35438Y-22623D01*
X35455Y-22622D01*
X35472Y-22621D01*
X35487Y-22620D01*
X35500Y-22618D01*
X35508Y-22617D01*
X35510Y-22616D01*
X35511Y-22612D01*
X35512Y-22604D01*
X35512Y-22592D01*
X35512Y-22576D01*
X35511Y-22558D01*
X35511Y-22540D01*
X35510Y-22521D01*
X35509Y-22502D01*
X35508Y-22485D01*
X35507Y-22471D01*
X35506Y-22464D01*
X35502Y-22441D01*
X35495Y-22423D01*
X35495Y-22423D01*
X35490Y-22414D01*
X35485Y-22407D01*
X35477Y-22402D01*
X35468Y-22397D01*
X35458Y-22392D01*
X35450Y-22389D01*
X35442Y-22388D01*
X35770Y-22388D01*
X35757Y-22391D01*
X35734Y-22395D01*
X35731Y-22395D01*
X35713Y-22397D01*
X35693Y-22400D01*
X35673Y-22403D01*
X35664Y-22404D01*
X35643Y-22407D01*
X35627Y-22412D01*
X35616Y-22416D01*
X35606Y-22422D01*
X35598Y-22429D01*
X35592Y-22438D01*
X35588Y-22449D01*
X35585Y-22465D01*
X35583Y-22485D01*
X35583Y-22491D01*
X35582Y-22508D01*
X35581Y-22526D01*
X35581Y-22545D01*
X35581Y-22564D01*
X35582Y-22581D01*
X35582Y-22595D01*
X35584Y-22605D01*
X35585Y-22610D01*
X35586Y-22613D01*
X35589Y-22616D01*
X35592Y-22618D01*
X35598Y-22619D01*
X35606Y-22620D01*
X35618Y-22621D01*
X35633Y-22622D01*
X35652Y-22623D01*
X35677Y-22623D01*
X35696Y-22624D01*
X35723Y-22624D01*
X35745Y-22624D01*
X35763Y-22625D01*
X35776Y-22626D01*
X35786Y-22627D01*
X35793Y-22628D01*
X35798Y-22631D01*
X35801Y-22633D01*
X35804Y-22637D01*
X35806Y-22641D01*
X35806Y-22643D01*
X35810Y-22654D01*
X35809Y-22664D01*
X35806Y-22672D01*
X35805Y-22675D01*
X35804Y-22678D01*
X35803Y-22680D01*
X35801Y-22683D01*
X35798Y-22684D01*
X35794Y-22686D01*
X35788Y-22687D01*
X35780Y-22688D01*
X35770Y-22689D01*
X35757Y-22689D01*
X35740Y-22689D01*
X35721Y-22690D01*
X35697Y-22690D01*
X35669Y-22690D01*
X35636Y-22690D01*
X35598Y-22690D01*
X35555Y-22690D01*
X35539Y-22690D01*
X35495Y-22689D01*
X35456Y-22689D01*
X35422Y-22689D01*
X35393Y-22689D01*
X35368Y-22689D01*
X35348Y-22689D01*
X35331Y-22689D01*
X35317Y-22688D01*
X35307Y-22688D01*
X35298Y-22687D01*
X35292Y-22687D01*
X35288Y-22686D01*
X35286Y-22686D01*
X35284Y-22685D01*
X35283Y-22684D01*
X35283Y-22684D01*
X35282Y-22681D01*
X35281Y-22676D01*
X35280Y-22667D01*
X35280Y-22655D01*
X35279Y-22639D01*
X35279Y-22619D01*
X35279Y-22593D01*
X35279Y-22572D01*
X35279Y-22537D01*
X35279Y-22508D01*
X35280Y-22483D01*
X35281Y-22463D01*
X35282Y-22445D01*
X35283Y-22431D01*
X35285Y-22420D01*
X35287Y-22409D01*
X35290Y-22401D01*
X35293Y-22392D01*
X35295Y-22388D01*
X35310Y-22365D01*
X35329Y-22345D01*
X35352Y-22329D01*
X35378Y-22318D01*
X35406Y-22311D01*
X35430Y-22310D01*
X35430Y-22310D01*
X35430Y-22310D01*
G37*
G36*
X35587Y-21449D02*
X35626Y-21449D01*
X35661Y-21449D01*
X35690Y-21450D01*
X35715Y-21450D01*
X35736Y-21451D01*
X35754Y-21453D01*
X35768Y-21454D01*
X35780Y-21456D01*
X35788Y-21458D01*
X35795Y-21461D01*
X35800Y-21464D01*
X35804Y-21468D01*
X35807Y-21472D01*
X35807Y-21473D01*
X35809Y-21483D01*
X35807Y-21495D01*
X35803Y-21506D01*
X35798Y-21512D01*
X35794Y-21515D01*
X35790Y-21518D01*
X35784Y-21520D01*
X35775Y-21522D01*
X35764Y-21523D01*
X35750Y-21524D01*
X35731Y-21525D01*
X35708Y-21526D01*
X35680Y-21526D01*
X35665Y-21527D01*
X35572Y-21529D01*
X35570Y-21541D01*
X35570Y-21547D01*
X35569Y-21558D01*
X35569Y-21573D01*
X35569Y-21592D01*
X35568Y-21614D01*
X35568Y-21638D01*
X35568Y-21664D01*
X35568Y-21667D01*
X35567Y-21782D01*
X35669Y-21783D01*
X35699Y-21783D01*
X35723Y-21784D01*
X35744Y-21784D01*
X35759Y-21785D01*
X35772Y-21786D01*
X35782Y-21788D01*
X35789Y-21790D01*
X35795Y-21792D01*
X35799Y-21795D01*
X35803Y-21799D01*
X35809Y-21808D01*
X35810Y-21819D01*
X35807Y-21832D01*
X35805Y-21838D01*
X35798Y-21845D01*
X35791Y-21850D01*
X35791Y-21851D01*
X35786Y-21852D01*
X35776Y-21852D01*
X35762Y-21853D01*
X35743Y-21853D01*
X35720Y-21854D01*
X35694Y-21854D01*
X35666Y-21854D01*
X35636Y-21855D01*
X35603Y-21855D01*
X35570Y-21855D01*
X35537Y-21855D01*
X35503Y-21855D01*
X35470Y-21855D01*
X35438Y-21854D01*
X35407Y-21854D01*
X35379Y-21854D01*
X35353Y-21853D01*
X35331Y-21853D01*
X35312Y-21852D01*
X35298Y-21852D01*
X35288Y-21851D01*
X35284Y-21850D01*
X35284Y-21850D01*
X35281Y-21845D01*
X35280Y-21836D01*
X35279Y-21825D01*
X35279Y-21813D01*
X35279Y-21801D01*
X35281Y-21793D01*
X35283Y-21789D01*
X35287Y-21788D01*
X35296Y-21786D01*
X35311Y-21785D01*
X35330Y-21784D01*
X35354Y-21783D01*
X35382Y-21782D01*
X35382Y-21782D01*
X35406Y-21781D01*
X35428Y-21781D01*
X35447Y-21780D01*
X35464Y-21779D01*
X35476Y-21778D01*
X35484Y-21778D01*
X35486Y-21777D01*
X35490Y-21776D01*
X35492Y-21774D01*
X35494Y-21768D01*
X35495Y-21759D01*
X35496Y-21753D01*
X35496Y-21740D01*
X35497Y-21724D01*
X35497Y-21704D01*
X35497Y-21682D01*
X35497Y-21660D01*
X35497Y-21637D01*
X35496Y-21614D01*
X35495Y-21593D01*
X35495Y-21573D01*
X35494Y-21557D01*
X35493Y-21544D01*
X35491Y-21535D01*
X35490Y-21532D01*
X35486Y-21530D01*
X35477Y-21529D01*
X35462Y-21528D01*
X35444Y-21526D01*
X35422Y-21525D01*
X35396Y-21524D01*
X35373Y-21523D01*
X35348Y-21522D01*
X35327Y-21520D01*
X35312Y-21519D01*
X35300Y-21517D01*
X35291Y-21515D01*
X35285Y-21512D01*
X35281Y-21508D01*
X35279Y-21503D01*
X35279Y-21503D01*
X35276Y-21488D01*
X35278Y-21475D01*
X35285Y-21465D01*
X35296Y-21458D01*
X35302Y-21456D01*
X35311Y-21455D01*
X35323Y-21453D01*
X35339Y-21452D01*
X35358Y-21451D01*
X35381Y-21450D01*
X35409Y-21449D01*
X35441Y-21449D01*
X35479Y-21449D01*
X35521Y-21449D01*
X35542Y-21449D01*
X35587Y-21449D01*
X35587Y-21449D01*
X35587Y-21449D01*
G37*
G36*
X33894Y-21073D02*
X33902Y-21075D01*
X33909Y-21078D01*
X33912Y-21081D01*
X33919Y-21088D01*
X33930Y-21098D01*
X33944Y-21111D01*
X33960Y-21127D01*
X33979Y-21146D01*
X33999Y-21166D01*
X34021Y-21188D01*
X34045Y-21211D01*
X34052Y-21218D01*
X34100Y-21265D01*
X34144Y-21308D01*
X34185Y-21348D01*
X34224Y-21384D01*
X34262Y-21419D01*
X34298Y-21452D01*
X34334Y-21483D01*
X34370Y-21514D01*
X34407Y-21544D01*
X34445Y-21575D01*
X34449Y-21579D01*
X34532Y-21643D01*
X34613Y-21703D01*
X34693Y-21758D01*
X34772Y-21810D01*
X34852Y-21859D01*
X34934Y-21904D01*
X35017Y-21948D01*
X35046Y-21962D01*
X35110Y-21993D01*
X35158Y-22055D01*
X35182Y-22086D01*
X35203Y-22112D01*
X35221Y-22135D01*
X35235Y-22154D01*
X35246Y-22169D01*
X35255Y-22181D01*
X35261Y-22190D01*
X35264Y-22196D01*
X35264Y-22196D01*
X35268Y-22206D01*
X35270Y-22215D01*
X35269Y-22221D01*
X35268Y-22223D01*
X35265Y-22225D01*
X35257Y-22228D01*
X35245Y-22233D01*
X35231Y-22238D01*
X35218Y-22243D01*
X35158Y-22269D01*
X35100Y-22295D01*
X35044Y-22322D01*
X34990Y-22349D01*
X34940Y-22376D01*
X34893Y-22402D01*
X34852Y-22429D01*
X34815Y-22454D01*
X34808Y-22459D01*
X34784Y-22479D01*
X34758Y-22503D01*
X34732Y-22530D01*
X34720Y-22542D01*
X34710Y-22553D01*
X34678Y-22518D01*
X34655Y-22491D01*
X34635Y-22467D01*
X34619Y-22446D01*
X34607Y-22427D01*
X34599Y-22410D01*
X34593Y-22393D01*
X34589Y-22378D01*
X34589Y-22369D01*
X34588Y-22357D01*
X34589Y-22348D01*
X34591Y-22339D01*
X34595Y-22329D01*
X34596Y-22327D01*
X34605Y-22313D01*
X34616Y-22298D01*
X34631Y-22283D01*
X34650Y-22267D01*
X34673Y-22251D01*
X34701Y-22233D01*
X34733Y-22214D01*
X34758Y-22200D01*
X34789Y-22183D01*
X34815Y-22168D01*
X34837Y-22156D01*
X34854Y-22146D01*
X34865Y-22138D01*
X34872Y-22134D01*
X34876Y-22129D01*
X34876Y-22126D01*
X34875Y-22123D01*
X34869Y-22118D01*
X34859Y-22110D01*
X34845Y-22099D01*
X34828Y-22085D01*
X34808Y-22070D01*
X34785Y-22053D01*
X34761Y-22036D01*
X34655Y-21958D01*
X34555Y-21881D01*
X34460Y-21804D01*
X34372Y-21727D01*
X34288Y-21651D01*
X34211Y-21575D01*
X34138Y-21498D01*
X34071Y-21422D01*
X34009Y-21345D01*
X33953Y-21268D01*
X33927Y-21230D01*
X33908Y-21202D01*
X33893Y-21177D01*
X33881Y-21157D01*
X33871Y-21140D01*
X33865Y-21126D01*
X33861Y-21115D01*
X33859Y-21106D01*
X33860Y-21099D01*
X33864Y-21092D01*
X33872Y-21084D01*
X33881Y-21078D01*
X33890Y-21074D01*
X33894Y-21073D01*
X33894Y-21073D01*
X33894Y-21073D01*
G37*
G36*
X35069Y-18029D02*
X35076Y-18032D01*
X35086Y-18037D01*
X35099Y-18045D01*
X35116Y-18056D01*
X35125Y-18063D01*
X35134Y-18068D01*
X35143Y-18074D01*
X35152Y-18078D01*
X35162Y-18083D01*
X35174Y-18088D01*
X35188Y-18093D01*
X35206Y-18100D01*
X35226Y-18106D01*
X35251Y-18115D01*
X35280Y-18124D01*
X35286Y-18126D01*
X35318Y-18136D01*
X35345Y-18145D01*
X35368Y-18154D01*
X35390Y-18162D01*
X35411Y-18171D01*
X35432Y-18180D01*
X35453Y-18190D01*
X35468Y-18197D01*
X35513Y-18220D01*
X35552Y-18245D01*
X35587Y-18269D01*
X35617Y-18294D01*
X35642Y-18320D01*
X35662Y-18345D01*
X35676Y-18371D01*
X35685Y-18397D01*
X35686Y-18400D01*
X35688Y-18418D01*
X35688Y-18436D01*
X35685Y-18455D01*
X35679Y-18476D01*
X35670Y-18500D01*
X35658Y-18527D01*
X35654Y-18535D01*
X35648Y-18549D01*
X35642Y-18561D01*
X35638Y-18571D01*
X35635Y-18578D01*
X35635Y-18580D01*
X35637Y-18584D01*
X35642Y-18589D01*
X35643Y-18589D01*
X35650Y-18594D01*
X35662Y-18600D01*
X35676Y-18607D01*
X35692Y-18615D01*
X35709Y-18623D01*
X35725Y-18630D01*
X35739Y-18636D01*
X35745Y-18638D01*
X35762Y-18646D01*
X35774Y-18653D01*
X35783Y-18659D01*
X35786Y-18665D01*
X35786Y-18665D01*
X35784Y-18669D01*
X35780Y-18675D01*
X35779Y-18675D01*
X35773Y-18680D01*
X35765Y-18682D01*
X35754Y-18681D01*
X35741Y-18678D01*
X35721Y-18670D01*
X35697Y-18659D01*
X35670Y-18643D01*
X35640Y-18625D01*
X35608Y-18603D01*
X35574Y-18578D01*
X35539Y-18551D01*
X35537Y-18550D01*
X35522Y-18537D01*
X35507Y-18525D01*
X35493Y-18513D01*
X35479Y-18501D01*
X35465Y-18488D01*
X35448Y-18473D01*
X35430Y-18456D01*
X35409Y-18436D01*
X35390Y-18419D01*
X35369Y-18399D01*
X35352Y-18383D01*
X35338Y-18370D01*
X35328Y-18361D01*
X35320Y-18354D01*
X35315Y-18349D01*
X35311Y-18347D01*
X35310Y-18347D01*
X35310Y-18347D01*
X35311Y-18350D01*
X35314Y-18357D01*
X35319Y-18367D01*
X35321Y-18371D01*
X35328Y-18385D01*
X35332Y-18396D01*
X35334Y-18404D01*
X35333Y-18410D01*
X35330Y-18416D01*
X35329Y-18417D01*
X35322Y-18423D01*
X35315Y-18424D01*
X35310Y-18425D01*
X35307Y-18427D01*
X35310Y-18430D01*
X35316Y-18433D01*
X35326Y-18435D01*
X35333Y-18436D01*
X35348Y-18437D01*
X35361Y-18441D01*
X35373Y-18448D01*
X35384Y-18458D01*
X35393Y-18469D01*
X35398Y-18477D01*
X35399Y-18483D01*
X35396Y-18487D01*
X35387Y-18490D01*
X35373Y-18492D01*
X35357Y-18493D01*
X35340Y-18494D01*
X35328Y-18495D01*
X35320Y-18496D01*
X35315Y-18497D01*
X35313Y-18499D01*
X35313Y-18501D01*
X35315Y-18506D01*
X35320Y-18510D01*
X35330Y-18513D01*
X35345Y-18515D01*
X35364Y-18517D01*
X35374Y-18517D01*
X35404Y-18520D01*
X35429Y-18522D01*
X35448Y-18526D01*
X35462Y-18530D01*
X35470Y-18535D01*
X35472Y-18541D01*
X35471Y-18545D01*
X35465Y-18548D01*
X35456Y-18551D01*
X35441Y-18553D01*
X35422Y-18556D01*
X35409Y-18559D01*
X35400Y-18563D01*
X35397Y-18566D01*
X35399Y-18570D01*
X35405Y-18574D01*
X35413Y-18577D01*
X35426Y-18580D01*
X35442Y-18583D01*
X35462Y-18585D01*
X35487Y-18587D01*
X35512Y-18589D01*
X35532Y-18592D01*
X35548Y-18595D01*
X35560Y-18601D01*
X35569Y-18607D01*
X35571Y-18608D01*
X35577Y-18617D01*
X35578Y-18626D01*
X35574Y-18635D01*
X35566Y-18642D01*
X35556Y-18646D01*
X35548Y-18647D01*
X35536Y-18648D01*
X35520Y-18649D01*
X35502Y-18649D01*
X35482Y-18648D01*
X35462Y-18648D01*
X35442Y-18646D01*
X35424Y-18645D01*
X35418Y-18644D01*
X35390Y-18641D01*
X35367Y-18636D01*
X35346Y-18631D01*
X35325Y-18625D01*
X35309Y-18618D01*
X35266Y-18597D01*
X35226Y-18571D01*
X35191Y-18542D01*
X35160Y-18509D01*
X35132Y-18472D01*
X35108Y-18431D01*
X35088Y-18386D01*
X35072Y-18336D01*
X35060Y-18283D01*
X35053Y-18243D01*
X35051Y-18218D01*
X35049Y-18193D01*
X35048Y-18167D01*
X35047Y-18140D01*
X35047Y-18115D01*
X35048Y-18092D01*
X35050Y-18071D01*
X35052Y-18054D01*
X35055Y-18041D01*
X35056Y-18039D01*
X35059Y-18033D01*
X35063Y-18030D01*
X35069Y-18029D01*
X35069Y-18029D01*
X35069Y-18029D01*
G37*
G36*
X34800Y-18356D02*
X34836Y-18356D01*
X34866Y-18357D01*
X34894Y-18358D01*
X34919Y-18360D01*
X34942Y-18363D01*
X34965Y-18366D01*
X34983Y-18370D01*
X35005Y-18374D01*
X35022Y-18378D01*
X35036Y-18383D01*
X35047Y-18388D01*
X35055Y-18395D01*
X35063Y-18404D01*
X35070Y-18416D01*
X35078Y-18431D01*
X35079Y-18434D01*
X35098Y-18468D01*
X35118Y-18497D01*
X35139Y-18524D01*
X35142Y-18528D01*
X34795Y-18528D01*
X34772Y-18528D01*
X34751Y-18529D01*
X34732Y-18530D01*
X34718Y-18531D01*
X34716Y-18531D01*
X34658Y-18541D01*
X34600Y-18556D01*
X34543Y-18576D01*
X34487Y-18600D01*
X34433Y-18629D01*
X34381Y-18662D01*
X34361Y-18677D01*
X34343Y-18691D01*
X34324Y-18708D01*
X34303Y-18728D01*
X34282Y-18748D01*
X34262Y-18769D01*
X34245Y-18788D01*
X34236Y-18798D01*
X34201Y-18846D01*
X34169Y-18897D01*
X34142Y-18950D01*
X34119Y-19004D01*
X34100Y-19060D01*
X34094Y-19083D01*
X34089Y-19106D01*
X34085Y-19126D01*
X34081Y-19144D01*
X34079Y-19162D01*
X34077Y-19180D01*
X34076Y-19201D01*
X34076Y-19224D01*
X34076Y-19252D01*
X34076Y-19256D01*
X34076Y-19281D01*
X34076Y-19300D01*
X34076Y-19316D01*
X34077Y-19329D01*
X34078Y-19340D01*
X34079Y-19351D01*
X34081Y-19362D01*
X34082Y-19370D01*
X34095Y-19429D01*
X34111Y-19485D01*
X34132Y-19538D01*
X34156Y-19590D01*
X34186Y-19642D01*
X34199Y-19662D01*
X34208Y-19674D01*
X34216Y-19685D01*
X34222Y-19693D01*
X34227Y-19698D01*
X34227Y-19698D01*
X34233Y-19701D01*
X34237Y-19701D01*
X34243Y-19698D01*
X34243Y-19698D01*
X34248Y-19695D01*
X34256Y-19688D01*
X34266Y-19679D01*
X34278Y-19668D01*
X34291Y-19656D01*
X34330Y-19619D01*
X34334Y-19517D01*
X34335Y-19479D01*
X34336Y-19446D01*
X34338Y-19417D01*
X34339Y-19393D01*
X34341Y-19373D01*
X34343Y-19355D01*
X34346Y-19340D01*
X34349Y-19328D01*
X34354Y-19317D01*
X34358Y-19307D01*
X34364Y-19298D01*
X34370Y-19288D01*
X34378Y-19279D01*
X34382Y-19275D01*
X34407Y-19249D01*
X34437Y-19227D01*
X34469Y-19210D01*
X34504Y-19198D01*
X34542Y-19190D01*
X34583Y-19187D01*
X34627Y-19188D01*
X34673Y-19194D01*
X34707Y-19202D01*
X34736Y-19208D01*
X34746Y-19201D01*
X34753Y-19195D01*
X34760Y-19188D01*
X34767Y-19180D01*
X34771Y-19173D01*
X34772Y-19170D01*
X34769Y-19168D01*
X34763Y-19166D01*
X34762Y-19166D01*
X34757Y-19165D01*
X34747Y-19165D01*
X34732Y-19164D01*
X34714Y-19164D01*
X34692Y-19163D01*
X34668Y-19162D01*
X34641Y-19162D01*
X34613Y-19161D01*
X34584Y-19160D01*
X34555Y-19160D01*
X34525Y-19159D01*
X34497Y-19159D01*
X34470Y-19159D01*
X34445Y-19159D01*
X34422Y-19159D01*
X34418Y-19159D01*
X34337Y-19158D01*
X34338Y-19106D01*
X34339Y-19053D01*
X34466Y-19051D01*
X34494Y-19051D01*
X34520Y-19050D01*
X34544Y-19050D01*
X34566Y-19049D01*
X34585Y-19049D01*
X34600Y-19048D01*
X34610Y-19047D01*
X34615Y-19047D01*
X34636Y-19045D01*
X34616Y-19023D01*
X34597Y-18999D01*
X34583Y-18974D01*
X34573Y-18947D01*
X34568Y-18917D01*
X34567Y-18893D01*
X34570Y-18856D01*
X34578Y-18822D01*
X34590Y-18790D01*
X34607Y-18760D01*
X34629Y-18734D01*
X34655Y-18710D01*
X34686Y-18689D01*
X34721Y-18672D01*
X34760Y-18657D01*
X34803Y-18646D01*
X34821Y-18643D01*
X34867Y-18637D01*
X34912Y-18636D01*
X34956Y-18638D01*
X34999Y-18644D01*
X35041Y-18653D01*
X35079Y-18666D01*
X35114Y-18683D01*
X35146Y-18702D01*
X35156Y-18710D01*
X35170Y-18721D01*
X35180Y-18730D01*
X35187Y-18735D01*
X35192Y-18738D01*
X35196Y-18740D01*
X35198Y-18741D01*
X35201Y-18740D01*
X35202Y-18740D01*
X35208Y-18737D01*
X35216Y-18731D01*
X35225Y-18723D01*
X35234Y-18714D01*
X35242Y-18705D01*
X35248Y-18697D01*
X35251Y-18691D01*
X35251Y-18690D01*
X35249Y-18684D01*
X35243Y-18676D01*
X35238Y-18672D01*
X35225Y-18661D01*
X35209Y-18649D01*
X35189Y-18636D01*
X35169Y-18623D01*
X35148Y-18612D01*
X35132Y-18604D01*
X35080Y-18581D01*
X35024Y-18562D01*
X34965Y-18547D01*
X34904Y-18535D01*
X34871Y-18531D01*
X34857Y-18530D01*
X34838Y-18529D01*
X34817Y-18528D01*
X34795Y-18528D01*
X35142Y-18528D01*
X35157Y-18544D01*
X35189Y-18574D01*
X35225Y-18601D01*
X35264Y-18623D01*
X35306Y-18642D01*
X35352Y-18657D01*
X35402Y-18669D01*
X35456Y-18677D01*
X35461Y-18678D01*
X35476Y-18679D01*
X35488Y-18681D01*
X35498Y-18682D01*
X35503Y-18682D01*
X35504Y-18682D01*
X35507Y-18684D01*
X35512Y-18691D01*
X35520Y-18700D01*
X35530Y-18713D01*
X35540Y-18727D01*
X35551Y-18743D01*
X35554Y-18747D01*
X34891Y-18747D01*
X34857Y-18748D01*
X34824Y-18752D01*
X34794Y-18758D01*
X34781Y-18762D01*
X34752Y-18774D01*
X34727Y-18789D01*
X34706Y-18807D01*
X34689Y-18827D01*
X34677Y-18849D01*
X34669Y-18872D01*
X34666Y-18896D01*
X34668Y-18921D01*
X34675Y-18946D01*
X34682Y-18961D01*
X34691Y-18974D01*
X34703Y-18989D01*
X34718Y-19004D01*
X34734Y-19017D01*
X34750Y-19027D01*
X34755Y-19030D01*
X34782Y-19041D01*
X34812Y-19050D01*
X34845Y-19055D01*
X34860Y-19056D01*
X34891Y-19058D01*
X34981Y-18967D01*
X35001Y-18947D01*
X35020Y-18927D01*
X35038Y-18908D01*
X35055Y-18891D01*
X35070Y-18876D01*
X35082Y-18863D01*
X35092Y-18853D01*
X35096Y-18848D01*
X35106Y-18837D01*
X35113Y-18828D01*
X35116Y-18821D01*
X35116Y-18816D01*
X35112Y-18811D01*
X35105Y-18804D01*
X35099Y-18799D01*
X35078Y-18786D01*
X35053Y-18774D01*
X35025Y-18764D01*
X34993Y-18757D01*
X34960Y-18751D01*
X34925Y-18748D01*
X34891Y-18747D01*
X35554Y-18747D01*
X35562Y-18759D01*
X35569Y-18770D01*
X35577Y-18783D01*
X35586Y-18799D01*
X35590Y-18808D01*
X35370Y-18808D01*
X35365Y-18810D01*
X35357Y-18816D01*
X35347Y-18824D01*
X35335Y-18836D01*
X35322Y-18848D01*
X35308Y-18862D01*
X35294Y-18877D01*
X35284Y-18889D01*
X35272Y-18902D01*
X35264Y-18913D01*
X35258Y-18921D01*
X35254Y-18927D01*
X35251Y-18934D01*
X35249Y-18941D01*
X35248Y-18944D01*
X35244Y-18959D01*
X35236Y-18976D01*
X35226Y-18994D01*
X35214Y-19012D01*
X35202Y-19028D01*
X35194Y-19038D01*
X35188Y-19045D01*
X35185Y-19051D01*
X35184Y-19052D01*
X35186Y-19054D01*
X35192Y-19056D01*
X35203Y-19058D01*
X35217Y-19059D01*
X35234Y-19061D01*
X35234Y-19109D01*
X35234Y-19158D01*
X35154Y-19159D01*
X35131Y-19160D01*
X35109Y-19160D01*
X35087Y-19161D01*
X35068Y-19161D01*
X35052Y-19161D01*
X35041Y-19161D01*
X35009Y-19161D01*
X34931Y-19239D01*
X34877Y-19293D01*
X34598Y-19293D01*
X34598Y-19293D01*
X34570Y-19295D01*
X34543Y-19302D01*
X34516Y-19313D01*
X34493Y-19328D01*
X34477Y-19341D01*
X34469Y-19350D01*
X34462Y-19359D01*
X34457Y-19370D01*
X34453Y-19384D01*
X34450Y-19401D01*
X34450Y-19405D01*
X34448Y-19414D01*
X34447Y-19426D01*
X34447Y-19440D01*
X34446Y-19453D01*
X34446Y-19465D01*
X34447Y-19475D01*
X34447Y-19481D01*
X34448Y-19483D01*
X34451Y-19483D01*
X34457Y-19479D01*
X34466Y-19473D01*
X34478Y-19462D01*
X34495Y-19448D01*
X34512Y-19433D01*
X34527Y-19420D01*
X34542Y-19405D01*
X34559Y-19389D01*
X34575Y-19374D01*
X34590Y-19359D01*
X34604Y-19344D01*
X34616Y-19331D01*
X34627Y-19320D01*
X34634Y-19312D01*
X34639Y-19306D01*
X34640Y-19304D01*
X34636Y-19300D01*
X34630Y-19297D01*
X34629Y-19297D01*
X34621Y-19295D01*
X34610Y-19294D01*
X34598Y-19293D01*
X34877Y-19293D01*
X34853Y-19317D01*
X34857Y-19339D01*
X34859Y-19352D01*
X34861Y-19366D01*
X34863Y-19382D01*
X34865Y-19400D01*
X34866Y-19422D01*
X34866Y-19427D01*
X34751Y-19427D01*
X34748Y-19429D01*
X34741Y-19435D01*
X34731Y-19443D01*
X34719Y-19455D01*
X34704Y-19468D01*
X34688Y-19483D01*
X34671Y-19500D01*
X34653Y-19518D01*
X34635Y-19536D01*
X34617Y-19553D01*
X34608Y-19562D01*
X34587Y-19584D01*
X34571Y-19601D01*
X34557Y-19615D01*
X34547Y-19626D01*
X34540Y-19635D01*
X34536Y-19641D01*
X34535Y-19644D01*
X34535Y-19645D01*
X34538Y-19646D01*
X34547Y-19647D01*
X34559Y-19647D01*
X34574Y-19648D01*
X34593Y-19648D01*
X34613Y-19648D01*
X34634Y-19648D01*
X34655Y-19648D01*
X34676Y-19648D01*
X34695Y-19648D01*
X34713Y-19648D01*
X34728Y-19648D01*
X34739Y-19647D01*
X34746Y-19647D01*
X34747Y-19646D01*
X34751Y-19645D01*
X34753Y-19643D01*
X34754Y-19638D01*
X34755Y-19632D01*
X34756Y-19620D01*
X34756Y-19616D01*
X34757Y-19574D01*
X34757Y-19535D01*
X34757Y-19500D01*
X34756Y-19472D01*
X34755Y-19453D01*
X34754Y-19440D01*
X34753Y-19432D01*
X34752Y-19428D01*
X34751Y-19427D01*
X34866Y-19427D01*
X34867Y-19448D01*
X34868Y-19478D01*
X34869Y-19512D01*
X34870Y-19533D01*
X34870Y-19565D01*
X34871Y-19591D01*
X34872Y-19612D01*
X34873Y-19627D01*
X34874Y-19637D01*
X34875Y-19641D01*
X34875Y-19641D01*
X34877Y-19643D01*
X34881Y-19644D01*
X34887Y-19645D01*
X34895Y-19646D01*
X34906Y-19647D01*
X34920Y-19648D01*
X34937Y-19649D01*
X34958Y-19649D01*
X34984Y-19650D01*
X35014Y-19651D01*
X35049Y-19651D01*
X35072Y-19652D01*
X35101Y-19652D01*
X35129Y-19652D01*
X35155Y-19653D01*
X35177Y-19653D01*
X35197Y-19654D01*
X35213Y-19654D01*
X35225Y-19654D01*
X35232Y-19654D01*
X35234Y-19654D01*
X35234Y-19657D01*
X35234Y-19664D01*
X35234Y-19676D01*
X35234Y-19690D01*
X35234Y-19703D01*
X35234Y-19752D01*
X34825Y-19753D01*
X34415Y-19755D01*
X34386Y-19784D01*
X34373Y-19798D01*
X34364Y-19808D01*
X34359Y-19816D01*
X34357Y-19820D01*
X34357Y-19820D01*
X34359Y-19827D01*
X34365Y-19834D01*
X34376Y-19844D01*
X34391Y-19854D01*
X34410Y-19867D01*
X34412Y-19868D01*
X34466Y-19899D01*
X34521Y-19925D01*
X34577Y-19946D01*
X34635Y-19962D01*
X34696Y-19974D01*
X34714Y-19977D01*
X34733Y-19979D01*
X34756Y-19980D01*
X34781Y-19981D01*
X34809Y-19981D01*
X34836Y-19980D01*
X34862Y-19978D01*
X34886Y-19976D01*
X34903Y-19974D01*
X34967Y-19962D01*
X35030Y-19944D01*
X35090Y-19921D01*
X35148Y-19892D01*
X35204Y-19859D01*
X35258Y-19821D01*
X35265Y-19815D01*
X35280Y-19802D01*
X35298Y-19787D01*
X35316Y-19769D01*
X35335Y-19750D01*
X35352Y-19732D01*
X35368Y-19715D01*
X35378Y-19702D01*
X35401Y-19672D01*
X35423Y-19639D01*
X35444Y-19604D01*
X35463Y-19569D01*
X35479Y-19535D01*
X35492Y-19503D01*
X35511Y-19443D01*
X35525Y-19382D01*
X35532Y-19320D01*
X35535Y-19257D01*
X35532Y-19193D01*
X35531Y-19182D01*
X35524Y-19132D01*
X35513Y-19083D01*
X35499Y-19034D01*
X35480Y-18984D01*
X35456Y-18932D01*
X35450Y-18919D01*
X35436Y-18893D01*
X35423Y-18870D01*
X35410Y-18850D01*
X35398Y-18833D01*
X35388Y-18820D01*
X35379Y-18812D01*
X35371Y-18808D01*
X35370Y-18808D01*
X35590Y-18808D01*
X35596Y-18819D01*
X35607Y-18840D01*
X35618Y-18862D01*
X35628Y-18884D01*
X35638Y-18904D01*
X35646Y-18922D01*
X35650Y-18934D01*
X35663Y-18970D01*
X35674Y-19004D01*
X35683Y-19037D01*
X35690Y-19072D01*
X35696Y-19109D01*
X35701Y-19148D01*
X35704Y-19192D01*
X35705Y-19206D01*
X35707Y-19251D01*
X35707Y-19293D01*
X35706Y-19332D01*
X35705Y-19349D01*
X35703Y-19375D01*
X35700Y-19398D01*
X35696Y-19421D01*
X35690Y-19446D01*
X35687Y-19461D01*
X35667Y-19531D01*
X35642Y-19599D01*
X35612Y-19663D01*
X35578Y-19725D01*
X35539Y-19783D01*
X35530Y-19796D01*
X35486Y-19850D01*
X35438Y-19901D01*
X35386Y-19947D01*
X35330Y-19990D01*
X35272Y-20027D01*
X35210Y-20061D01*
X35146Y-20089D01*
X35080Y-20113D01*
X35011Y-20132D01*
X34940Y-20146D01*
X34920Y-20149D01*
X34900Y-20151D01*
X34876Y-20153D01*
X34849Y-20154D01*
X34821Y-20155D01*
X34792Y-20156D01*
X34766Y-20155D01*
X34742Y-20154D01*
X34730Y-20154D01*
X34658Y-20145D01*
X34589Y-20130D01*
X34520Y-20111D01*
X34454Y-20086D01*
X34390Y-20056D01*
X34327Y-20021D01*
X34324Y-20019D01*
X34264Y-19978D01*
X34209Y-19934D01*
X34157Y-19886D01*
X34110Y-19835D01*
X34068Y-19780D01*
X34029Y-19723D01*
X33996Y-19662D01*
X33967Y-19598D01*
X33943Y-19532D01*
X33927Y-19475D01*
X33912Y-19404D01*
X33903Y-19332D01*
X33899Y-19262D01*
X33900Y-19192D01*
X33908Y-19122D01*
X33920Y-19053D01*
X33939Y-18984D01*
X33955Y-18937D01*
X33980Y-18875D01*
X34011Y-18814D01*
X34046Y-18757D01*
X34086Y-18702D01*
X34130Y-18650D01*
X34178Y-18602D01*
X34230Y-18556D01*
X34285Y-18515D01*
X34343Y-18478D01*
X34404Y-18445D01*
X34468Y-18417D01*
X34507Y-18402D01*
X34542Y-18390D01*
X34575Y-18380D01*
X34607Y-18373D01*
X34638Y-18366D01*
X34670Y-18362D01*
X34704Y-18359D01*
X34742Y-18357D01*
X34783Y-18356D01*
X34800Y-18356D01*
X34800Y-18356D01*
X34800Y-18356D01*
G37*
G36*
X50445Y-27054D02*
X50446Y-27058D01*
X50446Y-27075D01*
X50446Y-27104D01*
X50445Y-27143D01*
X50444Y-27194D01*
X50442Y-27254D01*
X50440Y-27323D01*
X50437Y-27402D01*
X50434Y-27487D01*
X50433Y-27524D01*
X50431Y-27574D01*
X50430Y-27634D01*
X50429Y-27705D01*
X50428Y-27785D01*
X50427Y-27871D01*
X50426Y-27965D01*
X50425Y-28063D01*
X50425Y-28165D01*
X50425Y-28269D01*
X50425Y-28374D01*
X50425Y-28480D01*
X50425Y-28584D01*
X50425Y-28686D01*
X50426Y-28784D01*
X50426Y-28877D01*
X50427Y-28964D01*
X50428Y-29043D01*
X50429Y-29114D01*
X50430Y-29174D01*
X50432Y-29224D01*
X50433Y-29250D01*
X50445Y-29495D01*
X50459Y-29728D01*
X50474Y-29952D01*
X50491Y-30170D01*
X50511Y-30384D01*
X50533Y-30595D01*
X50557Y-30807D01*
X50585Y-31021D01*
X50615Y-31239D01*
X50649Y-31465D01*
X50655Y-31502D01*
X50662Y-31548D01*
X50668Y-31591D01*
X50673Y-31627D01*
X50677Y-31655D01*
X50680Y-31674D01*
X50680Y-31682D01*
X50678Y-31681D01*
X50673Y-31671D01*
X50667Y-31652D01*
X50654Y-31608D01*
X50639Y-31553D01*
X50622Y-31487D01*
X50604Y-31414D01*
X50585Y-31334D01*
X50566Y-31250D01*
X50546Y-31162D01*
X50527Y-31074D01*
X50509Y-30985D01*
X50492Y-30899D01*
X50485Y-30863D01*
X50451Y-30676D01*
X50418Y-30478D01*
X50386Y-30269D01*
X50356Y-30053D01*
X50327Y-29829D01*
X50300Y-29601D01*
X50274Y-29369D01*
X50251Y-29135D01*
X50229Y-28902D01*
X50210Y-28670D01*
X50194Y-28441D01*
X50181Y-28217D01*
X50170Y-27999D01*
X50164Y-27839D01*
X50159Y-27697D01*
X50179Y-27676D01*
X50210Y-27637D01*
X50241Y-27586D01*
X50274Y-27523D01*
X50308Y-27448D01*
X50342Y-27363D01*
X50377Y-27266D01*
X50404Y-27181D01*
X50416Y-27143D01*
X50427Y-27109D01*
X50436Y-27082D01*
X50442Y-27063D01*
X50445Y-27054D01*
X50445Y-27054D01*
X50445Y-27054D01*
G37*
G36*
X49023Y-26963D02*
X49052Y-26966D01*
X49094Y-26977D01*
X49136Y-27001D01*
X49179Y-27035D01*
X49221Y-27079D01*
X49261Y-27132D01*
X49298Y-27194D01*
X49321Y-27240D01*
X49338Y-27279D01*
X49358Y-27328D01*
X49379Y-27384D01*
X49400Y-27444D01*
X49421Y-27505D01*
X49440Y-27564D01*
X49447Y-27588D01*
X49458Y-27621D01*
X49467Y-27651D01*
X49473Y-27673D01*
X49477Y-27686D01*
X49478Y-27688D01*
X49486Y-27693D01*
X49505Y-27698D01*
X49535Y-27704D01*
X49572Y-27710D01*
X49617Y-27715D01*
X49666Y-27721D01*
X49719Y-27725D01*
X49773Y-27730D01*
X49827Y-27733D01*
X49880Y-27735D01*
X49883Y-27735D01*
X49927Y-27737D01*
X49960Y-27739D01*
X49982Y-27740D01*
X49997Y-27742D01*
X50005Y-27745D01*
X50008Y-27749D01*
X50008Y-27750D01*
X50009Y-27761D01*
X50010Y-27783D01*
X50013Y-27816D01*
X50017Y-27858D01*
X50022Y-27907D01*
X50027Y-27963D01*
X50033Y-28023D01*
X50039Y-28087D01*
X50046Y-28154D01*
X50051Y-28207D01*
X50072Y-28408D01*
X50093Y-28605D01*
X50114Y-28797D01*
X50135Y-28983D01*
X50156Y-29163D01*
X50165Y-29234D01*
X47819Y-29234D01*
X47817Y-29243D01*
X47813Y-29262D01*
X47807Y-29289D01*
X47806Y-29298D01*
X47793Y-29363D01*
X47779Y-29421D01*
X47762Y-29477D01*
X47741Y-29536D01*
X47715Y-29600D01*
X47699Y-29637D01*
X47688Y-29666D01*
X47680Y-29688D01*
X47676Y-29707D01*
X47673Y-29726D01*
X47671Y-29749D01*
X47670Y-29776D01*
X47670Y-29831D01*
X47674Y-29880D01*
X47679Y-29915D01*
X47691Y-29979D01*
X47707Y-29903D01*
X47720Y-29843D01*
X47733Y-29793D01*
X47747Y-29748D01*
X47765Y-29703D01*
X47781Y-29667D01*
X47812Y-29600D01*
X47816Y-29430D01*
X47817Y-29382D01*
X47818Y-29338D01*
X47819Y-29299D01*
X47819Y-29268D01*
X47820Y-29246D01*
X47820Y-29237D01*
X47819Y-29234D01*
X50165Y-29234D01*
X50177Y-29335D01*
X50198Y-29498D01*
X50219Y-29653D01*
X50239Y-29797D01*
X50258Y-29931D01*
X50277Y-30053D01*
X50295Y-30162D01*
X50295Y-30163D01*
X50325Y-30334D01*
X50360Y-30512D01*
X50398Y-30693D01*
X50438Y-30875D01*
X50480Y-31055D01*
X50523Y-31230D01*
X50567Y-31396D01*
X50593Y-31491D01*
X50604Y-31531D01*
X50614Y-31567D01*
X50621Y-31596D01*
X50626Y-31617D01*
X50628Y-31627D01*
X50627Y-31628D01*
X50621Y-31622D01*
X50609Y-31609D01*
X50593Y-31590D01*
X50589Y-31585D01*
X50540Y-31532D01*
X50485Y-31483D01*
X50426Y-31439D01*
X50366Y-31404D01*
X50319Y-31382D01*
X50290Y-31372D01*
X50258Y-31364D01*
X50224Y-31357D01*
X50194Y-31352D01*
X50169Y-31349D01*
X50153Y-31351D01*
X50153Y-31351D01*
X50146Y-31359D01*
X50140Y-31376D01*
X50138Y-31383D01*
X50125Y-31427D01*
X50100Y-31469D01*
X50065Y-31506D01*
X50022Y-31538D01*
X49973Y-31564D01*
X49919Y-31582D01*
X49862Y-31591D01*
X49843Y-31592D01*
X49818Y-31591D01*
X49797Y-31590D01*
X49786Y-31589D01*
X49785Y-31588D01*
X49781Y-31580D01*
X49775Y-31562D01*
X49766Y-31535D01*
X49755Y-31501D01*
X49743Y-31463D01*
X49741Y-31455D01*
X49710Y-31356D01*
X49678Y-31263D01*
X49645Y-31177D01*
X49613Y-31099D01*
X49581Y-31029D01*
X49550Y-30970D01*
X49520Y-30922D01*
X49512Y-30911D01*
X49480Y-30874D01*
X49439Y-30838D01*
X49387Y-30802D01*
X49324Y-30764D01*
X49251Y-30726D01*
X49124Y-30668D01*
X48997Y-30619D01*
X48872Y-30581D01*
X48750Y-30553D01*
X48640Y-30536D01*
X48589Y-30532D01*
X48542Y-30534D01*
X48497Y-30541D01*
X48450Y-30554D01*
X48399Y-30573D01*
X48341Y-30600D01*
X48322Y-30610D01*
X48238Y-30656D01*
X48147Y-30714D01*
X48050Y-30781D01*
X47948Y-30858D01*
X47889Y-30905D01*
X47862Y-30927D01*
X47842Y-30942D01*
X47824Y-30951D01*
X47805Y-30956D01*
X47782Y-30957D01*
X47751Y-30957D01*
X47729Y-30956D01*
X47678Y-30949D01*
X47622Y-30931D01*
X47565Y-30904D01*
X47509Y-30870D01*
X47458Y-30830D01*
X47439Y-30813D01*
X47398Y-30769D01*
X47370Y-30726D01*
X47354Y-30684D01*
X47349Y-30640D01*
X47356Y-30593D01*
X47373Y-30543D01*
X47397Y-30484D01*
X47417Y-30428D01*
X47435Y-30372D01*
X47450Y-30313D01*
X47463Y-30249D01*
X47476Y-30178D01*
X47488Y-30096D01*
X47493Y-30066D01*
X47506Y-29947D01*
X47514Y-29824D01*
X47517Y-29694D01*
X47514Y-29554D01*
X47514Y-29543D01*
X47512Y-29460D01*
X47511Y-29388D01*
X47512Y-29325D01*
X47515Y-29270D01*
X47521Y-29221D01*
X47528Y-29175D01*
X47530Y-29167D01*
X47551Y-29085D01*
X47583Y-28997D01*
X47625Y-28905D01*
X47675Y-28812D01*
X47732Y-28719D01*
X47796Y-28627D01*
X47865Y-28538D01*
X47939Y-28455D01*
X47979Y-28414D01*
X48011Y-28382D01*
X48041Y-28353D01*
X48073Y-28325D01*
X48106Y-28297D01*
X48143Y-28267D01*
X48186Y-28234D01*
X48236Y-28196D01*
X48294Y-28153D01*
X48306Y-28144D01*
X48374Y-28093D01*
X48431Y-28046D01*
X48480Y-28000D01*
X48522Y-27955D01*
X48559Y-27907D01*
X48592Y-27856D01*
X48623Y-27797D01*
X48653Y-27731D01*
X48678Y-27670D01*
X48722Y-27564D01*
X48768Y-27457D01*
X48815Y-27354D01*
X48863Y-27255D01*
X48909Y-27164D01*
X48953Y-27081D01*
X48982Y-27032D01*
X49023Y-26963D01*
X49023Y-26963D01*
X49023Y-26963D01*
G37*
G36*
X49740Y-31498D02*
X49746Y-31502D01*
X49751Y-31515D01*
X49754Y-31525D01*
X49758Y-31543D01*
X49761Y-31556D01*
X49761Y-31558D01*
X49755Y-31561D01*
X49740Y-31565D01*
X49730Y-31567D01*
X49688Y-31571D01*
X49638Y-31573D01*
X49581Y-31571D01*
X49523Y-31567D01*
X49467Y-31560D01*
X49428Y-31553D01*
X49395Y-31546D01*
X49366Y-31539D01*
X49343Y-31534D01*
X49331Y-31530D01*
X49330Y-31530D01*
X49333Y-31528D01*
X49348Y-31527D01*
X49373Y-31526D01*
X49405Y-31525D01*
X49443Y-31524D01*
X49443Y-31524D01*
X49501Y-31523D01*
X49559Y-31520D01*
X49614Y-31516D01*
X49664Y-31510D01*
X49706Y-31504D01*
X49729Y-31499D01*
X49740Y-31498D01*
X49740Y-31498D01*
X49740Y-31498D01*
G37*
G36*
X47910Y-30908D02*
X47961Y-30958D01*
X48001Y-30993D01*
X48049Y-31030D01*
X48101Y-31066D01*
X48152Y-31097D01*
X48177Y-31110D01*
X48201Y-31123D01*
X48213Y-31131D01*
X48213Y-31134D01*
X48200Y-31133D01*
X48197Y-31132D01*
X48170Y-31124D01*
X48136Y-31113D01*
X48098Y-31099D01*
X48060Y-31084D01*
X48028Y-31070D01*
X48019Y-31066D01*
X47998Y-31055D01*
X47972Y-31039D01*
X47944Y-31021D01*
X47916Y-31002D01*
X47891Y-30985D01*
X47872Y-30970D01*
X47861Y-30959D01*
X47860Y-30958D01*
X47863Y-30951D01*
X47873Y-30939D01*
X47883Y-30930D01*
X47910Y-30908D01*
X47910Y-30908D01*
X47910Y-30908D01*
G37*
G54D13*
X44251Y-26397D02*
X49251Y-26397D01*
X49251Y-23799D02*
X44251Y-23799D01*
X49251Y-23799D02*
X49251Y-26397D01*
X44251Y-23799D02*
X44251Y-26397D01*
X45169Y-36728D02*
X45169Y-33728D01*
X45169Y-33728D02*
X46169Y-33728D01*
X46169Y-33728D02*
X46169Y-36728D01*
X45169Y-35728D02*
X46169Y-35728D01*
X46169Y-36728D02*
X45169Y-36728D01*
X40444Y-36728D02*
X40444Y-33728D01*
X40444Y-33728D02*
X41444Y-33728D01*
X41444Y-33728D02*
X41444Y-36728D01*
X40444Y-35728D02*
X41444Y-35728D01*
X41444Y-36728D02*
X40444Y-36728D01*
X38082Y-36728D02*
X38082Y-33728D01*
X38082Y-33728D02*
X39082Y-33728D01*
X39082Y-33728D02*
X39082Y-36728D01*
X38082Y-35728D02*
X39082Y-35728D01*
X39082Y-36728D02*
X38082Y-36728D01*
X39082Y-15929D02*
X39082Y-18929D01*
X39082Y-18929D02*
X38082Y-18929D01*
X38082Y-18929D02*
X38082Y-15929D01*
X39082Y-16929D02*
X38082Y-16929D01*
X38082Y-15929D02*
X39082Y-15929D01*
X41444Y-15929D02*
X41444Y-18929D01*
X41444Y-18929D02*
X40444Y-18929D01*
X40444Y-18929D02*
X40444Y-15929D01*
X41444Y-16929D02*
X40444Y-16929D01*
X40444Y-15929D02*
X41444Y-15929D01*
X46169Y-15929D02*
X46169Y-18929D01*
X46169Y-18929D02*
X45169Y-18929D01*
X45169Y-18929D02*
X45169Y-15929D01*
X46169Y-16929D02*
X45169Y-16929D01*
X45169Y-15929D02*
X46169Y-15929D01*
X43807Y-15929D02*
X43807Y-18929D01*
X43807Y-18929D02*
X42807Y-18929D01*
X42807Y-18929D02*
X42807Y-15929D01*
X43807Y-16929D02*
X42807Y-16929D01*
X42807Y-15929D02*
X43807Y-15929D01*
X42807Y-36728D02*
X42807Y-33728D01*
X42807Y-33728D02*
X43807Y-33728D01*
X43807Y-33728D02*
X43807Y-36728D01*
X42807Y-35728D02*
X43807Y-35728D01*
X43807Y-36728D02*
X42807Y-36728D01*
X44192Y-21358D02*
X43799Y-21358D01*
X43799Y-21358D02*
X43996Y-21161D01*
X43996Y-21161D02*
X44192Y-21358D01*
X43220Y-22194D02*
X44771Y-22194D01*
X43220Y-20324D02*
X44771Y-20324D01*
X43220Y-22194D02*
X43220Y-20324D01*
X44771Y-22194D02*
X44771Y-20324D01*
X38582Y-31299D02*
X38976Y-31299D01*
X38976Y-31299D02*
X38779Y-31496D01*
X38779Y-31496D02*
X38582Y-31299D01*
X39555Y-30462D02*
X38003Y-30462D01*
X39555Y-32332D02*
X38003Y-32332D01*
X39555Y-30462D02*
X39555Y-32332D01*
X38003Y-30462D02*
X38003Y-32332D01*
X33858Y-35334D02*
X34055Y-35334D01*
X34055Y-35925D02*
X33858Y-35925D01*
X47736Y-34744D02*
X47539Y-34744D01*
X47539Y-34153D02*
X47736Y-34153D01*
X36811Y-31988D02*
X37007Y-31988D01*
X37007Y-32578D02*
X36811Y-32578D01*
X36811Y-33169D02*
X37007Y-33169D01*
X37007Y-33759D02*
X36811Y-33759D01*
X45866Y-27559D02*
X45669Y-27559D01*
X45669Y-26968D02*
X45866Y-26968D01*
X36811Y-19094D02*
X37007Y-19094D01*
X37007Y-19685D02*
X36811Y-19685D01*
X25590Y-31496D02*
X25590Y-31692D01*
X25000Y-31692D02*
X25000Y-31496D01*
X30158Y-29921D02*
G75*
G03X30158Y-29921I-139J0D01*
G74*
G01*
X29822Y-30314D02*
X29625Y-30118D01*
X29625Y-30118D02*
X29625Y-27755D01*
X29625Y-27755D02*
X29822Y-27559D01*
X29822Y-27559D02*
X32185Y-27559D01*
X32185Y-27559D02*
X32381Y-27755D01*
X32381Y-27755D02*
X32381Y-30118D01*
X32381Y-30118D02*
X32185Y-30314D01*
X32185Y-30314D02*
X29822Y-30314D01*
X42716Y-25787D02*
X42716Y-21456D01*
X42716Y-21456D02*
X38779Y-21456D01*
X42716Y-25787D02*
X38779Y-25787D01*
X38779Y-25787D02*
X38779Y-21456D01*
X40059Y-26870D02*
X40059Y-31200D01*
X40059Y-31200D02*
X43996Y-31200D01*
X40059Y-26870D02*
X43996Y-26870D01*
X43996Y-26870D02*
X43996Y-31200D01*
X44748Y-28937D02*
G75*
G03X44748Y-28937I-44J0D01*
G74*
G01*
X45649Y-28543D02*
X45649Y-29133D01*
X44507Y-28543D02*
X44507Y-29133D01*
X44507Y-28543D02*
X45649Y-28543D01*
X44507Y-29133D02*
X45649Y-29133D01*
X47736Y-18307D02*
X47539Y-18307D01*
X47539Y-17716D02*
X47736Y-17716D01*
X32086Y-34153D02*
X32283Y-34153D01*
X32283Y-34744D02*
X32086Y-34744D01*
X26043Y-33523D02*
G75*
G03X26043Y-33523I-98J0D01*
G74*
G01*
X25590Y-32578D02*
X26181Y-32578D01*
X26181Y-32578D02*
X26181Y-33759D01*
X26181Y-33759D02*
X25590Y-33759D01*
X25590Y-33759D02*
X25590Y-32578D01*
X38114Y-23622D02*
G75*
G03X38114Y-23622I-44J0D01*
G74*
G01*
X37125Y-24015D02*
X37125Y-23425D01*
X38267Y-24015D02*
X38267Y-23425D01*
X38267Y-24015D02*
X37125Y-24015D01*
X38267Y-23425D02*
X37125Y-23425D01*
X26870Y-31496D02*
X26870Y-31692D01*
X26279Y-31692D02*
X26279Y-31496D01*
X36712Y-25295D02*
X36909Y-25295D01*
X36909Y-25885D02*
X36712Y-25885D01*
G54D14*
G36*
X39367Y-29173D02*
X39362Y-29173D01*
X39349Y-29173D01*
X39327Y-29174D01*
X39298Y-29174D01*
X39260Y-29174D01*
X39216Y-29174D01*
X39165Y-29175D01*
X39108Y-29175D01*
X39045Y-29175D01*
X38976Y-29175D01*
X38903Y-29175D01*
X38825Y-29175D01*
X38743Y-29176D01*
X38657Y-29176D01*
X38568Y-29176D01*
X38476Y-29176D01*
X38387Y-29176D01*
X38293Y-29176D01*
X38201Y-29176D01*
X38112Y-29176D01*
X38026Y-29176D01*
X37945Y-29175D01*
X37867Y-29175D01*
X37794Y-29175D01*
X37726Y-29175D01*
X37663Y-29175D01*
X37606Y-29174D01*
X37556Y-29174D01*
X37512Y-29174D01*
X37476Y-29174D01*
X37447Y-29173D01*
X37426Y-29173D01*
X37413Y-29173D01*
X37409Y-29172D01*
X37413Y-29165D01*
X37421Y-29151D01*
X37434Y-29130D01*
X37450Y-29103D01*
X37470Y-29069D01*
X37493Y-29030D01*
X37519Y-28986D01*
X37548Y-28937D01*
X37580Y-28885D01*
X37613Y-28828D01*
X37649Y-28768D01*
X37686Y-28705D01*
X37724Y-28640D01*
X37764Y-28574D01*
X37805Y-28505D01*
X37846Y-28436D01*
X37887Y-28366D01*
X37929Y-28296D01*
X37970Y-28226D01*
X38011Y-28157D01*
X38051Y-28090D01*
X38090Y-28024D01*
X38128Y-27960D01*
X38164Y-27899D01*
X38199Y-27841D01*
X38231Y-27787D01*
X38261Y-27737D01*
X38288Y-27691D01*
X38313Y-27649D01*
X38334Y-27614D01*
X38352Y-27584D01*
X38366Y-27560D01*
X38376Y-27543D01*
X38382Y-27533D01*
X38383Y-27531D01*
X38385Y-27529D01*
X38387Y-27528D01*
X38389Y-27529D01*
X38393Y-27532D01*
X38397Y-27538D01*
X38404Y-27548D01*
X38412Y-27561D01*
X38423Y-27578D01*
X38437Y-27600D01*
X38454Y-27628D01*
X38474Y-27662D01*
X38498Y-27702D01*
X38526Y-27749D01*
X38549Y-27789D01*
X38708Y-28057D01*
X38681Y-28084D01*
X38664Y-28101D01*
X38647Y-28115D01*
X38630Y-28127D01*
X38611Y-28137D01*
X38590Y-28145D01*
X38565Y-28152D01*
X38535Y-28157D01*
X38500Y-28162D01*
X38458Y-28166D01*
X38408Y-28171D01*
X38377Y-28173D01*
X38321Y-28178D01*
X38274Y-28183D01*
X38234Y-28188D01*
X38200Y-28196D01*
X38172Y-28205D01*
X38147Y-28217D01*
X38126Y-28232D01*
X38107Y-28250D01*
X38089Y-28272D01*
X38072Y-28299D01*
X38055Y-28327D01*
X38043Y-28347D01*
X38027Y-28370D01*
X38009Y-28394D01*
X37992Y-28417D01*
X37992Y-28417D01*
X37952Y-28467D01*
X37921Y-28513D01*
X37896Y-28556D01*
X37878Y-28595D01*
X37868Y-28632D01*
X37863Y-28667D01*
X37866Y-28702D01*
X37874Y-28737D01*
X37888Y-28772D01*
X37894Y-28783D01*
X37900Y-28796D01*
X37909Y-28816D01*
X37919Y-28842D01*
X37930Y-28871D01*
X37942Y-28903D01*
X37950Y-28924D01*
X37969Y-28977D01*
X37986Y-29021D01*
X38001Y-29057D01*
X38014Y-29084D01*
X38025Y-29101D01*
X38033Y-29111D01*
X38034Y-29111D01*
X38050Y-29115D01*
X38070Y-29115D01*
X38088Y-29109D01*
X38093Y-29106D01*
X38106Y-29094D01*
X38119Y-29074D01*
X38121Y-29071D01*
X38127Y-29058D01*
X38130Y-29047D01*
X38132Y-29034D01*
X38133Y-29018D01*
X38134Y-28996D01*
X38134Y-28994D01*
X38133Y-28967D01*
X38131Y-28946D01*
X38128Y-28928D01*
X38123Y-28911D01*
X38113Y-28885D01*
X38101Y-28860D01*
X38089Y-28839D01*
X38082Y-28830D01*
X38079Y-28824D01*
X38078Y-28817D01*
X38080Y-28804D01*
X38083Y-28793D01*
X38089Y-28751D01*
X38088Y-28711D01*
X38079Y-28673D01*
X38074Y-28659D01*
X38076Y-28653D01*
X38084Y-28642D01*
X38098Y-28624D01*
X38115Y-28606D01*
X38133Y-28587D01*
X38149Y-28572D01*
X38165Y-28559D01*
X38183Y-28546D01*
X38205Y-28532D01*
X38221Y-28522D01*
X38284Y-28484D01*
X38327Y-28518D01*
X38370Y-28551D01*
X38353Y-28600D01*
X38337Y-28648D01*
X38281Y-28703D01*
X38257Y-28729D01*
X38236Y-28752D01*
X38220Y-28771D01*
X38210Y-28785D01*
X38198Y-28814D01*
X38188Y-28850D01*
X38182Y-28890D01*
X38179Y-28934D01*
X38180Y-28978D01*
X38182Y-28997D01*
X38188Y-29039D01*
X38198Y-29072D01*
X38212Y-29096D01*
X38217Y-29103D01*
X38227Y-29111D01*
X38238Y-29115D01*
X38253Y-29116D01*
X38270Y-29114D01*
X38285Y-29109D01*
X38299Y-29100D01*
X38313Y-29086D01*
X38326Y-29066D01*
X38341Y-29039D01*
X38357Y-29004D01*
X38364Y-28990D01*
X38381Y-28951D01*
X38396Y-28919D01*
X38410Y-28893D01*
X38424Y-28871D01*
X38438Y-28852D01*
X38453Y-28834D01*
X38457Y-28830D01*
X38483Y-28806D01*
X38510Y-28787D01*
X38523Y-28780D01*
X38540Y-28771D01*
X38553Y-28763D01*
X38561Y-28757D01*
X38562Y-28756D01*
X38567Y-28752D01*
X38577Y-28744D01*
X38593Y-28731D01*
X38613Y-28716D01*
X38636Y-28699D01*
X38647Y-28691D01*
X38688Y-28660D01*
X38722Y-28634D01*
X38750Y-28611D01*
X38773Y-28590D01*
X38791Y-28572D01*
X38806Y-28554D01*
X38817Y-28537D01*
X38827Y-28519D01*
X38835Y-28500D01*
X38837Y-28492D01*
X38845Y-28473D01*
X38853Y-28454D01*
X38861Y-28440D01*
X38862Y-28438D01*
X38872Y-28426D01*
X38883Y-28415D01*
X38895Y-28406D01*
X38905Y-28400D01*
X38911Y-28400D01*
X38911Y-28400D01*
X38914Y-28405D01*
X38921Y-28417D01*
X38932Y-28435D01*
X38947Y-28459D01*
X38964Y-28489D01*
X38984Y-28523D01*
X39007Y-28561D01*
X39032Y-28603D01*
X39058Y-28647D01*
X39085Y-28693D01*
X39113Y-28740D01*
X39141Y-28788D01*
X39169Y-28836D01*
X39197Y-28883D01*
X39224Y-28929D01*
X39250Y-28973D01*
X39274Y-29014D01*
X39297Y-29052D01*
X39316Y-29086D01*
X39334Y-29115D01*
X39348Y-29139D01*
X39358Y-29157D01*
X39365Y-29169D01*
X39367Y-29173D01*
X39367Y-29173D01*
X39367Y-29173D01*
G37*
G54D13*
X30118Y-24606D02*
X30314Y-24606D01*
X30314Y-25196D02*
X30118Y-25196D01*
X30511Y-32972D02*
X30708Y-32972D01*
X30708Y-33562D02*
X30511Y-33562D01*
X36811Y-21850D02*
X37007Y-21850D01*
X37007Y-22440D02*
X36811Y-22440D01*
X29625Y-26377D02*
X29429Y-26377D01*
X29429Y-25787D02*
X29625Y-25787D01*
X34448Y-30807D02*
X34251Y-30807D01*
X34251Y-30216D02*
X34448Y-30216D01*
X27952Y-29527D02*
X27952Y-29330D01*
X28543Y-29330D02*
X28543Y-29527D01*
X35433Y-26279D02*
X35433Y-26476D01*
X34842Y-26476D02*
X34842Y-26279D01*
X35925Y-24114D02*
X35925Y-24311D01*
X35334Y-24311D02*
X35334Y-24114D01*
X27460Y-33562D02*
X27657Y-33562D01*
X27657Y-34153D02*
X27460Y-34153D01*
X45570Y-31692D02*
X45570Y-31889D01*
X44980Y-31889D02*
X44980Y-31692D01*
X37106Y-20866D02*
X37106Y-20669D01*
X37696Y-20669D02*
X37696Y-20866D01*
X45964Y-30708D02*
X45767Y-30708D01*
X45767Y-30118D02*
X45964Y-30118D01*
X25688Y-34251D02*
X25885Y-34251D01*
X25885Y-34842D02*
X25688Y-34842D01*
X28051Y-35236D02*
X28051Y-35433D01*
X27460Y-35433D02*
X27460Y-35236D01*
X32086Y-32972D02*
X32283Y-32972D01*
X32283Y-33562D02*
X32086Y-33562D01*
X36811Y-34350D02*
X37007Y-34350D01*
X37007Y-34940D02*
X36811Y-34940D01*
X32086Y-31791D02*
X32283Y-31791D01*
X32283Y-32381D02*
X32086Y-32381D01*
X31889Y-25196D02*
X31692Y-25196D01*
X31692Y-24606D02*
X31889Y-24606D01*
X27854Y-31102D02*
X28051Y-31102D01*
X28051Y-31692D02*
X27854Y-31692D01*
X30511Y-31791D02*
X30708Y-31791D01*
X30708Y-32381D02*
X30511Y-32381D01*
X47736Y-19488D02*
X47539Y-19488D01*
X47539Y-18897D02*
X47736Y-18897D01*
X47244Y-16535D02*
X47244Y-16732D01*
X46653Y-16732D02*
X46653Y-16535D01*
X47736Y-20669D02*
X47539Y-20669D01*
X47539Y-20078D02*
X47736Y-20078D01*
X46653Y-35925D02*
X46653Y-35728D01*
X47244Y-35728D02*
X47244Y-35925D01*
X47736Y-32381D02*
X47539Y-32381D01*
X47539Y-31791D02*
X47736Y-31791D01*
X47736Y-33562D02*
X47539Y-33562D01*
X47539Y-32972D02*
X47736Y-32972D01*
X36811Y-17913D02*
X37007Y-17913D01*
X37007Y-18503D02*
X36811Y-18503D01*
X36917Y-26559D02*
X36917Y-31559D01*
X36917Y-31559D02*
X35917Y-31559D01*
X35917Y-31559D02*
X35917Y-26559D01*
X36917Y-27559D02*
X35917Y-27559D01*
X35917Y-26559D02*
X36917Y-26559D01*
X33226Y-33801D02*
X35868Y-33801D01*
X35868Y-32338D02*
X33226Y-32340D01*
X35868Y-32340D02*
X35868Y-33801D01*
X33226Y-33801D02*
X33226Y-32340D01*
X29429Y-36181D02*
X29625Y-36181D01*
X29625Y-36771D02*
X29429Y-36771D01*
X34235Y-28543D02*
G75*
G03X34235Y-28543I-278J0D01*
G74*
G01*
X33366Y-27755D02*
X34547Y-27755D01*
X34547Y-27755D02*
X34547Y-29330D01*
X34547Y-29330D02*
X33366Y-29330D01*
X33366Y-29330D02*
X33366Y-27755D01*
X24114Y-23425D02*
X22224Y-23425D01*
X22224Y-18307D02*
X24114Y-18307D01*
X24114Y-18307D02*
X32736Y-18307D01*
X32736Y-23425D02*
X32736Y-18307D01*
X22224Y-23425D02*
X22224Y-18307D01*
X24114Y-23425D02*
X24114Y-18307D01*
X24114Y-23425D02*
X32736Y-23425D01*
%LPC*%
G54D15*
X26968Y-28110D03*
X26968Y-28425D03*
X26968Y-28740D03*
X26968Y-29055D03*
X26968Y-29370D03*
G54D16*
X26968Y-27283D03*
X26968Y-30196D03*
G54D17*
X25098Y-27283D03*
X25098Y-30196D03*
G54D16*
X25206Y-27283D03*
X25206Y-30196D03*
G54D18*
X44901Y-25098D03*
X46751Y-25098D03*
X48602Y-25098D03*
G54D19*
X45669Y-36228D03*
G54D20*
X45669Y-35228D03*
X45669Y-34228D03*
G54D19*
X40944Y-36228D03*
G54D20*
X40944Y-35228D03*
X40944Y-34228D03*
G54D19*
X38582Y-36228D03*
G54D20*
X38582Y-35228D03*
X38582Y-34228D03*
G54D19*
X38582Y-16429D03*
G54D20*
X38582Y-17429D03*
X38582Y-18429D03*
G54D19*
X40944Y-16429D03*
G54D20*
X40944Y-17429D03*
X40944Y-18429D03*
G54D19*
X45669Y-16429D03*
G54D20*
X45669Y-17429D03*
X45669Y-18429D03*
G54D19*
X43307Y-16429D03*
G54D20*
X43307Y-17429D03*
X43307Y-18429D03*
G54D19*
X43307Y-36228D03*
G54D20*
X43307Y-35228D03*
X43307Y-34228D03*
G54D21*
X43996Y-22165D03*
X43996Y-20354D03*
X38779Y-30492D03*
X38779Y-32303D03*
G54D22*
X34307Y-35629D03*
X33606Y-35629D03*
X47287Y-34448D03*
X47988Y-34448D03*
X37259Y-32283D03*
X36559Y-32283D03*
X37259Y-33464D03*
X36559Y-33464D03*
X45417Y-27263D03*
X46118Y-27263D03*
X37259Y-19389D03*
X36559Y-19389D03*
G54D23*
X25295Y-31944D03*
X25295Y-31244D03*
G54D24*
X29921Y-30610D03*
X30118Y-30610D03*
X30314Y-30610D03*
X30511Y-30610D03*
X30708Y-30610D03*
X30905Y-30610D03*
X31102Y-30610D03*
X31299Y-30610D03*
X31496Y-30610D03*
X31692Y-30610D03*
X31889Y-30610D03*
X32086Y-30610D03*
G54D25*
X32677Y-30019D03*
X32677Y-29822D03*
X32677Y-29625D03*
X32677Y-29429D03*
X32677Y-29232D03*
X32677Y-29035D03*
X32677Y-28838D03*
X32677Y-28641D03*
X32677Y-28444D03*
X32677Y-28248D03*
X32677Y-28051D03*
X32677Y-27854D03*
G54D24*
X32086Y-27263D03*
X31889Y-27263D03*
X31692Y-27263D03*
X31496Y-27263D03*
X31299Y-27263D03*
X31102Y-27263D03*
X30905Y-27263D03*
X30708Y-27263D03*
X30511Y-27263D03*
X30314Y-27263D03*
X30118Y-27263D03*
X29921Y-27263D03*
G54D25*
X29330Y-27854D03*
X29330Y-28051D03*
X29330Y-28248D03*
X29330Y-28444D03*
X29330Y-28641D03*
X29330Y-28838D03*
X29330Y-29035D03*
X29330Y-29232D03*
X29330Y-29429D03*
X29330Y-29625D03*
X29330Y-29822D03*
X29330Y-30019D03*
G54D26*
X40748Y-25196D03*
X40748Y-22047D03*
X42027Y-27460D03*
X42027Y-30610D03*
G54D27*
X44704Y-29354D03*
X45078Y-29354D03*
X45452Y-29354D03*
X45452Y-28322D03*
X45078Y-28322D03*
X44704Y-28322D03*
G54D22*
X47287Y-18011D03*
X47988Y-18011D03*
X32535Y-34448D03*
X31834Y-34448D03*
G54D28*
X26437Y-33543D03*
X26437Y-32795D03*
X25334Y-33543D03*
X26437Y-33169D03*
X25334Y-32795D03*
G54D27*
X38070Y-23204D03*
X37696Y-23204D03*
X37322Y-23204D03*
X37322Y-24236D03*
X37696Y-24236D03*
X38070Y-24236D03*
G54D23*
X26574Y-31944D03*
X26574Y-31244D03*
G54D22*
X37161Y-25590D03*
X36460Y-25590D03*
X30566Y-24901D03*
X29866Y-24901D03*
X30960Y-33267D03*
X30259Y-33267D03*
X37259Y-22145D03*
X36559Y-22145D03*
X29177Y-26082D03*
X29877Y-26082D03*
X34000Y-30511D03*
X34700Y-30511D03*
G54D23*
X28248Y-29078D03*
X28248Y-29779D03*
X35137Y-26728D03*
X35137Y-26027D03*
X35629Y-24562D03*
X35629Y-23862D03*
G54D22*
X27909Y-33858D03*
X27208Y-33858D03*
G54D23*
X45275Y-32141D03*
X45275Y-31440D03*
X37401Y-20417D03*
X37401Y-21118D03*
G54D22*
X45515Y-30413D03*
X46216Y-30413D03*
X26137Y-34547D03*
X25437Y-34547D03*
G54D23*
X27755Y-35685D03*
X27755Y-34984D03*
G54D22*
X32535Y-33267D03*
X31834Y-33267D03*
X37259Y-34645D03*
X36559Y-34645D03*
X32535Y-32086D03*
X31834Y-32086D03*
X31440Y-24901D03*
X32141Y-24901D03*
X28303Y-31397D03*
X27602Y-31397D03*
X30960Y-32086D03*
X30259Y-32086D03*
X47287Y-19192D03*
X47988Y-19192D03*
G54D23*
X46948Y-16984D03*
X46948Y-16283D03*
G54D22*
X47287Y-20374D03*
X47988Y-20374D03*
G54D23*
X46948Y-35476D03*
X46948Y-36177D03*
G54D22*
X47287Y-32086D03*
X47988Y-32086D03*
X47287Y-33267D03*
X47988Y-33267D03*
X37259Y-18208D03*
X36559Y-18208D03*
G54D19*
X36417Y-27059D03*
G54D20*
X36417Y-28059D03*
X36417Y-29059D03*
X36417Y-30059D03*
X36417Y-31059D03*
G54D29*
X25787Y-16535D03*
X25787Y-36122D03*
X51181Y-36122D03*
X51181Y-16535D03*
G54D30*
X34547Y-31770D03*
G54D31*
X34547Y-34370D03*
X35447Y-34370D03*
X33647Y-34370D03*
G54D22*
X29877Y-36476D03*
X29177Y-36476D03*
G54D32*
X49015Y-23031D03*
X49015Y-22480D03*
X49015Y-21968D03*
X46259Y-23031D03*
X46259Y-22480D03*
X46259Y-21968D03*
X46653Y-21968D03*
X47047Y-21968D03*
X47047Y-22480D03*
X46653Y-22480D03*
X46653Y-23031D03*
X47047Y-23031D03*
X48228Y-21968D03*
X48622Y-21968D03*
X48622Y-22480D03*
X48228Y-22480D03*
X48228Y-23031D03*
X48622Y-23031D03*
G54D33*
X33956Y-27657D03*
X33956Y-29429D03*
G54D34*
X24960Y-18110D03*
X25551Y-18110D03*
X26732Y-18110D03*
X26141Y-18110D03*
X28503Y-18110D03*
X29094Y-18110D03*
X27913Y-18110D03*
X27322Y-18110D03*
X30275Y-18110D03*
X30866Y-18110D03*
X32047Y-18110D03*
X31456Y-18110D03*
X29685Y-18110D03*
G54D35*
X32933Y-22933D03*
X32933Y-22342D03*
X32933Y-21161D03*
X32933Y-21751D03*
X32933Y-19389D03*
X32933Y-18799D03*
X32933Y-19980D03*
X32933Y-20570D03*
G54D34*
X29685Y-23622D03*
X31456Y-23622D03*
X32047Y-23622D03*
X30866Y-23622D03*
X30275Y-23622D03*
X27322Y-23622D03*
X27913Y-23622D03*
X29094Y-23622D03*
X28503Y-23622D03*
X26141Y-23622D03*
X26732Y-23622D03*
X25551Y-23622D03*
X24960Y-23622D03*
M02*
