G04 (created by PCBNEW (2013-07-07 BZR 4022)-stable) date 8/5/2019 09:37:44*
%MOIN*%
G04 Gerber Fmt 3.4, Leading zero omitted, Abs format*
%FSLAX34Y34*%
G01*
G70*
G90*
G04 APERTURE LIST*
%ADD10C,0.00590551*%
%ADD11R,0.0907874X0.0789764*%
%ADD12R,0.0691339X0.0789764*%
%ADD13C,0.118346*%
%ADD14R,0.0671654X0.0671654*%
%ADD15C,0.0671654*%
%ADD16C,0.141969*%
%ADD17R,0.156047X0.0920472*%
%ADD18R,0.0868504X0.173465*%
%ADD19C,0.0356693*%
G04 APERTURE END LIST*
G54D10*
G54D11*
X26968Y-27283D03*
X26968Y-30196D03*
G54D12*
X25098Y-27283D03*
X25098Y-30196D03*
G54D11*
X25206Y-27283D03*
X25206Y-30196D03*
G54D13*
X44901Y-25098D03*
X46751Y-25098D03*
X48602Y-25098D03*
G54D14*
X45669Y-36228D03*
G54D15*
X45669Y-35228D03*
X45669Y-34228D03*
G54D14*
X40944Y-36228D03*
G54D15*
X40944Y-35228D03*
X40944Y-34228D03*
G54D14*
X38582Y-36228D03*
G54D15*
X38582Y-35228D03*
X38582Y-34228D03*
G54D14*
X38582Y-16429D03*
G54D15*
X38582Y-17429D03*
X38582Y-18429D03*
G54D14*
X40944Y-16429D03*
G54D15*
X40944Y-17429D03*
X40944Y-18429D03*
G54D14*
X45669Y-16429D03*
G54D15*
X45669Y-17429D03*
X45669Y-18429D03*
G54D14*
X43307Y-16429D03*
G54D15*
X43307Y-17429D03*
X43307Y-18429D03*
G54D14*
X43307Y-36228D03*
G54D15*
X43307Y-35228D03*
X43307Y-34228D03*
G54D14*
X36417Y-27059D03*
G54D15*
X36417Y-28059D03*
X36417Y-29059D03*
X36417Y-30059D03*
X36417Y-31059D03*
G54D16*
X25787Y-16535D03*
X25787Y-36122D03*
X51181Y-36122D03*
X51181Y-16535D03*
G54D17*
X34547Y-31770D03*
G54D18*
X48818Y-22480D03*
G54D19*
X49015Y-23031D03*
X49015Y-22480D03*
X49015Y-21968D03*
G54D18*
X46456Y-22480D03*
G54D19*
X46259Y-23031D03*
X46259Y-22480D03*
X46259Y-21968D03*
X46653Y-21968D03*
X47047Y-21968D03*
X47047Y-22480D03*
X46653Y-22480D03*
X46653Y-23031D03*
X47047Y-23031D03*
X48228Y-21968D03*
X48622Y-21968D03*
X48622Y-22480D03*
X48228Y-22480D03*
X48228Y-23031D03*
X48622Y-23031D03*
G54D18*
X48425Y-22480D03*
X46850Y-22480D03*
M02*
