G04 (created by PCBNEW (2013-07-07 BZR 4022)-stable) date 4/29/2019 14:53:55*
%MOIN*%
G04 Gerber Fmt 3.4, Leading zero omitted, Abs format*
%FSLAX34Y34*%
G01*
G70*
G90*
G04 APERTURE LIST*
%ADD10C,0.00590551*%
%ADD11R,0.0592913X0.0238583*%
%ADD12R,0.0396362X0.0317362*%
%ADD13R,0.0277953X0.0356693*%
%ADD14R,0.0356693X0.0277953*%
%ADD15R,0.0632283X0.0317323*%
%ADD16R,0.0632283X0.0632283*%
%ADD17C,0.011811*%
G04 APERTURE END LIST*
G54D10*
G54D11*
X37854Y-19474D03*
X37854Y-19974D03*
X37854Y-20474D03*
X40019Y-20474D03*
X40019Y-19974D03*
X40019Y-19474D03*
X40019Y-18974D03*
G54D12*
X39330Y-21614D03*
X38464Y-21989D03*
X38464Y-21239D03*
G54D13*
X40570Y-19803D03*
X41003Y-19803D03*
X40570Y-21968D03*
X41003Y-21968D03*
G54D14*
X37795Y-21555D03*
X37795Y-21988D03*
X39921Y-21791D03*
X39921Y-21358D03*
G54D13*
X40570Y-20393D03*
X41003Y-20393D03*
G54D15*
X37116Y-19685D03*
G54D16*
X37116Y-20472D03*
G54D15*
X37116Y-21259D03*
G54D16*
X40826Y-19133D03*
X40826Y-21062D03*
G54D10*
G36*
X38503Y-21358D02*
X37942Y-21358D01*
X37942Y-21614D01*
X37372Y-21614D01*
X37372Y-22286D01*
X36781Y-21659D01*
X36781Y-21151D01*
X38503Y-21151D01*
X38503Y-21358D01*
X38503Y-21358D01*
G37*
G54D17*
X38503Y-21358D02*
X37942Y-21358D01*
X37942Y-21614D01*
X37372Y-21614D01*
X37372Y-22286D01*
X36781Y-21659D01*
X36781Y-21151D01*
X38503Y-21151D01*
X38503Y-21358D01*
G54D10*
G36*
X37372Y-19783D02*
X36781Y-19783D01*
X36781Y-19266D01*
X37372Y-18676D01*
X37372Y-19783D01*
X37372Y-19783D01*
G37*
G54D17*
X37372Y-19783D02*
X36781Y-19783D01*
X36781Y-19266D01*
X37372Y-18676D01*
X37372Y-19783D01*
G54D10*
G36*
X38169Y-20728D02*
X36781Y-20728D01*
X36781Y-20216D01*
X37372Y-20216D01*
X37372Y-20282D01*
X37487Y-20383D01*
X38169Y-20383D01*
X38169Y-20728D01*
X38169Y-20728D01*
G37*
G54D17*
X38169Y-20728D02*
X36781Y-20728D01*
X36781Y-20216D01*
X37372Y-20216D01*
X37372Y-20282D01*
X37487Y-20383D01*
X38169Y-20383D01*
X38169Y-20728D01*
G54D10*
G36*
X41082Y-19409D02*
X40511Y-19409D01*
X40511Y-19114D01*
X39842Y-19114D01*
X39842Y-18661D01*
X41082Y-18661D01*
X41082Y-19409D01*
X41082Y-19409D01*
G37*
G54D17*
X41082Y-19409D02*
X40511Y-19409D01*
X40511Y-19114D01*
X39842Y-19114D01*
X39842Y-18661D01*
X41082Y-18661D01*
X41082Y-19409D01*
G54D10*
G36*
X41082Y-21515D02*
X40354Y-21515D01*
X40354Y-21093D01*
X40217Y-20984D01*
X39783Y-20984D01*
X39783Y-20374D01*
X40649Y-20374D01*
X40649Y-20787D01*
X41082Y-20787D01*
X41082Y-21515D01*
X41082Y-21515D01*
G37*
G54D17*
X41082Y-21515D02*
X40354Y-21515D01*
X40354Y-21093D01*
X40217Y-20984D01*
X39783Y-20984D01*
X39783Y-20374D01*
X40649Y-20374D01*
X40649Y-20787D01*
X41082Y-20787D01*
X41082Y-21515D01*
M02*
