G04 (created by PCBNEW (2013-07-07 BZR 4022)-stable) date 4/29/2019 14:53:55*
%MOIN*%
G04 Gerber Fmt 3.4, Leading zero omitted, Abs format*
%FSLAX34Y34*%
G01*
G70*
G90*
G04 APERTURE LIST*
%ADD10C,0.00590551*%
%ADD11R,0.0533858X0.0124409*%
%ADD12R,0.0277953X0.0356693*%
%ADD13R,0.0356693X0.0277953*%
%ADD14R,0.0632283X0.0632283*%
%ADD15C,0.0199213*%
%ADD16C,0.011811*%
%ADD17C,0.01*%
G04 APERTURE END LIST*
G54D10*
G54D11*
X39498Y-19320D03*
X39498Y-19576D03*
X39498Y-19832D03*
X39498Y-20088D03*
X39498Y-20344D03*
X39498Y-20600D03*
X39498Y-20856D03*
X39498Y-21112D03*
X39498Y-21368D03*
X39498Y-21624D03*
X37234Y-21624D03*
X37234Y-21368D03*
X37234Y-21112D03*
X37234Y-20856D03*
X37234Y-20600D03*
X37234Y-20344D03*
X37234Y-20088D03*
X37234Y-19832D03*
X37234Y-19576D03*
X37234Y-19320D03*
G54D12*
X37893Y-22047D03*
X38326Y-22047D03*
G54D13*
X40118Y-21476D03*
X40118Y-21043D03*
G54D12*
X39625Y-22047D03*
X39192Y-22047D03*
G54D13*
X40708Y-20767D03*
X40708Y-21200D03*
X40118Y-20413D03*
X40118Y-19980D03*
X40118Y-19468D03*
X40118Y-19035D03*
G54D14*
X40787Y-20236D03*
X40787Y-21732D03*
X40787Y-19251D03*
G54D15*
X39409Y-18838D03*
X38464Y-18838D03*
X37519Y-18838D03*
G54D10*
G36*
X41043Y-19547D02*
X40492Y-19547D01*
X40492Y-18661D01*
X41043Y-18661D01*
X41043Y-19547D01*
X41043Y-19547D01*
G37*
G54D16*
X41043Y-19547D02*
X40492Y-19547D01*
X40492Y-18661D01*
X41043Y-18661D01*
X41043Y-19547D01*
G54D10*
G36*
X41043Y-20807D02*
X40555Y-20807D01*
X40492Y-20743D01*
X40492Y-19940D01*
X41043Y-19940D01*
X41043Y-20807D01*
X41043Y-20807D01*
G37*
G54D16*
X41043Y-20807D02*
X40555Y-20807D01*
X40492Y-20743D01*
X40492Y-19940D01*
X41043Y-19940D01*
X41043Y-20807D01*
G54D10*
G36*
X41043Y-22303D02*
X40492Y-22303D01*
X40492Y-21240D01*
X41043Y-21240D01*
X41043Y-22303D01*
X41043Y-22303D01*
G37*
G54D16*
X41043Y-22303D02*
X40492Y-22303D01*
X40492Y-21240D01*
X41043Y-21240D01*
X41043Y-22303D01*
G54D10*
G36*
X39654Y-19005D02*
X39105Y-19005D01*
X39105Y-18652D01*
X39654Y-18652D01*
X39654Y-19005D01*
X39654Y-19005D01*
G37*
G54D17*
X39654Y-19005D02*
X39105Y-19005D01*
X39105Y-18652D01*
X39654Y-18652D01*
X39654Y-19005D01*
G54D10*
G36*
X38709Y-19005D02*
X38160Y-19005D01*
X38160Y-18652D01*
X38709Y-18652D01*
X38709Y-19005D01*
X38709Y-19005D01*
G37*
G54D17*
X38709Y-19005D02*
X38160Y-19005D01*
X38160Y-18652D01*
X38709Y-18652D01*
X38709Y-19005D01*
G54D10*
G36*
X37764Y-19005D02*
X37469Y-19005D01*
X37469Y-19300D01*
X36782Y-19300D01*
X36782Y-19272D01*
X37402Y-18652D01*
X37764Y-18652D01*
X37764Y-19005D01*
X37764Y-19005D01*
G37*
G54D17*
X37764Y-19005D02*
X37469Y-19005D01*
X37469Y-19300D01*
X36782Y-19300D01*
X36782Y-19272D01*
X37402Y-18652D01*
X37764Y-18652D01*
X37764Y-19005D01*
M02*
